%
M48
M72
T01C0.00800
T02C0.01378
%
T01
X57714Y45412
X57714Y42734
X57714Y40070
X68735Y106107
X73735Y106107
X78733Y106107
X83734Y106107
X88736Y106107
X93730Y106107
X98735Y106107
X103731Y106107
X108733Y106107
X113732Y106107
X118735Y106107
X123739Y106107
X128729Y106107
T02
X38423Y51107
X27518Y51107
X67676Y86039
X32769Y121067
X134123Y77829
X143186Y72681
X134075Y63458
X154772Y51107
X165677Y51107
X160137Y121067
M30
