G75*
%MOIN*%
%OFA0B0*%
%FSLAX25Y25*%
%IPPOS*%
%LPD*%
%AMOC8*
5,1,8,0,0,1.08239X$1,22.5*
%
%ADD10C,0.00600*%
%ADD11C,0.00400*%
%ADD12C,0.00300*%
%ADD13C,0.00200*%
D10*
X0046490Y0004511D02*
X0046415Y0045619D01*
X0018449Y0045619D01*
X0018524Y0055507D01*
X0014221Y0055507D01*
X0014221Y0126729D01*
X0015082Y0126729D01*
X0015187Y0126731D01*
X0015291Y0126737D01*
X0015395Y0126747D01*
X0015499Y0126760D01*
X0015602Y0126778D01*
X0015704Y0126799D01*
X0015806Y0126824D01*
X0015906Y0126853D01*
X0016006Y0126886D01*
X0016104Y0126922D01*
X0016200Y0126962D01*
X0016296Y0127006D01*
X0016389Y0127053D01*
X0016480Y0127104D01*
X0016570Y0127158D01*
X0016658Y0127215D01*
X0016743Y0127276D01*
X0016826Y0127339D01*
X0016906Y0127406D01*
X0016984Y0127476D01*
X0017060Y0127548D01*
X0017132Y0127624D01*
X0017202Y0127702D01*
X0017269Y0127782D01*
X0017332Y0127865D01*
X0017393Y0127950D01*
X0017450Y0128038D01*
X0017504Y0128127D01*
X0017555Y0128219D01*
X0017602Y0128312D01*
X0017646Y0128408D01*
X0017686Y0128504D01*
X0017722Y0128602D01*
X0017755Y0128702D01*
X0017784Y0128802D01*
X0017809Y0128904D01*
X0017830Y0129006D01*
X0017848Y0129109D01*
X0017861Y0129213D01*
X0017871Y0129317D01*
X0017877Y0129421D01*
X0017879Y0129526D01*
X0017879Y0132323D01*
X0023687Y0132323D01*
X0023802Y0132325D01*
X0023917Y0132331D01*
X0024032Y0132340D01*
X0024146Y0132354D01*
X0024260Y0132371D01*
X0024373Y0132392D01*
X0024485Y0132417D01*
X0024596Y0132445D01*
X0024707Y0132478D01*
X0024816Y0132513D01*
X0024924Y0132553D01*
X0025031Y0132596D01*
X0025136Y0132643D01*
X0025239Y0132693D01*
X0025341Y0132747D01*
X0025441Y0132803D01*
X0025539Y0132864D01*
X0025635Y0132927D01*
X0025729Y0132994D01*
X0025820Y0133064D01*
X0025909Y0133137D01*
X0025996Y0133212D01*
X0026080Y0133291D01*
X0026161Y0133372D01*
X0026240Y0133456D01*
X0026315Y0133543D01*
X0026388Y0133632D01*
X0026458Y0133723D01*
X0026525Y0133817D01*
X0026588Y0133913D01*
X0026649Y0134011D01*
X0026705Y0134111D01*
X0026759Y0134213D01*
X0026809Y0134316D01*
X0026856Y0134421D01*
X0026899Y0134528D01*
X0026939Y0134636D01*
X0026974Y0134745D01*
X0027007Y0134856D01*
X0027035Y0134967D01*
X0027060Y0135079D01*
X0027081Y0135192D01*
X0027098Y0135306D01*
X0027112Y0135420D01*
X0027121Y0135535D01*
X0027127Y0135650D01*
X0027129Y0135765D01*
X0027129Y0138129D01*
X0092312Y0138129D01*
X0092345Y0138129D01*
X0092312Y0138129D02*
X0168897Y0138133D01*
X0168897Y0129095D01*
X0168899Y0128987D01*
X0168905Y0128880D01*
X0168914Y0128773D01*
X0168928Y0128666D01*
X0168945Y0128560D01*
X0168966Y0128455D01*
X0168991Y0128350D01*
X0169019Y0128246D01*
X0169051Y0128144D01*
X0169087Y0128042D01*
X0169126Y0127942D01*
X0169169Y0127844D01*
X0169216Y0127747D01*
X0169265Y0127652D01*
X0169319Y0127558D01*
X0169375Y0127467D01*
X0169435Y0127377D01*
X0169498Y0127290D01*
X0169564Y0127205D01*
X0169633Y0127123D01*
X0169705Y0127043D01*
X0169779Y0126965D01*
X0169857Y0126891D01*
X0169937Y0126819D01*
X0170019Y0126750D01*
X0170104Y0126684D01*
X0170191Y0126621D01*
X0170281Y0126561D01*
X0170372Y0126505D01*
X0170466Y0126451D01*
X0170561Y0126402D01*
X0170658Y0126355D01*
X0170756Y0126312D01*
X0170856Y0126273D01*
X0170958Y0126237D01*
X0171060Y0126205D01*
X0171164Y0126177D01*
X0171269Y0126152D01*
X0171374Y0126131D01*
X0171480Y0126114D01*
X0171587Y0126100D01*
X0171694Y0126091D01*
X0171801Y0126085D01*
X0171909Y0126083D01*
X0179008Y0126083D01*
X0179008Y0055292D01*
X0174276Y0055292D01*
X0174351Y0046049D01*
X0146510Y0046049D01*
X0146585Y0004511D01*
X0046490Y0004511D01*
D11*
X0057033Y0042994D02*
X0057033Y0045594D01*
X0057035Y0045651D01*
X0057040Y0045707D01*
X0057050Y0045763D01*
X0057063Y0045818D01*
X0057079Y0045873D01*
X0057099Y0045926D01*
X0057122Y0045977D01*
X0057149Y0046028D01*
X0057179Y0046076D01*
X0057212Y0046122D01*
X0057248Y0046166D01*
X0057287Y0046207D01*
X0057328Y0046246D01*
X0057372Y0046282D01*
X0057418Y0046315D01*
X0057467Y0046345D01*
X0057517Y0046372D01*
X0057568Y0046395D01*
X0057621Y0046415D01*
X0057676Y0046431D01*
X0057731Y0046444D01*
X0057787Y0046454D01*
X0057843Y0046459D01*
X0057900Y0046461D01*
X0059344Y0046461D01*
X0059344Y0042994D01*
X0061569Y0044150D02*
X0061569Y0045305D01*
X0061571Y0045372D01*
X0061577Y0045439D01*
X0061587Y0045506D01*
X0061600Y0045572D01*
X0061618Y0045637D01*
X0061639Y0045700D01*
X0061664Y0045763D01*
X0061692Y0045824D01*
X0061724Y0045883D01*
X0061759Y0045940D01*
X0061798Y0045995D01*
X0061839Y0046048D01*
X0061884Y0046098D01*
X0061932Y0046146D01*
X0061982Y0046191D01*
X0062035Y0046232D01*
X0062090Y0046271D01*
X0062147Y0046306D01*
X0062206Y0046338D01*
X0062267Y0046366D01*
X0062330Y0046391D01*
X0062393Y0046412D01*
X0062458Y0046430D01*
X0062524Y0046443D01*
X0062591Y0046453D01*
X0062658Y0046459D01*
X0062725Y0046461D01*
X0062792Y0046459D01*
X0062859Y0046453D01*
X0062926Y0046443D01*
X0062992Y0046430D01*
X0063057Y0046412D01*
X0063120Y0046391D01*
X0063183Y0046366D01*
X0063244Y0046338D01*
X0063303Y0046306D01*
X0063360Y0046271D01*
X0063415Y0046232D01*
X0063468Y0046191D01*
X0063518Y0046146D01*
X0063566Y0046098D01*
X0063611Y0046048D01*
X0063652Y0045995D01*
X0063691Y0045940D01*
X0063726Y0045883D01*
X0063758Y0045824D01*
X0063786Y0045763D01*
X0063811Y0045700D01*
X0063832Y0045637D01*
X0063850Y0045572D01*
X0063863Y0045506D01*
X0063873Y0045439D01*
X0063879Y0045372D01*
X0063881Y0045305D01*
X0063880Y0045305D02*
X0063880Y0044150D01*
X0063881Y0044150D02*
X0063879Y0044083D01*
X0063873Y0044016D01*
X0063863Y0043949D01*
X0063850Y0043883D01*
X0063832Y0043818D01*
X0063811Y0043755D01*
X0063786Y0043692D01*
X0063758Y0043631D01*
X0063726Y0043572D01*
X0063691Y0043515D01*
X0063652Y0043460D01*
X0063611Y0043407D01*
X0063566Y0043357D01*
X0063518Y0043309D01*
X0063468Y0043264D01*
X0063415Y0043223D01*
X0063360Y0043184D01*
X0063303Y0043149D01*
X0063244Y0043117D01*
X0063183Y0043089D01*
X0063120Y0043064D01*
X0063057Y0043043D01*
X0062992Y0043025D01*
X0062926Y0043012D01*
X0062859Y0043002D01*
X0062792Y0042996D01*
X0062725Y0042994D01*
X0062658Y0042996D01*
X0062591Y0043002D01*
X0062524Y0043012D01*
X0062458Y0043025D01*
X0062393Y0043043D01*
X0062330Y0043064D01*
X0062267Y0043089D01*
X0062206Y0043117D01*
X0062147Y0043149D01*
X0062090Y0043184D01*
X0062035Y0043223D01*
X0061982Y0043264D01*
X0061932Y0043309D01*
X0061884Y0043357D01*
X0061839Y0043407D01*
X0061798Y0043460D01*
X0061759Y0043515D01*
X0061724Y0043572D01*
X0061692Y0043631D01*
X0061664Y0043692D01*
X0061639Y0043755D01*
X0061618Y0043818D01*
X0061600Y0043883D01*
X0061587Y0043949D01*
X0061577Y0044016D01*
X0061571Y0044083D01*
X0061569Y0044150D01*
X0065761Y0042994D02*
X0066049Y0042994D01*
X0066106Y0042996D01*
X0066162Y0043001D01*
X0066218Y0043011D01*
X0066273Y0043024D01*
X0066328Y0043040D01*
X0066381Y0043060D01*
X0066432Y0043083D01*
X0066483Y0043110D01*
X0066531Y0043140D01*
X0066577Y0043173D01*
X0066621Y0043209D01*
X0066662Y0043248D01*
X0066701Y0043289D01*
X0066737Y0043333D01*
X0066770Y0043379D01*
X0066800Y0043428D01*
X0066827Y0043478D01*
X0066850Y0043529D01*
X0066870Y0043582D01*
X0066886Y0043637D01*
X0066899Y0043692D01*
X0066909Y0043748D01*
X0066914Y0043804D01*
X0066916Y0043861D01*
X0066916Y0048194D01*
X0067494Y0046461D02*
X0065761Y0046461D01*
X0068952Y0046461D02*
X0070686Y0046461D01*
X0072489Y0046461D02*
X0072489Y0042994D01*
X0073934Y0042994D01*
X0073991Y0042996D01*
X0074047Y0043001D01*
X0074103Y0043011D01*
X0074158Y0043024D01*
X0074213Y0043040D01*
X0074266Y0043060D01*
X0074317Y0043083D01*
X0074368Y0043110D01*
X0074416Y0043140D01*
X0074462Y0043173D01*
X0074506Y0043209D01*
X0074547Y0043248D01*
X0074586Y0043289D01*
X0074622Y0043333D01*
X0074655Y0043379D01*
X0074685Y0043428D01*
X0074712Y0043478D01*
X0074735Y0043529D01*
X0074755Y0043582D01*
X0074771Y0043637D01*
X0074784Y0043692D01*
X0074794Y0043748D01*
X0074799Y0043804D01*
X0074801Y0043861D01*
X0074800Y0043861D02*
X0074800Y0046461D01*
X0077000Y0045594D02*
X0077000Y0043861D01*
X0077002Y0043804D01*
X0077007Y0043748D01*
X0077017Y0043692D01*
X0077030Y0043637D01*
X0077046Y0043582D01*
X0077066Y0043529D01*
X0077089Y0043478D01*
X0077116Y0043427D01*
X0077146Y0043379D01*
X0077179Y0043333D01*
X0077215Y0043289D01*
X0077254Y0043248D01*
X0077295Y0043209D01*
X0077339Y0043173D01*
X0077385Y0043140D01*
X0077434Y0043110D01*
X0077484Y0043083D01*
X0077535Y0043060D01*
X0077588Y0043040D01*
X0077643Y0043024D01*
X0077698Y0043011D01*
X0077754Y0043001D01*
X0077810Y0042996D01*
X0077867Y0042994D01*
X0079312Y0042994D01*
X0079312Y0048194D01*
X0079312Y0046461D02*
X0077867Y0046461D01*
X0077810Y0046459D01*
X0077754Y0046454D01*
X0077698Y0046444D01*
X0077643Y0046431D01*
X0077588Y0046415D01*
X0077535Y0046395D01*
X0077484Y0046372D01*
X0077434Y0046345D01*
X0077385Y0046315D01*
X0077339Y0046282D01*
X0077295Y0046246D01*
X0077254Y0046207D01*
X0077215Y0046166D01*
X0077179Y0046122D01*
X0077146Y0046076D01*
X0077116Y0046028D01*
X0077089Y0045977D01*
X0077066Y0045926D01*
X0077046Y0045873D01*
X0077030Y0045818D01*
X0077017Y0045763D01*
X0077007Y0045707D01*
X0077002Y0045651D01*
X0077000Y0045594D01*
X0070108Y0043861D02*
X0070108Y0048194D01*
X0073486Y0051394D02*
X0074931Y0051394D01*
X0074988Y0051396D01*
X0075044Y0051401D01*
X0075100Y0051411D01*
X0075155Y0051424D01*
X0075210Y0051440D01*
X0075263Y0051460D01*
X0075314Y0051483D01*
X0075365Y0051510D01*
X0075413Y0051540D01*
X0075459Y0051573D01*
X0075503Y0051609D01*
X0075544Y0051648D01*
X0075583Y0051689D01*
X0075619Y0051733D01*
X0075652Y0051779D01*
X0075682Y0051828D01*
X0075709Y0051878D01*
X0075732Y0051929D01*
X0075752Y0051982D01*
X0075768Y0052037D01*
X0075781Y0052092D01*
X0075791Y0052148D01*
X0075796Y0052204D01*
X0075798Y0052261D01*
X0075798Y0053994D01*
X0075796Y0054051D01*
X0075791Y0054107D01*
X0075781Y0054163D01*
X0075768Y0054218D01*
X0075752Y0054273D01*
X0075732Y0054326D01*
X0075709Y0054377D01*
X0075682Y0054428D01*
X0075652Y0054476D01*
X0075619Y0054522D01*
X0075583Y0054566D01*
X0075544Y0054607D01*
X0075503Y0054646D01*
X0075459Y0054682D01*
X0075413Y0054715D01*
X0075365Y0054745D01*
X0075314Y0054772D01*
X0075263Y0054795D01*
X0075210Y0054815D01*
X0075155Y0054831D01*
X0075100Y0054844D01*
X0075044Y0054854D01*
X0074988Y0054859D01*
X0074931Y0054861D01*
X0073486Y0054861D01*
X0073486Y0056594D02*
X0073486Y0051394D01*
X0071237Y0052550D02*
X0071237Y0053705D01*
X0071235Y0053772D01*
X0071229Y0053839D01*
X0071219Y0053906D01*
X0071206Y0053972D01*
X0071188Y0054037D01*
X0071167Y0054100D01*
X0071142Y0054163D01*
X0071114Y0054224D01*
X0071082Y0054283D01*
X0071047Y0054340D01*
X0071008Y0054395D01*
X0070967Y0054448D01*
X0070922Y0054498D01*
X0070874Y0054546D01*
X0070824Y0054591D01*
X0070771Y0054632D01*
X0070716Y0054671D01*
X0070659Y0054706D01*
X0070600Y0054738D01*
X0070539Y0054766D01*
X0070476Y0054791D01*
X0070413Y0054812D01*
X0070348Y0054830D01*
X0070282Y0054843D01*
X0070215Y0054853D01*
X0070148Y0054859D01*
X0070081Y0054861D01*
X0070014Y0054859D01*
X0069947Y0054853D01*
X0069880Y0054843D01*
X0069814Y0054830D01*
X0069749Y0054812D01*
X0069686Y0054791D01*
X0069623Y0054766D01*
X0069562Y0054738D01*
X0069503Y0054706D01*
X0069446Y0054671D01*
X0069391Y0054632D01*
X0069338Y0054591D01*
X0069288Y0054546D01*
X0069240Y0054498D01*
X0069195Y0054448D01*
X0069154Y0054395D01*
X0069115Y0054340D01*
X0069080Y0054283D01*
X0069048Y0054224D01*
X0069020Y0054163D01*
X0068995Y0054100D01*
X0068974Y0054037D01*
X0068956Y0053972D01*
X0068943Y0053906D01*
X0068933Y0053839D01*
X0068927Y0053772D01*
X0068925Y0053705D01*
X0068926Y0053705D02*
X0068926Y0052550D01*
X0068925Y0052550D02*
X0068927Y0052483D01*
X0068933Y0052416D01*
X0068943Y0052349D01*
X0068956Y0052283D01*
X0068974Y0052218D01*
X0068995Y0052155D01*
X0069020Y0052092D01*
X0069048Y0052031D01*
X0069080Y0051972D01*
X0069115Y0051915D01*
X0069154Y0051860D01*
X0069195Y0051807D01*
X0069240Y0051757D01*
X0069288Y0051709D01*
X0069338Y0051664D01*
X0069391Y0051623D01*
X0069446Y0051584D01*
X0069503Y0051549D01*
X0069562Y0051517D01*
X0069623Y0051489D01*
X0069686Y0051464D01*
X0069749Y0051443D01*
X0069814Y0051425D01*
X0069880Y0051412D01*
X0069947Y0051402D01*
X0070014Y0051396D01*
X0070081Y0051394D01*
X0070148Y0051396D01*
X0070215Y0051402D01*
X0070282Y0051412D01*
X0070348Y0051425D01*
X0070413Y0051443D01*
X0070476Y0051464D01*
X0070539Y0051489D01*
X0070600Y0051517D01*
X0070659Y0051549D01*
X0070716Y0051584D01*
X0070771Y0051623D01*
X0070824Y0051664D01*
X0070874Y0051709D01*
X0070922Y0051757D01*
X0070967Y0051807D01*
X0071008Y0051860D01*
X0071047Y0051915D01*
X0071082Y0051972D01*
X0071114Y0052031D01*
X0071142Y0052092D01*
X0071167Y0052155D01*
X0071188Y0052218D01*
X0071206Y0052283D01*
X0071219Y0052349D01*
X0071229Y0052416D01*
X0071235Y0052483D01*
X0071237Y0052550D01*
X0066943Y0054861D02*
X0066076Y0051394D01*
X0065209Y0053705D01*
X0064343Y0051394D01*
X0063476Y0054861D01*
X0061325Y0054861D02*
X0059881Y0054861D01*
X0059824Y0054859D01*
X0059768Y0054854D01*
X0059712Y0054844D01*
X0059657Y0054831D01*
X0059602Y0054815D01*
X0059549Y0054795D01*
X0059498Y0054772D01*
X0059448Y0054745D01*
X0059399Y0054715D01*
X0059353Y0054682D01*
X0059309Y0054646D01*
X0059268Y0054607D01*
X0059229Y0054566D01*
X0059193Y0054522D01*
X0059160Y0054476D01*
X0059130Y0054428D01*
X0059103Y0054377D01*
X0059080Y0054326D01*
X0059060Y0054273D01*
X0059044Y0054218D01*
X0059031Y0054163D01*
X0059021Y0054107D01*
X0059016Y0054051D01*
X0059014Y0053994D01*
X0059014Y0051394D01*
X0061325Y0051394D02*
X0061325Y0054861D01*
X0070108Y0043861D02*
X0070106Y0043804D01*
X0070101Y0043748D01*
X0070091Y0043692D01*
X0070078Y0043637D01*
X0070062Y0043582D01*
X0070042Y0043529D01*
X0070019Y0043478D01*
X0069992Y0043428D01*
X0069962Y0043379D01*
X0069929Y0043333D01*
X0069893Y0043289D01*
X0069854Y0043248D01*
X0069813Y0043209D01*
X0069769Y0043173D01*
X0069723Y0043140D01*
X0069675Y0043110D01*
X0069624Y0043083D01*
X0069573Y0043060D01*
X0069520Y0043040D01*
X0069465Y0043024D01*
X0069410Y0043011D01*
X0069354Y0043001D01*
X0069298Y0042996D01*
X0069241Y0042994D01*
X0068952Y0042994D01*
X0081240Y0051394D02*
X0081186Y0051395D01*
X0081133Y0051400D01*
X0081081Y0051409D01*
X0081029Y0051421D01*
X0080978Y0051437D01*
X0080929Y0051457D01*
X0080881Y0051480D01*
X0080834Y0051506D01*
X0080790Y0051536D01*
X0080748Y0051569D01*
X0080708Y0051605D01*
X0080671Y0051643D01*
X0080637Y0051684D01*
X0080606Y0051727D01*
X0080578Y0051772D01*
X0080553Y0051820D01*
X0080532Y0051868D01*
X0080514Y0051919D01*
X0080500Y0051970D01*
X0080490Y0052022D01*
X0080483Y0052075D01*
X0080480Y0052128D01*
X0080481Y0052182D01*
X0080486Y0052235D01*
X0080494Y0052287D01*
X0080506Y0052339D01*
X0080522Y0052390D01*
X0080541Y0052440D01*
X0080564Y0052488D01*
X0080590Y0052534D01*
X0080620Y0052579D01*
X0080652Y0052621D01*
X0080688Y0052661D01*
X0080726Y0052698D01*
X0080767Y0052732D01*
X0080810Y0052764D01*
X0080855Y0052792D01*
X0080902Y0052817D01*
X0080951Y0052838D01*
X0080951Y0052839D02*
X0082396Y0053416D01*
X0082395Y0053417D02*
X0082444Y0053438D01*
X0082491Y0053463D01*
X0082536Y0053491D01*
X0082579Y0053523D01*
X0082620Y0053557D01*
X0082658Y0053594D01*
X0082694Y0053634D01*
X0082726Y0053676D01*
X0082756Y0053721D01*
X0082782Y0053767D01*
X0082805Y0053815D01*
X0082824Y0053865D01*
X0082840Y0053916D01*
X0082852Y0053968D01*
X0082860Y0054020D01*
X0082865Y0054073D01*
X0082866Y0054127D01*
X0082863Y0054180D01*
X0082856Y0054233D01*
X0082846Y0054285D01*
X0082832Y0054336D01*
X0082814Y0054387D01*
X0082793Y0054435D01*
X0082768Y0054483D01*
X0082740Y0054528D01*
X0082709Y0054571D01*
X0082675Y0054612D01*
X0082638Y0054650D01*
X0082598Y0054686D01*
X0082556Y0054719D01*
X0082512Y0054749D01*
X0082465Y0054775D01*
X0082417Y0054798D01*
X0082368Y0054818D01*
X0082317Y0054834D01*
X0082265Y0054846D01*
X0082213Y0054855D01*
X0082160Y0054860D01*
X0082106Y0054861D01*
X0082829Y0051682D02*
X0082701Y0051638D01*
X0082572Y0051598D01*
X0082442Y0051561D01*
X0082311Y0051528D01*
X0082179Y0051498D01*
X0082047Y0051472D01*
X0081913Y0051450D01*
X0081779Y0051431D01*
X0081645Y0051416D01*
X0081510Y0051405D01*
X0081375Y0051397D01*
X0081240Y0051394D01*
X0080807Y0054572D02*
X0080910Y0054616D01*
X0081014Y0054657D01*
X0081119Y0054694D01*
X0081226Y0054727D01*
X0081334Y0054757D01*
X0081442Y0054783D01*
X0081552Y0054805D01*
X0081662Y0054824D01*
X0081773Y0054839D01*
X0081884Y0054850D01*
X0081995Y0054857D01*
X0082107Y0054861D01*
X0084886Y0053705D02*
X0084886Y0053127D01*
X0087197Y0053127D01*
X0087197Y0053705D02*
X0087197Y0052261D01*
X0087195Y0052204D01*
X0087190Y0052148D01*
X0087180Y0052092D01*
X0087167Y0052037D01*
X0087151Y0051982D01*
X0087131Y0051929D01*
X0087108Y0051878D01*
X0087081Y0051828D01*
X0087051Y0051779D01*
X0087018Y0051733D01*
X0086982Y0051689D01*
X0086943Y0051648D01*
X0086902Y0051609D01*
X0086858Y0051573D01*
X0086812Y0051540D01*
X0086764Y0051510D01*
X0086713Y0051483D01*
X0086662Y0051460D01*
X0086609Y0051440D01*
X0086554Y0051424D01*
X0086499Y0051411D01*
X0086443Y0051401D01*
X0086387Y0051396D01*
X0086330Y0051394D01*
X0084886Y0051394D01*
X0084885Y0053705D02*
X0084887Y0053772D01*
X0084893Y0053839D01*
X0084903Y0053906D01*
X0084916Y0053972D01*
X0084934Y0054037D01*
X0084955Y0054100D01*
X0084980Y0054163D01*
X0085008Y0054224D01*
X0085040Y0054283D01*
X0085075Y0054340D01*
X0085114Y0054395D01*
X0085155Y0054448D01*
X0085200Y0054498D01*
X0085248Y0054546D01*
X0085298Y0054591D01*
X0085351Y0054632D01*
X0085406Y0054671D01*
X0085463Y0054706D01*
X0085522Y0054738D01*
X0085583Y0054766D01*
X0085646Y0054791D01*
X0085709Y0054812D01*
X0085774Y0054830D01*
X0085840Y0054843D01*
X0085907Y0054853D01*
X0085974Y0054859D01*
X0086041Y0054861D01*
X0086108Y0054859D01*
X0086175Y0054853D01*
X0086242Y0054843D01*
X0086308Y0054830D01*
X0086373Y0054812D01*
X0086436Y0054791D01*
X0086499Y0054766D01*
X0086560Y0054738D01*
X0086619Y0054706D01*
X0086676Y0054671D01*
X0086731Y0054632D01*
X0086784Y0054591D01*
X0086834Y0054546D01*
X0086882Y0054498D01*
X0086927Y0054448D01*
X0086968Y0054395D01*
X0087007Y0054340D01*
X0087042Y0054283D01*
X0087074Y0054224D01*
X0087102Y0054163D01*
X0087127Y0054100D01*
X0087148Y0054037D01*
X0087166Y0053972D01*
X0087179Y0053906D01*
X0087189Y0053839D01*
X0087195Y0053772D01*
X0087197Y0053705D01*
X0089033Y0054861D02*
X0090189Y0054861D01*
X0090246Y0054859D01*
X0090302Y0054854D01*
X0090358Y0054844D01*
X0090413Y0054831D01*
X0090468Y0054815D01*
X0090521Y0054795D01*
X0090572Y0054772D01*
X0090623Y0054745D01*
X0090671Y0054715D01*
X0090717Y0054682D01*
X0090761Y0054646D01*
X0090802Y0054607D01*
X0090841Y0054566D01*
X0090877Y0054522D01*
X0090910Y0054476D01*
X0090940Y0054428D01*
X0090967Y0054377D01*
X0090990Y0054326D01*
X0091010Y0054273D01*
X0091026Y0054218D01*
X0091039Y0054163D01*
X0091049Y0054107D01*
X0091054Y0054051D01*
X0091056Y0053994D01*
X0091055Y0053994D02*
X0091055Y0052261D01*
X0091056Y0052261D02*
X0091054Y0052204D01*
X0091049Y0052148D01*
X0091039Y0052092D01*
X0091026Y0052037D01*
X0091010Y0051982D01*
X0090990Y0051929D01*
X0090967Y0051878D01*
X0090940Y0051828D01*
X0090910Y0051779D01*
X0090877Y0051733D01*
X0090841Y0051689D01*
X0090802Y0051648D01*
X0090761Y0051609D01*
X0090717Y0051573D01*
X0090671Y0051540D01*
X0090623Y0051510D01*
X0090572Y0051483D01*
X0090521Y0051460D01*
X0090468Y0051440D01*
X0090413Y0051424D01*
X0090358Y0051411D01*
X0090302Y0051401D01*
X0090246Y0051396D01*
X0090189Y0051394D01*
X0089033Y0051394D01*
X0087017Y0048194D02*
X0084128Y0048194D01*
X0087017Y0042994D01*
X0084128Y0042994D01*
X0091641Y0042994D02*
X0093085Y0042994D01*
X0093142Y0042996D01*
X0093198Y0043001D01*
X0093254Y0043011D01*
X0093309Y0043024D01*
X0093364Y0043040D01*
X0093417Y0043060D01*
X0093468Y0043083D01*
X0093519Y0043110D01*
X0093567Y0043140D01*
X0093613Y0043173D01*
X0093657Y0043209D01*
X0093698Y0043248D01*
X0093737Y0043289D01*
X0093773Y0043333D01*
X0093806Y0043379D01*
X0093836Y0043428D01*
X0093863Y0043478D01*
X0093886Y0043529D01*
X0093906Y0043582D01*
X0093922Y0043637D01*
X0093935Y0043692D01*
X0093945Y0043748D01*
X0093950Y0043804D01*
X0093952Y0043861D01*
X0093952Y0045305D01*
X0093952Y0044727D02*
X0091641Y0044727D01*
X0091641Y0045305D01*
X0091643Y0045372D01*
X0091649Y0045439D01*
X0091659Y0045506D01*
X0091672Y0045572D01*
X0091690Y0045637D01*
X0091711Y0045700D01*
X0091736Y0045763D01*
X0091764Y0045824D01*
X0091796Y0045883D01*
X0091831Y0045940D01*
X0091870Y0045995D01*
X0091911Y0046048D01*
X0091956Y0046098D01*
X0092004Y0046146D01*
X0092054Y0046191D01*
X0092107Y0046232D01*
X0092162Y0046271D01*
X0092219Y0046306D01*
X0092278Y0046338D01*
X0092339Y0046366D01*
X0092402Y0046391D01*
X0092465Y0046412D01*
X0092530Y0046430D01*
X0092596Y0046443D01*
X0092663Y0046453D01*
X0092730Y0046459D01*
X0092797Y0046461D01*
X0092864Y0046459D01*
X0092931Y0046453D01*
X0092998Y0046443D01*
X0093064Y0046430D01*
X0093129Y0046412D01*
X0093192Y0046391D01*
X0093255Y0046366D01*
X0093316Y0046338D01*
X0093375Y0046306D01*
X0093432Y0046271D01*
X0093487Y0046232D01*
X0093540Y0046191D01*
X0093590Y0046146D01*
X0093638Y0046098D01*
X0093683Y0046048D01*
X0093724Y0045995D01*
X0093763Y0045940D01*
X0093798Y0045883D01*
X0093830Y0045824D01*
X0093858Y0045763D01*
X0093883Y0045700D01*
X0093904Y0045637D01*
X0093922Y0045572D01*
X0093935Y0045506D01*
X0093945Y0045439D01*
X0093951Y0045372D01*
X0093953Y0045305D01*
X0096177Y0045594D02*
X0096177Y0042994D01*
X0098488Y0042994D02*
X0098488Y0048194D01*
X0098488Y0046461D02*
X0097044Y0046461D01*
X0096987Y0046459D01*
X0096931Y0046454D01*
X0096875Y0046444D01*
X0096820Y0046431D01*
X0096765Y0046415D01*
X0096712Y0046395D01*
X0096661Y0046372D01*
X0096611Y0046345D01*
X0096562Y0046315D01*
X0096516Y0046282D01*
X0096472Y0046246D01*
X0096431Y0046207D01*
X0096392Y0046166D01*
X0096356Y0046122D01*
X0096323Y0046076D01*
X0096293Y0046028D01*
X0096266Y0045977D01*
X0096243Y0045926D01*
X0096223Y0045873D01*
X0096207Y0045818D01*
X0096194Y0045763D01*
X0096184Y0045707D01*
X0096179Y0045651D01*
X0096177Y0045594D01*
X0100536Y0046461D02*
X0102270Y0046461D01*
X0101692Y0048194D02*
X0101692Y0043861D01*
X0101690Y0043804D01*
X0101685Y0043748D01*
X0101675Y0043692D01*
X0101662Y0043637D01*
X0101646Y0043582D01*
X0101626Y0043529D01*
X0101603Y0043478D01*
X0101576Y0043428D01*
X0101546Y0043379D01*
X0101513Y0043333D01*
X0101477Y0043289D01*
X0101438Y0043248D01*
X0101397Y0043209D01*
X0101353Y0043173D01*
X0101307Y0043140D01*
X0101259Y0043110D01*
X0101208Y0043083D01*
X0101157Y0043060D01*
X0101104Y0043040D01*
X0101049Y0043024D01*
X0100994Y0043011D01*
X0100938Y0043001D01*
X0100882Y0042996D01*
X0100825Y0042994D01*
X0100536Y0042994D01*
X0107026Y0044439D02*
X0108471Y0045016D01*
X0108471Y0045017D02*
X0108520Y0045038D01*
X0108567Y0045063D01*
X0108612Y0045091D01*
X0108655Y0045123D01*
X0108696Y0045157D01*
X0108734Y0045194D01*
X0108770Y0045234D01*
X0108802Y0045276D01*
X0108832Y0045321D01*
X0108858Y0045367D01*
X0108881Y0045415D01*
X0108900Y0045465D01*
X0108916Y0045516D01*
X0108928Y0045568D01*
X0108936Y0045620D01*
X0108941Y0045673D01*
X0108942Y0045727D01*
X0108939Y0045780D01*
X0108932Y0045833D01*
X0108922Y0045885D01*
X0108908Y0045936D01*
X0108890Y0045987D01*
X0108869Y0046035D01*
X0108844Y0046083D01*
X0108816Y0046128D01*
X0108785Y0046171D01*
X0108751Y0046212D01*
X0108714Y0046250D01*
X0108674Y0046286D01*
X0108632Y0046319D01*
X0108588Y0046349D01*
X0108541Y0046375D01*
X0108493Y0046398D01*
X0108444Y0046418D01*
X0108393Y0046434D01*
X0108341Y0046446D01*
X0108289Y0046455D01*
X0108236Y0046460D01*
X0108182Y0046461D01*
X0108904Y0043282D02*
X0108776Y0043238D01*
X0108647Y0043198D01*
X0108517Y0043161D01*
X0108386Y0043128D01*
X0108254Y0043098D01*
X0108122Y0043072D01*
X0107988Y0043050D01*
X0107854Y0043031D01*
X0107720Y0043016D01*
X0107585Y0043005D01*
X0107450Y0042997D01*
X0107315Y0042994D01*
X0107316Y0042994D02*
X0107262Y0042995D01*
X0107209Y0043000D01*
X0107157Y0043009D01*
X0107105Y0043021D01*
X0107054Y0043037D01*
X0107005Y0043057D01*
X0106957Y0043080D01*
X0106910Y0043106D01*
X0106866Y0043136D01*
X0106824Y0043169D01*
X0106784Y0043205D01*
X0106747Y0043243D01*
X0106713Y0043284D01*
X0106682Y0043327D01*
X0106654Y0043372D01*
X0106629Y0043420D01*
X0106608Y0043468D01*
X0106590Y0043519D01*
X0106576Y0043570D01*
X0106566Y0043622D01*
X0106559Y0043675D01*
X0106556Y0043728D01*
X0106557Y0043782D01*
X0106562Y0043835D01*
X0106570Y0043887D01*
X0106582Y0043939D01*
X0106598Y0043990D01*
X0106617Y0044040D01*
X0106640Y0044088D01*
X0106666Y0044134D01*
X0106696Y0044179D01*
X0106728Y0044221D01*
X0106764Y0044261D01*
X0106802Y0044298D01*
X0106843Y0044332D01*
X0106886Y0044364D01*
X0106931Y0044392D01*
X0106978Y0044417D01*
X0107027Y0044438D01*
X0106882Y0046172D02*
X0106985Y0046216D01*
X0107089Y0046257D01*
X0107194Y0046294D01*
X0107301Y0046327D01*
X0107409Y0046357D01*
X0107517Y0046383D01*
X0107627Y0046405D01*
X0107737Y0046424D01*
X0107848Y0046439D01*
X0107959Y0046450D01*
X0108070Y0046457D01*
X0108182Y0046461D01*
X0111154Y0046461D02*
X0112598Y0046461D01*
X0112655Y0046459D01*
X0112711Y0046454D01*
X0112767Y0046444D01*
X0112822Y0046431D01*
X0112877Y0046415D01*
X0112930Y0046395D01*
X0112981Y0046372D01*
X0113032Y0046345D01*
X0113080Y0046315D01*
X0113126Y0046282D01*
X0113170Y0046246D01*
X0113211Y0046207D01*
X0113250Y0046166D01*
X0113286Y0046122D01*
X0113319Y0046076D01*
X0113349Y0046028D01*
X0113376Y0045977D01*
X0113399Y0045926D01*
X0113419Y0045873D01*
X0113435Y0045818D01*
X0113448Y0045763D01*
X0113458Y0045707D01*
X0113463Y0045651D01*
X0113465Y0045594D01*
X0113465Y0043861D01*
X0113463Y0043804D01*
X0113458Y0043748D01*
X0113448Y0043692D01*
X0113435Y0043637D01*
X0113419Y0043582D01*
X0113399Y0043529D01*
X0113376Y0043478D01*
X0113349Y0043428D01*
X0113319Y0043379D01*
X0113286Y0043333D01*
X0113250Y0043289D01*
X0113211Y0043248D01*
X0113170Y0043209D01*
X0113126Y0043173D01*
X0113080Y0043140D01*
X0113032Y0043110D01*
X0112981Y0043083D01*
X0112930Y0043060D01*
X0112877Y0043040D01*
X0112822Y0043024D01*
X0112767Y0043011D01*
X0112711Y0043001D01*
X0112655Y0042996D01*
X0112598Y0042994D01*
X0111154Y0042994D01*
X0111154Y0048194D01*
X0112081Y0051394D02*
X0112081Y0054861D01*
X0111937Y0056305D02*
X0112226Y0056305D01*
X0112226Y0056594D01*
X0111937Y0056594D01*
X0111937Y0056305D01*
X0109203Y0054861D02*
X0107758Y0054861D01*
X0109203Y0054861D02*
X0109260Y0054859D01*
X0109316Y0054854D01*
X0109372Y0054844D01*
X0109427Y0054831D01*
X0109482Y0054815D01*
X0109535Y0054795D01*
X0109586Y0054772D01*
X0109637Y0054745D01*
X0109685Y0054715D01*
X0109731Y0054682D01*
X0109775Y0054646D01*
X0109816Y0054607D01*
X0109855Y0054566D01*
X0109891Y0054522D01*
X0109924Y0054476D01*
X0109954Y0054428D01*
X0109981Y0054377D01*
X0110004Y0054326D01*
X0110024Y0054273D01*
X0110040Y0054218D01*
X0110053Y0054163D01*
X0110063Y0054107D01*
X0110068Y0054051D01*
X0110070Y0053994D01*
X0110069Y0053994D02*
X0110069Y0052261D01*
X0110070Y0052261D02*
X0110068Y0052204D01*
X0110063Y0052148D01*
X0110053Y0052092D01*
X0110040Y0052037D01*
X0110024Y0051982D01*
X0110004Y0051929D01*
X0109981Y0051878D01*
X0109954Y0051828D01*
X0109924Y0051779D01*
X0109891Y0051733D01*
X0109855Y0051689D01*
X0109816Y0051648D01*
X0109775Y0051609D01*
X0109731Y0051573D01*
X0109685Y0051540D01*
X0109637Y0051510D01*
X0109586Y0051483D01*
X0109535Y0051460D01*
X0109482Y0051440D01*
X0109427Y0051424D01*
X0109372Y0051411D01*
X0109316Y0051401D01*
X0109260Y0051396D01*
X0109203Y0051394D01*
X0107758Y0051394D01*
X0107758Y0056594D01*
X0105509Y0053705D02*
X0105509Y0052261D01*
X0105509Y0053127D02*
X0103198Y0053127D01*
X0103198Y0053705D01*
X0103197Y0053705D02*
X0103199Y0053772D01*
X0103205Y0053839D01*
X0103215Y0053906D01*
X0103228Y0053972D01*
X0103246Y0054037D01*
X0103267Y0054100D01*
X0103292Y0054163D01*
X0103320Y0054224D01*
X0103352Y0054283D01*
X0103387Y0054340D01*
X0103426Y0054395D01*
X0103467Y0054448D01*
X0103512Y0054498D01*
X0103560Y0054546D01*
X0103610Y0054591D01*
X0103663Y0054632D01*
X0103718Y0054671D01*
X0103775Y0054706D01*
X0103834Y0054738D01*
X0103895Y0054766D01*
X0103958Y0054791D01*
X0104021Y0054812D01*
X0104086Y0054830D01*
X0104152Y0054843D01*
X0104219Y0054853D01*
X0104286Y0054859D01*
X0104353Y0054861D01*
X0104420Y0054859D01*
X0104487Y0054853D01*
X0104554Y0054843D01*
X0104620Y0054830D01*
X0104685Y0054812D01*
X0104748Y0054791D01*
X0104811Y0054766D01*
X0104872Y0054738D01*
X0104931Y0054706D01*
X0104988Y0054671D01*
X0105043Y0054632D01*
X0105096Y0054591D01*
X0105146Y0054546D01*
X0105194Y0054498D01*
X0105239Y0054448D01*
X0105280Y0054395D01*
X0105319Y0054340D01*
X0105354Y0054283D01*
X0105386Y0054224D01*
X0105414Y0054163D01*
X0105439Y0054100D01*
X0105460Y0054037D01*
X0105478Y0053972D01*
X0105491Y0053906D01*
X0105501Y0053839D01*
X0105507Y0053772D01*
X0105509Y0053705D01*
X0105509Y0052261D02*
X0105507Y0052204D01*
X0105502Y0052148D01*
X0105492Y0052092D01*
X0105479Y0052037D01*
X0105463Y0051982D01*
X0105443Y0051929D01*
X0105420Y0051878D01*
X0105393Y0051828D01*
X0105363Y0051779D01*
X0105330Y0051733D01*
X0105294Y0051689D01*
X0105255Y0051648D01*
X0105214Y0051609D01*
X0105170Y0051573D01*
X0105124Y0051540D01*
X0105076Y0051510D01*
X0105025Y0051483D01*
X0104974Y0051460D01*
X0104921Y0051440D01*
X0104866Y0051424D01*
X0104811Y0051411D01*
X0104755Y0051401D01*
X0104699Y0051396D01*
X0104642Y0051394D01*
X0103198Y0051394D01*
X0098173Y0051394D02*
X0098173Y0055727D01*
X0098174Y0055727D02*
X0098172Y0055784D01*
X0098167Y0055840D01*
X0098157Y0055896D01*
X0098144Y0055951D01*
X0098128Y0056006D01*
X0098108Y0056059D01*
X0098085Y0056110D01*
X0098058Y0056161D01*
X0098028Y0056209D01*
X0097995Y0056255D01*
X0097959Y0056299D01*
X0097920Y0056340D01*
X0097879Y0056379D01*
X0097835Y0056415D01*
X0097789Y0056448D01*
X0097741Y0056478D01*
X0097690Y0056505D01*
X0097639Y0056528D01*
X0097586Y0056548D01*
X0097531Y0056564D01*
X0097476Y0056577D01*
X0097420Y0056587D01*
X0097364Y0056592D01*
X0097307Y0056594D01*
X0097018Y0056594D01*
X0097018Y0054861D02*
X0098751Y0054861D01*
X0095333Y0054861D02*
X0094177Y0054861D01*
X0094120Y0054859D01*
X0094064Y0054854D01*
X0094008Y0054844D01*
X0093953Y0054831D01*
X0093898Y0054815D01*
X0093845Y0054795D01*
X0093794Y0054772D01*
X0093744Y0054745D01*
X0093695Y0054715D01*
X0093649Y0054682D01*
X0093605Y0054646D01*
X0093564Y0054607D01*
X0093525Y0054566D01*
X0093489Y0054522D01*
X0093456Y0054476D01*
X0093426Y0054428D01*
X0093399Y0054377D01*
X0093376Y0054326D01*
X0093356Y0054273D01*
X0093340Y0054218D01*
X0093327Y0054163D01*
X0093317Y0054107D01*
X0093312Y0054051D01*
X0093310Y0053994D01*
X0093310Y0051394D01*
X0094610Y0051394D01*
X0094672Y0051396D01*
X0094734Y0051402D01*
X0094796Y0051411D01*
X0094857Y0051425D01*
X0094916Y0051442D01*
X0094975Y0051462D01*
X0095033Y0051487D01*
X0095088Y0051514D01*
X0095142Y0051545D01*
X0095194Y0051580D01*
X0095244Y0051617D01*
X0095291Y0051658D01*
X0095336Y0051701D01*
X0095378Y0051747D01*
X0095417Y0051796D01*
X0095453Y0051847D01*
X0095486Y0051900D01*
X0095515Y0051954D01*
X0095541Y0052011D01*
X0095564Y0052069D01*
X0095582Y0052128D01*
X0095598Y0052189D01*
X0095609Y0052250D01*
X0095617Y0052312D01*
X0095621Y0052374D01*
X0095621Y0052436D01*
X0095617Y0052498D01*
X0095609Y0052560D01*
X0095598Y0052621D01*
X0095582Y0052682D01*
X0095564Y0052741D01*
X0095541Y0052799D01*
X0095515Y0052856D01*
X0095486Y0052910D01*
X0095453Y0052963D01*
X0095417Y0053014D01*
X0095378Y0053063D01*
X0095336Y0053109D01*
X0095291Y0053152D01*
X0095244Y0053193D01*
X0095194Y0053230D01*
X0095142Y0053265D01*
X0095088Y0053296D01*
X0095033Y0053323D01*
X0094975Y0053348D01*
X0094916Y0053368D01*
X0094857Y0053385D01*
X0094796Y0053399D01*
X0094734Y0053408D01*
X0094672Y0053414D01*
X0094610Y0053416D01*
X0093310Y0053416D01*
X0114551Y0052839D02*
X0115996Y0053416D01*
X0115995Y0053417D02*
X0116044Y0053438D01*
X0116091Y0053463D01*
X0116136Y0053491D01*
X0116179Y0053523D01*
X0116220Y0053557D01*
X0116258Y0053594D01*
X0116294Y0053634D01*
X0116326Y0053676D01*
X0116356Y0053721D01*
X0116382Y0053767D01*
X0116405Y0053815D01*
X0116424Y0053865D01*
X0116440Y0053916D01*
X0116452Y0053968D01*
X0116460Y0054020D01*
X0116465Y0054073D01*
X0116466Y0054127D01*
X0116463Y0054180D01*
X0116456Y0054233D01*
X0116446Y0054285D01*
X0116432Y0054336D01*
X0116414Y0054387D01*
X0116393Y0054435D01*
X0116368Y0054483D01*
X0116340Y0054528D01*
X0116309Y0054571D01*
X0116275Y0054612D01*
X0116238Y0054650D01*
X0116198Y0054686D01*
X0116156Y0054719D01*
X0116112Y0054749D01*
X0116065Y0054775D01*
X0116017Y0054798D01*
X0115968Y0054818D01*
X0115917Y0054834D01*
X0115865Y0054846D01*
X0115813Y0054855D01*
X0115760Y0054860D01*
X0115706Y0054861D01*
X0116429Y0051682D02*
X0116301Y0051638D01*
X0116172Y0051598D01*
X0116042Y0051561D01*
X0115911Y0051528D01*
X0115779Y0051498D01*
X0115647Y0051472D01*
X0115513Y0051450D01*
X0115379Y0051431D01*
X0115245Y0051416D01*
X0115110Y0051405D01*
X0114975Y0051397D01*
X0114840Y0051394D01*
X0114786Y0051395D01*
X0114733Y0051400D01*
X0114681Y0051409D01*
X0114629Y0051421D01*
X0114578Y0051437D01*
X0114529Y0051457D01*
X0114481Y0051480D01*
X0114434Y0051506D01*
X0114390Y0051536D01*
X0114348Y0051569D01*
X0114308Y0051605D01*
X0114271Y0051643D01*
X0114237Y0051684D01*
X0114206Y0051727D01*
X0114178Y0051772D01*
X0114153Y0051820D01*
X0114132Y0051868D01*
X0114114Y0051919D01*
X0114100Y0051970D01*
X0114090Y0052022D01*
X0114083Y0052075D01*
X0114080Y0052128D01*
X0114081Y0052182D01*
X0114086Y0052235D01*
X0114094Y0052287D01*
X0114106Y0052339D01*
X0114122Y0052390D01*
X0114141Y0052440D01*
X0114164Y0052488D01*
X0114190Y0052534D01*
X0114220Y0052579D01*
X0114252Y0052621D01*
X0114288Y0052661D01*
X0114326Y0052698D01*
X0114367Y0052732D01*
X0114410Y0052764D01*
X0114455Y0052792D01*
X0114502Y0052817D01*
X0114551Y0052838D01*
X0114407Y0054572D02*
X0114510Y0054616D01*
X0114614Y0054657D01*
X0114719Y0054694D01*
X0114826Y0054727D01*
X0114934Y0054757D01*
X0115042Y0054783D01*
X0115152Y0054805D01*
X0115262Y0054824D01*
X0115373Y0054839D01*
X0115484Y0054850D01*
X0115595Y0054857D01*
X0115707Y0054861D01*
X0121607Y0052839D02*
X0123052Y0053416D01*
X0123051Y0053417D02*
X0123100Y0053438D01*
X0123147Y0053463D01*
X0123192Y0053491D01*
X0123235Y0053523D01*
X0123276Y0053557D01*
X0123314Y0053594D01*
X0123350Y0053634D01*
X0123382Y0053676D01*
X0123412Y0053721D01*
X0123438Y0053767D01*
X0123461Y0053815D01*
X0123480Y0053865D01*
X0123496Y0053916D01*
X0123508Y0053968D01*
X0123516Y0054020D01*
X0123521Y0054073D01*
X0123522Y0054127D01*
X0123519Y0054180D01*
X0123512Y0054233D01*
X0123502Y0054285D01*
X0123488Y0054336D01*
X0123470Y0054387D01*
X0123449Y0054435D01*
X0123424Y0054483D01*
X0123396Y0054528D01*
X0123365Y0054571D01*
X0123331Y0054612D01*
X0123294Y0054650D01*
X0123254Y0054686D01*
X0123212Y0054719D01*
X0123168Y0054749D01*
X0123121Y0054775D01*
X0123073Y0054798D01*
X0123024Y0054818D01*
X0122973Y0054834D01*
X0122921Y0054846D01*
X0122869Y0054855D01*
X0122816Y0054860D01*
X0122762Y0054861D01*
X0123485Y0051682D02*
X0123357Y0051638D01*
X0123228Y0051598D01*
X0123098Y0051561D01*
X0122967Y0051528D01*
X0122835Y0051498D01*
X0122703Y0051472D01*
X0122569Y0051450D01*
X0122435Y0051431D01*
X0122301Y0051416D01*
X0122166Y0051405D01*
X0122031Y0051397D01*
X0121896Y0051394D01*
X0121842Y0051395D01*
X0121789Y0051400D01*
X0121737Y0051409D01*
X0121685Y0051421D01*
X0121634Y0051437D01*
X0121585Y0051457D01*
X0121537Y0051480D01*
X0121490Y0051506D01*
X0121446Y0051536D01*
X0121404Y0051569D01*
X0121364Y0051605D01*
X0121327Y0051643D01*
X0121293Y0051684D01*
X0121262Y0051727D01*
X0121234Y0051772D01*
X0121209Y0051820D01*
X0121188Y0051868D01*
X0121170Y0051919D01*
X0121156Y0051970D01*
X0121146Y0052022D01*
X0121139Y0052075D01*
X0121136Y0052128D01*
X0121137Y0052182D01*
X0121142Y0052235D01*
X0121150Y0052287D01*
X0121162Y0052339D01*
X0121178Y0052390D01*
X0121197Y0052440D01*
X0121220Y0052488D01*
X0121246Y0052534D01*
X0121276Y0052579D01*
X0121308Y0052621D01*
X0121344Y0052661D01*
X0121382Y0052698D01*
X0121423Y0052732D01*
X0121466Y0052764D01*
X0121511Y0052792D01*
X0121558Y0052817D01*
X0121607Y0052838D01*
X0121463Y0054572D02*
X0121566Y0054616D01*
X0121670Y0054657D01*
X0121775Y0054694D01*
X0121882Y0054727D01*
X0121990Y0054757D01*
X0122098Y0054783D01*
X0122208Y0054805D01*
X0122318Y0054824D01*
X0122429Y0054839D01*
X0122540Y0054850D01*
X0122651Y0054857D01*
X0122763Y0054861D01*
X0125521Y0054861D02*
X0125521Y0051394D01*
X0127726Y0051394D02*
X0127726Y0053994D01*
X0127725Y0053994D02*
X0127727Y0054051D01*
X0127732Y0054107D01*
X0127742Y0054163D01*
X0127755Y0054218D01*
X0127771Y0054273D01*
X0127791Y0054326D01*
X0127814Y0054377D01*
X0127841Y0054428D01*
X0127871Y0054476D01*
X0127904Y0054522D01*
X0127940Y0054566D01*
X0127979Y0054607D01*
X0128020Y0054646D01*
X0128064Y0054682D01*
X0128110Y0054715D01*
X0128159Y0054745D01*
X0128209Y0054772D01*
X0128260Y0054795D01*
X0128313Y0054815D01*
X0128368Y0054831D01*
X0128423Y0054844D01*
X0128479Y0054854D01*
X0128535Y0054859D01*
X0128592Y0054861D01*
X0130037Y0054861D01*
X0130037Y0056594D02*
X0130037Y0051394D01*
X0133417Y0051394D02*
X0133417Y0056594D01*
X0131973Y0056594D02*
X0134862Y0056594D01*
X0125666Y0056594D02*
X0125377Y0056594D01*
X0125377Y0056305D01*
X0125666Y0056305D01*
X0125666Y0056594D01*
X0134284Y0048194D02*
X0134284Y0043861D01*
X0134282Y0043804D01*
X0134277Y0043748D01*
X0134267Y0043692D01*
X0134254Y0043637D01*
X0134238Y0043582D01*
X0134218Y0043529D01*
X0134195Y0043478D01*
X0134168Y0043428D01*
X0134138Y0043379D01*
X0134105Y0043333D01*
X0134069Y0043289D01*
X0134030Y0043248D01*
X0133989Y0043209D01*
X0133945Y0043173D01*
X0133899Y0043140D01*
X0133851Y0043110D01*
X0133800Y0043083D01*
X0133749Y0043060D01*
X0133696Y0043040D01*
X0133641Y0043024D01*
X0133586Y0043011D01*
X0133530Y0043001D01*
X0133474Y0042996D01*
X0133417Y0042994D01*
X0133128Y0042994D01*
X0131248Y0044150D02*
X0131248Y0045305D01*
X0131249Y0045305D02*
X0131247Y0045372D01*
X0131241Y0045439D01*
X0131231Y0045506D01*
X0131218Y0045572D01*
X0131200Y0045637D01*
X0131179Y0045700D01*
X0131154Y0045763D01*
X0131126Y0045824D01*
X0131094Y0045883D01*
X0131059Y0045940D01*
X0131020Y0045995D01*
X0130979Y0046048D01*
X0130934Y0046098D01*
X0130886Y0046146D01*
X0130836Y0046191D01*
X0130783Y0046232D01*
X0130728Y0046271D01*
X0130671Y0046306D01*
X0130612Y0046338D01*
X0130551Y0046366D01*
X0130488Y0046391D01*
X0130425Y0046412D01*
X0130360Y0046430D01*
X0130294Y0046443D01*
X0130227Y0046453D01*
X0130160Y0046459D01*
X0130093Y0046461D01*
X0130026Y0046459D01*
X0129959Y0046453D01*
X0129892Y0046443D01*
X0129826Y0046430D01*
X0129761Y0046412D01*
X0129698Y0046391D01*
X0129635Y0046366D01*
X0129574Y0046338D01*
X0129515Y0046306D01*
X0129458Y0046271D01*
X0129403Y0046232D01*
X0129350Y0046191D01*
X0129300Y0046146D01*
X0129252Y0046098D01*
X0129207Y0046048D01*
X0129166Y0045995D01*
X0129127Y0045940D01*
X0129092Y0045883D01*
X0129060Y0045824D01*
X0129032Y0045763D01*
X0129007Y0045700D01*
X0128986Y0045637D01*
X0128968Y0045572D01*
X0128955Y0045506D01*
X0128945Y0045439D01*
X0128939Y0045372D01*
X0128937Y0045305D01*
X0128937Y0044150D01*
X0128939Y0044083D01*
X0128945Y0044016D01*
X0128955Y0043949D01*
X0128968Y0043883D01*
X0128986Y0043818D01*
X0129007Y0043755D01*
X0129032Y0043692D01*
X0129060Y0043631D01*
X0129092Y0043572D01*
X0129127Y0043515D01*
X0129166Y0043460D01*
X0129207Y0043407D01*
X0129252Y0043357D01*
X0129300Y0043309D01*
X0129350Y0043264D01*
X0129403Y0043223D01*
X0129458Y0043184D01*
X0129515Y0043149D01*
X0129574Y0043117D01*
X0129635Y0043089D01*
X0129698Y0043064D01*
X0129761Y0043043D01*
X0129826Y0043025D01*
X0129892Y0043012D01*
X0129959Y0043002D01*
X0130026Y0042996D01*
X0130093Y0042994D01*
X0130160Y0042996D01*
X0130227Y0043002D01*
X0130294Y0043012D01*
X0130360Y0043025D01*
X0130425Y0043043D01*
X0130488Y0043064D01*
X0130551Y0043089D01*
X0130612Y0043117D01*
X0130671Y0043149D01*
X0130728Y0043184D01*
X0130783Y0043223D01*
X0130836Y0043264D01*
X0130886Y0043309D01*
X0130934Y0043357D01*
X0130979Y0043407D01*
X0131020Y0043460D01*
X0131059Y0043515D01*
X0131094Y0043572D01*
X0131126Y0043631D01*
X0131154Y0043692D01*
X0131179Y0043755D01*
X0131200Y0043818D01*
X0131218Y0043883D01*
X0131231Y0043949D01*
X0131241Y0044016D01*
X0131247Y0044083D01*
X0131249Y0044150D01*
X0133128Y0046461D02*
X0134862Y0046461D01*
X0126954Y0046461D02*
X0126087Y0042994D01*
X0125221Y0045305D01*
X0124354Y0042994D01*
X0123487Y0046461D01*
X0121240Y0046461D02*
X0120084Y0046461D01*
X0120027Y0046459D01*
X0119971Y0046454D01*
X0119915Y0046444D01*
X0119860Y0046431D01*
X0119805Y0046415D01*
X0119752Y0046395D01*
X0119701Y0046372D01*
X0119651Y0046345D01*
X0119602Y0046315D01*
X0119556Y0046282D01*
X0119512Y0046246D01*
X0119471Y0046207D01*
X0119432Y0046166D01*
X0119396Y0046122D01*
X0119363Y0046076D01*
X0119333Y0046028D01*
X0119306Y0045977D01*
X0119283Y0045926D01*
X0119263Y0045873D01*
X0119247Y0045818D01*
X0119234Y0045763D01*
X0119224Y0045707D01*
X0119219Y0045651D01*
X0119217Y0045594D01*
X0119218Y0045594D02*
X0119218Y0042994D01*
X0120518Y0042994D01*
X0120580Y0042996D01*
X0120642Y0043002D01*
X0120704Y0043011D01*
X0120765Y0043025D01*
X0120824Y0043042D01*
X0120883Y0043062D01*
X0120941Y0043087D01*
X0120996Y0043114D01*
X0121050Y0043145D01*
X0121102Y0043180D01*
X0121152Y0043217D01*
X0121199Y0043258D01*
X0121244Y0043301D01*
X0121286Y0043347D01*
X0121325Y0043396D01*
X0121361Y0043447D01*
X0121394Y0043500D01*
X0121423Y0043554D01*
X0121449Y0043611D01*
X0121472Y0043669D01*
X0121490Y0043728D01*
X0121506Y0043789D01*
X0121517Y0043850D01*
X0121525Y0043912D01*
X0121529Y0043974D01*
X0121529Y0044036D01*
X0121525Y0044098D01*
X0121517Y0044160D01*
X0121506Y0044221D01*
X0121490Y0044282D01*
X0121472Y0044341D01*
X0121449Y0044399D01*
X0121423Y0044456D01*
X0121394Y0044510D01*
X0121361Y0044563D01*
X0121325Y0044614D01*
X0121286Y0044663D01*
X0121244Y0044709D01*
X0121199Y0044752D01*
X0121152Y0044793D01*
X0121102Y0044830D01*
X0121050Y0044865D01*
X0120996Y0044896D01*
X0120941Y0044923D01*
X0120883Y0044948D01*
X0120824Y0044968D01*
X0120765Y0044985D01*
X0120704Y0044999D01*
X0120642Y0045008D01*
X0120580Y0045014D01*
X0120518Y0045016D01*
X0119218Y0045016D01*
X0116772Y0046461D02*
X0115039Y0046461D01*
X0115039Y0045883D01*
X0116772Y0046461D02*
X0116772Y0042994D01*
D12*
X0108298Y0070540D02*
X0108298Y0074240D01*
X0109189Y0075306D02*
X0109189Y0079006D01*
X0108161Y0079006D01*
X0108161Y0079007D02*
X0108113Y0079005D01*
X0108064Y0078999D01*
X0108017Y0078990D01*
X0107970Y0078977D01*
X0107925Y0078960D01*
X0107881Y0078940D01*
X0107839Y0078916D01*
X0107798Y0078889D01*
X0107760Y0078859D01*
X0107725Y0078826D01*
X0107692Y0078791D01*
X0107662Y0078753D01*
X0107635Y0078712D01*
X0107611Y0078670D01*
X0107591Y0078626D01*
X0107574Y0078581D01*
X0107561Y0078534D01*
X0107552Y0078487D01*
X0107546Y0078438D01*
X0107544Y0078390D01*
X0107544Y0077156D01*
X0107546Y0077108D01*
X0107552Y0077059D01*
X0107561Y0077012D01*
X0107574Y0076965D01*
X0107591Y0076920D01*
X0107611Y0076876D01*
X0107635Y0076834D01*
X0107662Y0076793D01*
X0107692Y0076755D01*
X0107725Y0076720D01*
X0107760Y0076687D01*
X0107798Y0076657D01*
X0107839Y0076630D01*
X0107881Y0076606D01*
X0107925Y0076586D01*
X0107970Y0076569D01*
X0108017Y0076556D01*
X0108064Y0076547D01*
X0108113Y0076541D01*
X0108161Y0076539D01*
X0108161Y0076540D02*
X0109189Y0076540D01*
X0110837Y0077567D02*
X0110837Y0079212D01*
X0110836Y0079212D02*
X0110838Y0079275D01*
X0110844Y0079338D01*
X0110854Y0079401D01*
X0110867Y0079463D01*
X0110884Y0079524D01*
X0110905Y0079583D01*
X0110930Y0079642D01*
X0110958Y0079698D01*
X0110990Y0079753D01*
X0111025Y0079806D01*
X0111063Y0079856D01*
X0111104Y0079905D01*
X0111148Y0079950D01*
X0111195Y0079993D01*
X0111244Y0080032D01*
X0111296Y0080069D01*
X0111350Y0080102D01*
X0111406Y0080132D01*
X0111463Y0080159D01*
X0111522Y0080182D01*
X0111583Y0080201D01*
X0111644Y0080216D01*
X0111706Y0080228D01*
X0111769Y0080236D01*
X0111832Y0080240D01*
X0111896Y0080240D01*
X0111959Y0080236D01*
X0112022Y0080228D01*
X0112084Y0080216D01*
X0112145Y0080201D01*
X0112206Y0080182D01*
X0112265Y0080159D01*
X0112322Y0080132D01*
X0112378Y0080102D01*
X0112432Y0080069D01*
X0112484Y0080032D01*
X0112533Y0079993D01*
X0112580Y0079950D01*
X0112624Y0079905D01*
X0112665Y0079856D01*
X0112703Y0079806D01*
X0112738Y0079753D01*
X0112770Y0079698D01*
X0112798Y0079642D01*
X0112823Y0079583D01*
X0112844Y0079524D01*
X0112861Y0079463D01*
X0112874Y0079401D01*
X0112884Y0079338D01*
X0112890Y0079275D01*
X0112892Y0079212D01*
X0112892Y0077567D01*
X0112890Y0077504D01*
X0112884Y0077441D01*
X0112874Y0077378D01*
X0112861Y0077316D01*
X0112844Y0077255D01*
X0112823Y0077196D01*
X0112798Y0077137D01*
X0112770Y0077081D01*
X0112738Y0077026D01*
X0112703Y0076973D01*
X0112665Y0076923D01*
X0112624Y0076874D01*
X0112580Y0076829D01*
X0112533Y0076786D01*
X0112484Y0076747D01*
X0112432Y0076710D01*
X0112378Y0076677D01*
X0112322Y0076647D01*
X0112265Y0076620D01*
X0112206Y0076597D01*
X0112145Y0076578D01*
X0112084Y0076563D01*
X0112022Y0076551D01*
X0111959Y0076543D01*
X0111896Y0076539D01*
X0111832Y0076539D01*
X0111769Y0076543D01*
X0111706Y0076551D01*
X0111644Y0076563D01*
X0111583Y0076578D01*
X0111522Y0076597D01*
X0111463Y0076620D01*
X0111406Y0076647D01*
X0111350Y0076677D01*
X0111296Y0076710D01*
X0111244Y0076747D01*
X0111195Y0076786D01*
X0111148Y0076829D01*
X0111104Y0076874D01*
X0111063Y0076923D01*
X0111025Y0076973D01*
X0110990Y0077026D01*
X0110958Y0077081D01*
X0110930Y0077137D01*
X0110905Y0077196D01*
X0110884Y0077255D01*
X0110867Y0077316D01*
X0110854Y0077378D01*
X0110844Y0077441D01*
X0110838Y0077504D01*
X0110836Y0077567D01*
X0106242Y0074240D02*
X0106242Y0070540D01*
X0106242Y0072595D02*
X0108298Y0072595D01*
X0104425Y0073006D02*
X0103602Y0073006D01*
X0103602Y0073007D02*
X0103554Y0073005D01*
X0103505Y0072999D01*
X0103458Y0072990D01*
X0103411Y0072977D01*
X0103366Y0072960D01*
X0103322Y0072940D01*
X0103280Y0072916D01*
X0103239Y0072889D01*
X0103201Y0072859D01*
X0103166Y0072826D01*
X0103133Y0072791D01*
X0103103Y0072753D01*
X0103076Y0072712D01*
X0103052Y0072670D01*
X0103032Y0072626D01*
X0103015Y0072581D01*
X0103002Y0072534D01*
X0102993Y0072487D01*
X0102987Y0072438D01*
X0102985Y0072390D01*
X0102986Y0072390D02*
X0102986Y0070540D01*
X0103911Y0070540D01*
X0103963Y0070542D01*
X0104016Y0070548D01*
X0104067Y0070557D01*
X0104118Y0070570D01*
X0104168Y0070587D01*
X0104216Y0070608D01*
X0104263Y0070632D01*
X0104308Y0070659D01*
X0104350Y0070690D01*
X0104391Y0070724D01*
X0104429Y0070760D01*
X0104464Y0070799D01*
X0104496Y0070841D01*
X0104525Y0070884D01*
X0104550Y0070930D01*
X0104573Y0070978D01*
X0104591Y0071027D01*
X0104607Y0071077D01*
X0104618Y0071128D01*
X0104626Y0071180D01*
X0104630Y0071233D01*
X0104630Y0071285D01*
X0104626Y0071338D01*
X0104618Y0071390D01*
X0104607Y0071441D01*
X0104591Y0071491D01*
X0104573Y0071540D01*
X0104550Y0071588D01*
X0104525Y0071634D01*
X0104496Y0071677D01*
X0104464Y0071719D01*
X0104429Y0071758D01*
X0104391Y0071794D01*
X0104350Y0071828D01*
X0104308Y0071859D01*
X0104263Y0071886D01*
X0104216Y0071910D01*
X0104168Y0071931D01*
X0104118Y0071948D01*
X0104067Y0071961D01*
X0104016Y0071970D01*
X0103963Y0071976D01*
X0103911Y0071978D01*
X0102986Y0071978D01*
X0101232Y0073006D02*
X0101232Y0070540D01*
X0098870Y0071156D02*
X0098870Y0072390D01*
X0098871Y0072390D02*
X0098869Y0072438D01*
X0098863Y0072487D01*
X0098854Y0072534D01*
X0098841Y0072581D01*
X0098824Y0072626D01*
X0098804Y0072670D01*
X0098780Y0072712D01*
X0098753Y0072753D01*
X0098723Y0072791D01*
X0098690Y0072826D01*
X0098655Y0072859D01*
X0098617Y0072889D01*
X0098576Y0072916D01*
X0098534Y0072940D01*
X0098490Y0072960D01*
X0098445Y0072977D01*
X0098398Y0072990D01*
X0098351Y0072999D01*
X0098302Y0073005D01*
X0098254Y0073007D01*
X0098254Y0073006D02*
X0097226Y0073006D01*
X0097226Y0074240D02*
X0097226Y0070540D01*
X0098254Y0070540D01*
X0098254Y0070539D02*
X0098302Y0070541D01*
X0098351Y0070547D01*
X0098398Y0070556D01*
X0098445Y0070569D01*
X0098490Y0070586D01*
X0098534Y0070606D01*
X0098576Y0070630D01*
X0098617Y0070657D01*
X0098655Y0070687D01*
X0098690Y0070720D01*
X0098723Y0070755D01*
X0098753Y0070793D01*
X0098780Y0070834D01*
X0098804Y0070876D01*
X0098824Y0070920D01*
X0098841Y0070965D01*
X0098854Y0071012D01*
X0098863Y0071059D01*
X0098869Y0071108D01*
X0098871Y0071156D01*
X0099999Y0072595D02*
X0099999Y0073006D01*
X0101232Y0073006D01*
X0101202Y0076540D02*
X0101202Y0078390D01*
X0101204Y0078438D01*
X0101210Y0078487D01*
X0101219Y0078534D01*
X0101232Y0078581D01*
X0101249Y0078626D01*
X0101269Y0078670D01*
X0101293Y0078712D01*
X0101320Y0078753D01*
X0101350Y0078791D01*
X0101383Y0078826D01*
X0101418Y0078859D01*
X0101456Y0078889D01*
X0101497Y0078916D01*
X0101539Y0078940D01*
X0101583Y0078960D01*
X0101628Y0078977D01*
X0101675Y0078990D01*
X0101722Y0078999D01*
X0101771Y0079005D01*
X0101819Y0079007D01*
X0101819Y0079006D02*
X0102847Y0079006D01*
X0102847Y0076540D01*
X0104442Y0076540D02*
X0105470Y0076540D01*
X0105470Y0076539D02*
X0105518Y0076541D01*
X0105567Y0076547D01*
X0105614Y0076556D01*
X0105661Y0076569D01*
X0105706Y0076586D01*
X0105750Y0076606D01*
X0105792Y0076630D01*
X0105833Y0076657D01*
X0105871Y0076687D01*
X0105906Y0076720D01*
X0105939Y0076755D01*
X0105969Y0076793D01*
X0105996Y0076834D01*
X0106020Y0076876D01*
X0106040Y0076920D01*
X0106057Y0076965D01*
X0106070Y0077012D01*
X0106079Y0077059D01*
X0106085Y0077108D01*
X0106087Y0077156D01*
X0106087Y0078184D01*
X0106087Y0077773D02*
X0104442Y0077773D01*
X0104442Y0078184D01*
X0104444Y0078240D01*
X0104450Y0078296D01*
X0104459Y0078351D01*
X0104472Y0078406D01*
X0104489Y0078459D01*
X0104510Y0078511D01*
X0104534Y0078562D01*
X0104562Y0078611D01*
X0104592Y0078658D01*
X0104626Y0078703D01*
X0104663Y0078745D01*
X0104703Y0078785D01*
X0104745Y0078822D01*
X0104790Y0078856D01*
X0104837Y0078886D01*
X0104886Y0078914D01*
X0104937Y0078938D01*
X0104989Y0078959D01*
X0105042Y0078976D01*
X0105097Y0078989D01*
X0105152Y0078998D01*
X0105208Y0079004D01*
X0105264Y0079006D01*
X0105320Y0079004D01*
X0105376Y0078998D01*
X0105431Y0078989D01*
X0105486Y0078976D01*
X0105539Y0078959D01*
X0105591Y0078938D01*
X0105642Y0078914D01*
X0105691Y0078886D01*
X0105738Y0078856D01*
X0105783Y0078822D01*
X0105825Y0078785D01*
X0105865Y0078745D01*
X0105902Y0078703D01*
X0105936Y0078658D01*
X0105966Y0078611D01*
X0105994Y0078562D01*
X0106018Y0078511D01*
X0106039Y0078459D01*
X0106056Y0078406D01*
X0106069Y0078351D01*
X0106078Y0078296D01*
X0106084Y0078240D01*
X0106086Y0078184D01*
X0097258Y0078698D02*
X0096128Y0078081D01*
X0096539Y0076540D02*
X0096620Y0076542D01*
X0096700Y0076547D01*
X0096780Y0076557D01*
X0096860Y0076570D01*
X0096939Y0076587D01*
X0097017Y0076607D01*
X0097094Y0076631D01*
X0097170Y0076659D01*
X0097244Y0076690D01*
X0097317Y0076724D01*
X0097388Y0076762D01*
X0097458Y0076803D01*
X0097525Y0076847D01*
X0097591Y0076894D01*
X0097654Y0076945D01*
X0097714Y0076998D01*
X0097772Y0077054D01*
X0096128Y0078081D02*
X0096082Y0078052D01*
X0096039Y0078020D01*
X0095997Y0077986D01*
X0095958Y0077948D01*
X0095921Y0077909D01*
X0095887Y0077867D01*
X0095855Y0077822D01*
X0095827Y0077776D01*
X0095802Y0077728D01*
X0095779Y0077679D01*
X0095761Y0077628D01*
X0095745Y0077576D01*
X0095733Y0077524D01*
X0095724Y0077470D01*
X0095719Y0077416D01*
X0095717Y0077362D01*
X0095719Y0077306D01*
X0095725Y0077250D01*
X0095734Y0077195D01*
X0095747Y0077140D01*
X0095764Y0077087D01*
X0095785Y0077035D01*
X0095809Y0076984D01*
X0095837Y0076935D01*
X0095867Y0076888D01*
X0095901Y0076843D01*
X0095938Y0076801D01*
X0095978Y0076761D01*
X0096020Y0076724D01*
X0096065Y0076690D01*
X0096112Y0076660D01*
X0096161Y0076632D01*
X0096212Y0076608D01*
X0096264Y0076587D01*
X0096317Y0076570D01*
X0096372Y0076557D01*
X0096427Y0076548D01*
X0096483Y0076542D01*
X0096539Y0076540D01*
X0095922Y0079932D02*
X0095984Y0079976D01*
X0096048Y0080017D01*
X0096114Y0080055D01*
X0096183Y0080089D01*
X0096252Y0080121D01*
X0096323Y0080148D01*
X0096396Y0080172D01*
X0096469Y0080193D01*
X0096544Y0080210D01*
X0096619Y0080223D01*
X0096695Y0080232D01*
X0096771Y0080238D01*
X0096847Y0080240D01*
X0096847Y0080239D02*
X0096903Y0080237D01*
X0096959Y0080231D01*
X0097014Y0080222D01*
X0097069Y0080209D01*
X0097122Y0080192D01*
X0097174Y0080171D01*
X0097225Y0080147D01*
X0097274Y0080119D01*
X0097321Y0080089D01*
X0097366Y0080055D01*
X0097408Y0080018D01*
X0097448Y0079978D01*
X0097485Y0079936D01*
X0097519Y0079891D01*
X0097549Y0079844D01*
X0097577Y0079795D01*
X0097601Y0079744D01*
X0097622Y0079692D01*
X0097639Y0079639D01*
X0097652Y0079584D01*
X0097661Y0079529D01*
X0097667Y0079473D01*
X0097669Y0079417D01*
X0097667Y0079363D01*
X0097662Y0079309D01*
X0097653Y0079255D01*
X0097641Y0079203D01*
X0097625Y0079151D01*
X0097607Y0079100D01*
X0097584Y0079051D01*
X0097559Y0079003D01*
X0097531Y0078957D01*
X0097499Y0078912D01*
X0097465Y0078870D01*
X0097428Y0078831D01*
X0097389Y0078793D01*
X0097347Y0078759D01*
X0097304Y0078727D01*
X0097258Y0078698D01*
X0094327Y0078184D02*
X0094327Y0077362D01*
X0094325Y0077306D01*
X0094319Y0077250D01*
X0094310Y0077195D01*
X0094297Y0077140D01*
X0094280Y0077087D01*
X0094259Y0077035D01*
X0094235Y0076984D01*
X0094207Y0076935D01*
X0094177Y0076888D01*
X0094143Y0076843D01*
X0094106Y0076801D01*
X0094066Y0076761D01*
X0094024Y0076724D01*
X0093979Y0076690D01*
X0093932Y0076660D01*
X0093883Y0076632D01*
X0093832Y0076608D01*
X0093780Y0076587D01*
X0093727Y0076570D01*
X0093672Y0076557D01*
X0093617Y0076548D01*
X0093561Y0076542D01*
X0093505Y0076540D01*
X0093449Y0076542D01*
X0093393Y0076548D01*
X0093338Y0076557D01*
X0093283Y0076570D01*
X0093230Y0076587D01*
X0093178Y0076608D01*
X0093127Y0076632D01*
X0093078Y0076660D01*
X0093031Y0076690D01*
X0092986Y0076724D01*
X0092944Y0076761D01*
X0092904Y0076801D01*
X0092867Y0076843D01*
X0092833Y0076888D01*
X0092803Y0076935D01*
X0092775Y0076984D01*
X0092751Y0077035D01*
X0092730Y0077087D01*
X0092713Y0077140D01*
X0092700Y0077195D01*
X0092691Y0077250D01*
X0092685Y0077306D01*
X0092683Y0077362D01*
X0092682Y0077362D02*
X0092682Y0078184D01*
X0092683Y0078184D02*
X0092685Y0078240D01*
X0092691Y0078296D01*
X0092700Y0078351D01*
X0092713Y0078406D01*
X0092730Y0078459D01*
X0092751Y0078511D01*
X0092775Y0078562D01*
X0092803Y0078611D01*
X0092833Y0078658D01*
X0092867Y0078703D01*
X0092904Y0078745D01*
X0092944Y0078785D01*
X0092986Y0078822D01*
X0093031Y0078856D01*
X0093078Y0078886D01*
X0093127Y0078914D01*
X0093178Y0078938D01*
X0093230Y0078959D01*
X0093283Y0078976D01*
X0093338Y0078989D01*
X0093393Y0078998D01*
X0093449Y0079004D01*
X0093505Y0079006D01*
X0093561Y0079004D01*
X0093617Y0078998D01*
X0093672Y0078989D01*
X0093727Y0078976D01*
X0093780Y0078959D01*
X0093832Y0078938D01*
X0093883Y0078914D01*
X0093932Y0078886D01*
X0093979Y0078856D01*
X0094024Y0078822D01*
X0094066Y0078785D01*
X0094106Y0078745D01*
X0094143Y0078703D01*
X0094177Y0078658D01*
X0094207Y0078611D01*
X0094235Y0078562D01*
X0094259Y0078511D01*
X0094280Y0078459D01*
X0094297Y0078406D01*
X0094310Y0078351D01*
X0094319Y0078296D01*
X0094325Y0078240D01*
X0094327Y0078184D01*
X0091087Y0079006D02*
X0091087Y0077156D01*
X0091085Y0077108D01*
X0091079Y0077059D01*
X0091070Y0077012D01*
X0091057Y0076965D01*
X0091040Y0076920D01*
X0091020Y0076876D01*
X0090996Y0076834D01*
X0090969Y0076793D01*
X0090939Y0076755D01*
X0090906Y0076720D01*
X0090871Y0076687D01*
X0090833Y0076657D01*
X0090792Y0076630D01*
X0090750Y0076606D01*
X0090706Y0076586D01*
X0090661Y0076569D01*
X0090614Y0076556D01*
X0090567Y0076547D01*
X0090518Y0076541D01*
X0090470Y0076539D01*
X0090470Y0076540D02*
X0089442Y0076540D01*
X0089442Y0079006D01*
X0087706Y0079006D02*
X0087706Y0076540D01*
X0086473Y0078595D02*
X0086473Y0079006D01*
X0087706Y0079006D01*
X0085323Y0078390D02*
X0085323Y0077156D01*
X0085321Y0077108D01*
X0085315Y0077059D01*
X0085306Y0077012D01*
X0085293Y0076965D01*
X0085276Y0076920D01*
X0085256Y0076876D01*
X0085232Y0076834D01*
X0085205Y0076793D01*
X0085175Y0076755D01*
X0085142Y0076720D01*
X0085107Y0076687D01*
X0085069Y0076657D01*
X0085028Y0076630D01*
X0084986Y0076606D01*
X0084942Y0076586D01*
X0084897Y0076569D01*
X0084850Y0076556D01*
X0084803Y0076547D01*
X0084754Y0076541D01*
X0084706Y0076539D01*
X0084706Y0076540D02*
X0083884Y0076540D01*
X0082567Y0077156D02*
X0082567Y0078184D01*
X0082567Y0077773D02*
X0080922Y0077773D01*
X0080922Y0078184D01*
X0080923Y0078184D02*
X0080925Y0078240D01*
X0080931Y0078296D01*
X0080940Y0078351D01*
X0080953Y0078406D01*
X0080970Y0078459D01*
X0080991Y0078511D01*
X0081015Y0078562D01*
X0081043Y0078611D01*
X0081073Y0078658D01*
X0081107Y0078703D01*
X0081144Y0078745D01*
X0081184Y0078785D01*
X0081226Y0078822D01*
X0081271Y0078856D01*
X0081318Y0078886D01*
X0081367Y0078914D01*
X0081418Y0078938D01*
X0081470Y0078959D01*
X0081523Y0078976D01*
X0081578Y0078989D01*
X0081633Y0078998D01*
X0081689Y0079004D01*
X0081745Y0079006D01*
X0081801Y0079004D01*
X0081857Y0078998D01*
X0081912Y0078989D01*
X0081967Y0078976D01*
X0082020Y0078959D01*
X0082072Y0078938D01*
X0082123Y0078914D01*
X0082172Y0078886D01*
X0082219Y0078856D01*
X0082264Y0078822D01*
X0082306Y0078785D01*
X0082346Y0078745D01*
X0082383Y0078703D01*
X0082417Y0078658D01*
X0082447Y0078611D01*
X0082475Y0078562D01*
X0082499Y0078511D01*
X0082520Y0078459D01*
X0082537Y0078406D01*
X0082550Y0078351D01*
X0082559Y0078296D01*
X0082565Y0078240D01*
X0082567Y0078184D01*
X0082567Y0077156D02*
X0082565Y0077108D01*
X0082559Y0077059D01*
X0082550Y0077012D01*
X0082537Y0076965D01*
X0082520Y0076920D01*
X0082500Y0076876D01*
X0082476Y0076834D01*
X0082449Y0076793D01*
X0082419Y0076755D01*
X0082386Y0076720D01*
X0082351Y0076687D01*
X0082313Y0076657D01*
X0082272Y0076630D01*
X0082230Y0076606D01*
X0082186Y0076586D01*
X0082141Y0076569D01*
X0082094Y0076556D01*
X0082047Y0076547D01*
X0081998Y0076541D01*
X0081950Y0076539D01*
X0081950Y0076540D02*
X0080922Y0076540D01*
X0083884Y0079006D02*
X0084706Y0079006D01*
X0084706Y0079007D02*
X0084754Y0079005D01*
X0084803Y0078999D01*
X0084850Y0078990D01*
X0084897Y0078977D01*
X0084942Y0078960D01*
X0084986Y0078940D01*
X0085028Y0078916D01*
X0085069Y0078889D01*
X0085107Y0078859D01*
X0085142Y0078826D01*
X0085175Y0078791D01*
X0085205Y0078753D01*
X0085232Y0078712D01*
X0085256Y0078670D01*
X0085276Y0078626D01*
X0085293Y0078581D01*
X0085306Y0078534D01*
X0085315Y0078487D01*
X0085321Y0078438D01*
X0085323Y0078390D01*
X0087159Y0073006D02*
X0087159Y0072595D01*
X0087159Y0073006D02*
X0088392Y0073006D01*
X0088392Y0070540D01*
X0090146Y0070540D02*
X0090146Y0072390D01*
X0090146Y0071978D02*
X0091071Y0071978D01*
X0090145Y0072390D02*
X0090147Y0072438D01*
X0090153Y0072487D01*
X0090162Y0072534D01*
X0090175Y0072581D01*
X0090192Y0072626D01*
X0090212Y0072670D01*
X0090236Y0072712D01*
X0090263Y0072753D01*
X0090293Y0072791D01*
X0090326Y0072826D01*
X0090361Y0072859D01*
X0090399Y0072889D01*
X0090440Y0072916D01*
X0090482Y0072940D01*
X0090526Y0072960D01*
X0090571Y0072977D01*
X0090618Y0072990D01*
X0090665Y0072999D01*
X0090714Y0073005D01*
X0090762Y0073007D01*
X0090762Y0073006D02*
X0091585Y0073006D01*
X0093197Y0073006D02*
X0093813Y0070540D01*
X0094430Y0072184D01*
X0095047Y0070540D01*
X0095663Y0073006D01*
X0091071Y0071978D02*
X0091123Y0071976D01*
X0091176Y0071970D01*
X0091227Y0071961D01*
X0091278Y0071948D01*
X0091328Y0071931D01*
X0091376Y0071910D01*
X0091423Y0071886D01*
X0091468Y0071859D01*
X0091510Y0071828D01*
X0091551Y0071794D01*
X0091589Y0071758D01*
X0091624Y0071719D01*
X0091656Y0071677D01*
X0091685Y0071634D01*
X0091710Y0071588D01*
X0091733Y0071540D01*
X0091751Y0071491D01*
X0091767Y0071441D01*
X0091778Y0071390D01*
X0091786Y0071338D01*
X0091790Y0071285D01*
X0091790Y0071233D01*
X0091786Y0071180D01*
X0091778Y0071128D01*
X0091767Y0071077D01*
X0091751Y0071027D01*
X0091733Y0070978D01*
X0091710Y0070930D01*
X0091685Y0070884D01*
X0091656Y0070841D01*
X0091624Y0070799D01*
X0091589Y0070760D01*
X0091551Y0070724D01*
X0091510Y0070690D01*
X0091468Y0070659D01*
X0091423Y0070632D01*
X0091376Y0070608D01*
X0091328Y0070587D01*
X0091278Y0070570D01*
X0091227Y0070557D01*
X0091176Y0070548D01*
X0091123Y0070542D01*
X0091071Y0070540D01*
X0090146Y0070540D01*
X0086012Y0071156D02*
X0086012Y0072184D01*
X0086012Y0071773D02*
X0084368Y0071773D01*
X0084368Y0072184D01*
X0084370Y0072240D01*
X0084376Y0072296D01*
X0084385Y0072351D01*
X0084398Y0072406D01*
X0084415Y0072459D01*
X0084436Y0072511D01*
X0084460Y0072562D01*
X0084488Y0072611D01*
X0084518Y0072658D01*
X0084552Y0072703D01*
X0084589Y0072745D01*
X0084629Y0072785D01*
X0084671Y0072822D01*
X0084716Y0072856D01*
X0084763Y0072886D01*
X0084812Y0072914D01*
X0084863Y0072938D01*
X0084915Y0072959D01*
X0084968Y0072976D01*
X0085023Y0072989D01*
X0085078Y0072998D01*
X0085134Y0073004D01*
X0085190Y0073006D01*
X0085246Y0073004D01*
X0085302Y0072998D01*
X0085357Y0072989D01*
X0085412Y0072976D01*
X0085465Y0072959D01*
X0085517Y0072938D01*
X0085568Y0072914D01*
X0085617Y0072886D01*
X0085664Y0072856D01*
X0085709Y0072822D01*
X0085751Y0072785D01*
X0085791Y0072745D01*
X0085828Y0072703D01*
X0085862Y0072658D01*
X0085892Y0072611D01*
X0085920Y0072562D01*
X0085944Y0072511D01*
X0085965Y0072459D01*
X0085982Y0072406D01*
X0085995Y0072351D01*
X0086004Y0072296D01*
X0086010Y0072240D01*
X0086012Y0072184D01*
X0086013Y0071156D02*
X0086011Y0071108D01*
X0086005Y0071059D01*
X0085996Y0071012D01*
X0085983Y0070965D01*
X0085966Y0070920D01*
X0085946Y0070876D01*
X0085922Y0070834D01*
X0085895Y0070793D01*
X0085865Y0070755D01*
X0085832Y0070720D01*
X0085797Y0070687D01*
X0085759Y0070657D01*
X0085718Y0070630D01*
X0085676Y0070606D01*
X0085632Y0070586D01*
X0085587Y0070569D01*
X0085540Y0070556D01*
X0085493Y0070547D01*
X0085444Y0070541D01*
X0085396Y0070539D01*
X0085396Y0070540D02*
X0084368Y0070540D01*
D13*
X0090460Y0083418D02*
X0090060Y0083768D01*
X0089710Y0084118D01*
X0089310Y0084568D01*
X0088960Y0085018D01*
X0090410Y0087118D01*
X0090060Y0087718D01*
X0089860Y0088318D01*
X0089660Y0089118D01*
X0087210Y0089568D01*
X0087210Y0090718D01*
X0087260Y0091268D01*
X0087310Y0091768D01*
X0089760Y0092218D01*
X0089960Y0092868D01*
X0090210Y0093418D01*
X0090560Y0094018D01*
X0090610Y0094118D01*
X0089210Y0096068D01*
X0089610Y0096568D01*
X0090110Y0097068D01*
X0090510Y0097418D01*
X0090860Y0097668D01*
X0092910Y0096218D01*
X0093360Y0096468D01*
X0093810Y0096668D01*
X0094260Y0096868D01*
X0094710Y0096968D01*
X0095160Y0099418D01*
X0095760Y0099468D01*
X0096910Y0099468D01*
X0097410Y0099418D01*
X0097810Y0097018D01*
X0098560Y0096768D01*
X0099060Y0096568D01*
X0099760Y0096168D01*
X0101760Y0097618D01*
X0102210Y0097268D01*
X0102710Y0096768D01*
X0103110Y0096318D01*
X0103360Y0096068D01*
X0101960Y0094018D01*
X0102260Y0093518D01*
X0102560Y0092868D01*
X0102710Y0092318D01*
X0102860Y0091968D01*
X0105310Y0091568D01*
X0105310Y0089368D01*
X0102860Y0088968D01*
X0102660Y0088268D01*
X0102510Y0087768D01*
X0102310Y0087368D01*
X0101960Y0086768D01*
X0103410Y0084768D01*
X0103010Y0084318D01*
X0102660Y0083968D01*
X0102210Y0083568D01*
X0101860Y0083268D01*
X0099810Y0084668D01*
X0098660Y0084068D01*
X0097260Y0088068D01*
X0097757Y0088317D01*
X0098189Y0088666D01*
X0098537Y0089100D01*
X0098783Y0089598D01*
X0098918Y0090138D01*
X0098933Y0090694D01*
X0098829Y0091240D01*
X0098611Y0091751D01*
X0098288Y0092204D01*
X0097876Y0092577D01*
X0097394Y0092853D01*
X0096864Y0093019D01*
X0096310Y0093068D01*
X0095774Y0093003D01*
X0095263Y0092829D01*
X0094798Y0092555D01*
X0094399Y0092192D01*
X0094082Y0091755D01*
X0093861Y0091262D01*
X0093745Y0090735D01*
X0093739Y0090196D01*
X0093844Y0089666D01*
X0094053Y0089169D01*
X0094360Y0088725D01*
X0094751Y0088353D01*
X0095210Y0088068D01*
X0093660Y0084168D01*
X0093060Y0084418D01*
X0092460Y0084818D01*
X0090460Y0083418D01*
X0090345Y0083519D02*
X0090604Y0083519D01*
X0090887Y0083717D02*
X0090118Y0083717D01*
X0089912Y0083916D02*
X0091171Y0083916D01*
X0091454Y0084114D02*
X0089714Y0084114D01*
X0089537Y0084313D02*
X0091738Y0084313D01*
X0092022Y0084511D02*
X0089360Y0084511D01*
X0089200Y0084710D02*
X0092305Y0084710D01*
X0092622Y0084710D02*
X0093875Y0084710D01*
X0093796Y0084511D02*
X0092920Y0084511D01*
X0093313Y0084313D02*
X0093717Y0084313D01*
X0093954Y0084908D02*
X0089045Y0084908D01*
X0089021Y0085107D02*
X0094033Y0085107D01*
X0094112Y0085305D02*
X0089158Y0085305D01*
X0089295Y0085504D02*
X0094191Y0085504D01*
X0094270Y0085703D02*
X0089432Y0085703D01*
X0089569Y0085901D02*
X0094349Y0085901D01*
X0094427Y0086100D02*
X0089706Y0086100D01*
X0089844Y0086298D02*
X0094506Y0086298D01*
X0094585Y0086497D02*
X0089981Y0086497D01*
X0090118Y0086695D02*
X0094664Y0086695D01*
X0094743Y0086894D02*
X0090255Y0086894D01*
X0090392Y0087092D02*
X0094822Y0087092D01*
X0094901Y0087291D02*
X0090309Y0087291D01*
X0090194Y0087489D02*
X0094980Y0087489D01*
X0095059Y0087688D02*
X0090078Y0087688D01*
X0090004Y0087886D02*
X0095137Y0087886D01*
X0095184Y0088085D02*
X0089938Y0088085D01*
X0089872Y0088283D02*
X0094864Y0088283D01*
X0094616Y0088482D02*
X0089819Y0088482D01*
X0089769Y0088680D02*
X0094407Y0088680D01*
X0094254Y0088879D02*
X0089720Y0088879D01*
X0089670Y0089077D02*
X0094117Y0089077D01*
X0094008Y0089276D02*
X0088803Y0089276D01*
X0087722Y0089474D02*
X0093924Y0089474D01*
X0093842Y0089673D02*
X0087210Y0089673D01*
X0087210Y0089871D02*
X0093803Y0089871D01*
X0093764Y0090070D02*
X0087210Y0090070D01*
X0087210Y0090268D02*
X0093740Y0090268D01*
X0093742Y0090467D02*
X0087210Y0090467D01*
X0087210Y0090665D02*
X0093745Y0090665D01*
X0093774Y0090864D02*
X0087223Y0090864D01*
X0087241Y0091062D02*
X0093817Y0091062D01*
X0093861Y0091261D02*
X0087259Y0091261D01*
X0087279Y0091459D02*
X0093950Y0091459D01*
X0094039Y0091658D02*
X0087299Y0091658D01*
X0087789Y0091856D02*
X0094156Y0091856D01*
X0094300Y0092055D02*
X0088870Y0092055D01*
X0089771Y0092253D02*
X0094467Y0092253D01*
X0094685Y0092452D02*
X0089832Y0092452D01*
X0089893Y0092650D02*
X0094961Y0092650D01*
X0095322Y0092849D02*
X0089954Y0092849D01*
X0090041Y0093047D02*
X0096140Y0093047D01*
X0096545Y0093047D02*
X0102477Y0093047D01*
X0102565Y0092849D02*
X0097401Y0092849D01*
X0097747Y0092650D02*
X0102619Y0092650D01*
X0102673Y0092452D02*
X0098014Y0092452D01*
X0098233Y0092253D02*
X0102738Y0092253D01*
X0102823Y0092055D02*
X0098394Y0092055D01*
X0098536Y0091856D02*
X0103546Y0091856D01*
X0104761Y0091658D02*
X0098651Y0091658D01*
X0098736Y0091459D02*
X0105310Y0091459D01*
X0105310Y0091261D02*
X0098820Y0091261D01*
X0098863Y0091062D02*
X0105310Y0091062D01*
X0105310Y0090864D02*
X0098901Y0090864D01*
X0098932Y0090665D02*
X0105310Y0090665D01*
X0105310Y0090467D02*
X0098927Y0090467D01*
X0098921Y0090268D02*
X0105310Y0090268D01*
X0105310Y0090070D02*
X0098901Y0090070D01*
X0098851Y0089871D02*
X0105310Y0089871D01*
X0105310Y0089673D02*
X0098802Y0089673D01*
X0098722Y0089474D02*
X0105310Y0089474D01*
X0104743Y0089276D02*
X0098624Y0089276D01*
X0098518Y0089077D02*
X0103527Y0089077D01*
X0102834Y0088879D02*
X0098359Y0088879D01*
X0098200Y0088680D02*
X0102778Y0088680D01*
X0102721Y0088482D02*
X0097961Y0088482D01*
X0097689Y0088283D02*
X0102664Y0088283D01*
X0102605Y0088085D02*
X0097293Y0088085D01*
X0097324Y0087886D02*
X0102545Y0087886D01*
X0102470Y0087688D02*
X0097393Y0087688D01*
X0097463Y0087489D02*
X0102370Y0087489D01*
X0102265Y0087291D02*
X0097532Y0087291D01*
X0097602Y0087092D02*
X0102149Y0087092D01*
X0102033Y0086894D02*
X0097671Y0086894D01*
X0097741Y0086695D02*
X0102013Y0086695D01*
X0102157Y0086497D02*
X0097810Y0086497D01*
X0097879Y0086298D02*
X0102301Y0086298D01*
X0102445Y0086100D02*
X0097949Y0086100D01*
X0098018Y0085901D02*
X0102589Y0085901D01*
X0102733Y0085703D02*
X0098088Y0085703D01*
X0098157Y0085504D02*
X0102877Y0085504D01*
X0103020Y0085305D02*
X0098227Y0085305D01*
X0098296Y0085107D02*
X0103164Y0085107D01*
X0103308Y0084908D02*
X0098366Y0084908D01*
X0098435Y0084710D02*
X0103358Y0084710D01*
X0103182Y0084511D02*
X0100040Y0084511D01*
X0100330Y0084313D02*
X0103005Y0084313D01*
X0102806Y0084114D02*
X0100621Y0084114D01*
X0100912Y0083916D02*
X0102601Y0083916D01*
X0102378Y0083717D02*
X0101202Y0083717D01*
X0101493Y0083519D02*
X0102152Y0083519D01*
X0101921Y0083320D02*
X0101784Y0083320D01*
X0099509Y0084511D02*
X0098505Y0084511D01*
X0098574Y0084313D02*
X0099129Y0084313D01*
X0098748Y0084114D02*
X0098644Y0084114D01*
X0102386Y0093246D02*
X0090132Y0093246D01*
X0090225Y0093444D02*
X0102294Y0093444D01*
X0102185Y0093643D02*
X0090341Y0093643D01*
X0090457Y0093841D02*
X0102066Y0093841D01*
X0101975Y0094040D02*
X0090571Y0094040D01*
X0090524Y0094238D02*
X0102110Y0094238D01*
X0102246Y0094437D02*
X0090381Y0094437D01*
X0090239Y0094636D02*
X0102381Y0094636D01*
X0102517Y0094834D02*
X0090096Y0094834D01*
X0089954Y0095033D02*
X0102653Y0095033D01*
X0102788Y0095231D02*
X0089811Y0095231D01*
X0089668Y0095430D02*
X0102924Y0095430D01*
X0103059Y0095628D02*
X0089526Y0095628D01*
X0089383Y0095827D02*
X0103195Y0095827D01*
X0103330Y0096025D02*
X0089241Y0096025D01*
X0089334Y0096224D02*
X0092902Y0096224D01*
X0092919Y0096224D02*
X0099663Y0096224D01*
X0099836Y0096224D02*
X0103205Y0096224D01*
X0103018Y0096422D02*
X0100110Y0096422D01*
X0100384Y0096621D02*
X0102841Y0096621D01*
X0102659Y0096819D02*
X0100658Y0096819D01*
X0100931Y0097018D02*
X0102461Y0097018D01*
X0102262Y0097216D02*
X0101205Y0097216D01*
X0101479Y0097415D02*
X0102022Y0097415D01*
X0101766Y0097613D02*
X0101753Y0097613D01*
X0099316Y0096422D02*
X0093277Y0096422D01*
X0093703Y0096621D02*
X0098929Y0096621D01*
X0098407Y0096819D02*
X0094149Y0096819D01*
X0094719Y0097018D02*
X0097812Y0097018D01*
X0097777Y0097216D02*
X0094755Y0097216D01*
X0094792Y0097415D02*
X0097744Y0097415D01*
X0097711Y0097613D02*
X0094828Y0097613D01*
X0094865Y0097812D02*
X0097678Y0097812D01*
X0097645Y0098010D02*
X0094901Y0098010D01*
X0094938Y0098209D02*
X0097611Y0098209D01*
X0097578Y0098407D02*
X0094974Y0098407D01*
X0095011Y0098606D02*
X0097545Y0098606D01*
X0097512Y0098804D02*
X0095047Y0098804D01*
X0095084Y0099003D02*
X0097479Y0099003D01*
X0097446Y0099201D02*
X0095120Y0099201D01*
X0095156Y0099400D02*
X0097413Y0099400D01*
X0092622Y0096422D02*
X0089493Y0096422D01*
X0089662Y0096621D02*
X0092341Y0096621D01*
X0092060Y0096819D02*
X0089861Y0096819D01*
X0090059Y0097018D02*
X0091780Y0097018D01*
X0091499Y0097216D02*
X0090279Y0097216D01*
X0090506Y0097415D02*
X0091218Y0097415D01*
X0090938Y0097613D02*
X0090783Y0097613D01*
M02*
