G75*
%MOIN*%
%OFA0B0*%
%FSLAX25Y25*%
%IPPOS*%
%LPD*%
%AMOC8*
5,1,8,0,0,1.08239X$1,22.5*
%
%ADD10C,0.00600*%
D10*
X0046490Y0004511D02*
X0046415Y0045619D01*
X0018449Y0045619D01*
X0018524Y0055507D01*
X0014221Y0055507D01*
X0014221Y0126729D01*
X0015082Y0126729D01*
X0015187Y0126731D01*
X0015291Y0126737D01*
X0015395Y0126747D01*
X0015499Y0126760D01*
X0015602Y0126778D01*
X0015704Y0126799D01*
X0015806Y0126824D01*
X0015906Y0126853D01*
X0016006Y0126886D01*
X0016104Y0126922D01*
X0016200Y0126962D01*
X0016296Y0127006D01*
X0016389Y0127053D01*
X0016480Y0127104D01*
X0016570Y0127158D01*
X0016658Y0127215D01*
X0016743Y0127276D01*
X0016826Y0127339D01*
X0016906Y0127406D01*
X0016984Y0127476D01*
X0017060Y0127548D01*
X0017132Y0127624D01*
X0017202Y0127702D01*
X0017269Y0127782D01*
X0017332Y0127865D01*
X0017393Y0127950D01*
X0017450Y0128038D01*
X0017504Y0128127D01*
X0017555Y0128219D01*
X0017602Y0128312D01*
X0017646Y0128408D01*
X0017686Y0128504D01*
X0017722Y0128602D01*
X0017755Y0128702D01*
X0017784Y0128802D01*
X0017809Y0128904D01*
X0017830Y0129006D01*
X0017848Y0129109D01*
X0017861Y0129213D01*
X0017871Y0129317D01*
X0017877Y0129421D01*
X0017879Y0129526D01*
X0017879Y0132323D01*
X0023687Y0132323D01*
X0023802Y0132325D01*
X0023917Y0132331D01*
X0024032Y0132340D01*
X0024146Y0132354D01*
X0024260Y0132371D01*
X0024373Y0132392D01*
X0024485Y0132417D01*
X0024596Y0132445D01*
X0024707Y0132478D01*
X0024816Y0132513D01*
X0024924Y0132553D01*
X0025031Y0132596D01*
X0025136Y0132643D01*
X0025239Y0132693D01*
X0025341Y0132747D01*
X0025441Y0132803D01*
X0025539Y0132864D01*
X0025635Y0132927D01*
X0025729Y0132994D01*
X0025820Y0133064D01*
X0025909Y0133137D01*
X0025996Y0133212D01*
X0026080Y0133291D01*
X0026161Y0133372D01*
X0026240Y0133456D01*
X0026315Y0133543D01*
X0026388Y0133632D01*
X0026458Y0133723D01*
X0026525Y0133817D01*
X0026588Y0133913D01*
X0026649Y0134011D01*
X0026705Y0134111D01*
X0026759Y0134213D01*
X0026809Y0134316D01*
X0026856Y0134421D01*
X0026899Y0134528D01*
X0026939Y0134636D01*
X0026974Y0134745D01*
X0027007Y0134856D01*
X0027035Y0134967D01*
X0027060Y0135079D01*
X0027081Y0135192D01*
X0027098Y0135306D01*
X0027112Y0135420D01*
X0027121Y0135535D01*
X0027127Y0135650D01*
X0027129Y0135765D01*
X0027129Y0138129D01*
X0092312Y0138129D01*
X0092345Y0138129D01*
X0092312Y0138129D02*
X0168897Y0138133D01*
X0168897Y0129095D01*
X0168899Y0128987D01*
X0168905Y0128880D01*
X0168914Y0128773D01*
X0168928Y0128666D01*
X0168945Y0128560D01*
X0168966Y0128455D01*
X0168991Y0128350D01*
X0169019Y0128246D01*
X0169051Y0128144D01*
X0169087Y0128042D01*
X0169126Y0127942D01*
X0169169Y0127844D01*
X0169216Y0127747D01*
X0169265Y0127652D01*
X0169319Y0127558D01*
X0169375Y0127467D01*
X0169435Y0127377D01*
X0169498Y0127290D01*
X0169564Y0127205D01*
X0169633Y0127123D01*
X0169705Y0127043D01*
X0169779Y0126965D01*
X0169857Y0126891D01*
X0169937Y0126819D01*
X0170019Y0126750D01*
X0170104Y0126684D01*
X0170191Y0126621D01*
X0170281Y0126561D01*
X0170372Y0126505D01*
X0170466Y0126451D01*
X0170561Y0126402D01*
X0170658Y0126355D01*
X0170756Y0126312D01*
X0170856Y0126273D01*
X0170958Y0126237D01*
X0171060Y0126205D01*
X0171164Y0126177D01*
X0171269Y0126152D01*
X0171374Y0126131D01*
X0171480Y0126114D01*
X0171587Y0126100D01*
X0171694Y0126091D01*
X0171801Y0126085D01*
X0171909Y0126083D01*
X0179008Y0126083D01*
X0179008Y0055292D01*
X0174276Y0055292D01*
X0174351Y0046049D01*
X0146510Y0046049D01*
X0146585Y0004511D01*
X0046490Y0004511D01*
M02*
