G75*
%MOIN*%
%OFA0B0*%
%FSLAX25Y25*%
%IPPOS*%
%LPD*%
%AMOC8*
5,1,8,0,0,1.08239X$1,22.5*
%
%ADD10C,0.00600*%
%ADD11R,0.04737X0.04737*%
%ADD12C,0.04737*%
%ADD13R,0.05100X0.00050*%
%ADD14R,0.06100X0.00050*%
%ADD15R,0.07650X0.00050*%
%ADD16R,0.06150X0.00050*%
%ADD17R,0.07700X0.00050*%
%ADD18R,0.06200X0.00050*%
%ADD19R,0.07750X0.00050*%
%ADD20R,0.06250X0.00050*%
%ADD21R,0.07800X0.00050*%
%ADD22R,0.04500X0.00050*%
%ADD23R,0.04550X0.00050*%
%ADD24R,0.00950X0.00050*%
%ADD25R,0.01050X0.00050*%
%ADD26R,0.03450X0.00050*%
%ADD27R,0.01000X0.00050*%
%ADD28R,0.02950X0.00050*%
%ADD29R,0.01100X0.00050*%
%ADD30R,0.03500X0.00050*%
%ADD31R,0.02900X0.00050*%
%ADD32R,0.04700X0.00050*%
%ADD33R,0.03700X0.00050*%
%ADD34R,0.03250X0.00050*%
%ADD35R,0.03600X0.00050*%
%ADD36R,0.03650X0.00050*%
%ADD37R,0.04800X0.00050*%
%ADD38R,0.03750X0.00050*%
%ADD39R,0.03400X0.00050*%
%ADD40R,0.04900X0.00050*%
%ADD41R,0.04850X0.00050*%
%ADD42R,0.03850X0.00050*%
%ADD43R,0.03550X0.00050*%
%ADD44R,0.03800X0.00050*%
%ADD45R,0.04950X0.00050*%
%ADD46R,0.05000X0.00050*%
%ADD47R,0.03950X0.00050*%
%ADD48R,0.03900X0.00050*%
%ADD49R,0.05050X0.00050*%
%ADD50R,0.04000X0.00050*%
%ADD51R,0.00900X0.00050*%
%ADD52R,0.07850X0.00050*%
%ADD53R,0.03200X0.00050*%
%ADD54R,0.04050X0.00050*%
%ADD55R,0.04100X0.00050*%
%ADD56R,0.03350X0.00050*%
%ADD57R,0.01200X0.00050*%
%ADD58R,0.01150X0.00050*%
%ADD59R,0.06300X0.00050*%
%ADD60R,0.03300X0.00050*%
%ADD61R,0.04650X0.00050*%
%ADD62R,0.98950X0.00050*%
%ADD63R,0.99000X0.00050*%
%ADD64R,0.99050X0.00050*%
%ADD65R,0.02650X0.00050*%
%ADD66R,0.05150X0.00050*%
%ADD67R,0.00650X0.00050*%
%ADD68R,0.06000X0.00050*%
%ADD69R,0.02600X0.00050*%
%ADD70R,0.04750X0.00050*%
%ADD71R,0.05250X0.00050*%
%ADD72R,0.00750X0.00050*%
%ADD73R,0.06050X0.00050*%
%ADD74R,0.05300X0.00050*%
%ADD75R,0.00800X0.00050*%
%ADD76R,0.05400X0.00050*%
%ADD77R,0.05500X0.00050*%
%ADD78R,0.02700X0.00050*%
%ADD79R,0.05550X0.00050*%
%ADD80R,0.06350X0.00050*%
%ADD81R,0.05650X0.00050*%
%ADD82R,0.06450X0.00050*%
%ADD83R,0.05600X0.00050*%
%ADD84R,0.05700X0.00050*%
%ADD85R,0.06500X0.00050*%
%ADD86R,0.05800X0.00050*%
%ADD87R,0.01300X0.00050*%
%ADD88R,0.06550X0.00050*%
%ADD89R,0.05750X0.00050*%
%ADD90R,0.02550X0.00050*%
%ADD91R,0.01350X0.00050*%
%ADD92R,0.05850X0.00050*%
%ADD93R,0.01400X0.00050*%
%ADD94R,0.06650X0.00050*%
%ADD95R,0.05900X0.00050*%
%ADD96R,0.01550X0.00050*%
%ADD97R,0.05950X0.00050*%
%ADD98R,0.06700X0.00050*%
%ADD99R,0.01600X0.00050*%
%ADD100R,0.01700X0.00050*%
%ADD101R,0.06800X0.00050*%
%ADD102R,0.01750X0.00050*%
%ADD103R,0.01850X0.00050*%
%ADD104R,0.06850X0.00050*%
%ADD105R,0.01900X0.00050*%
%ADD106R,0.06900X0.00050*%
%ADD107R,0.02000X0.00050*%
%ADD108R,0.06400X0.00050*%
%ADD109R,0.02100X0.00050*%
%ADD110R,0.06950X0.00050*%
%ADD111R,0.01250X0.00050*%
%ADD112R,0.02150X0.00050*%
%ADD113R,0.02250X0.00050*%
%ADD114R,0.06600X0.00050*%
%ADD115R,0.07000X0.00050*%
%ADD116R,0.02300X0.00050*%
%ADD117R,0.02350X0.00050*%
%ADD118R,0.02750X0.00050*%
%ADD119R,0.03100X0.00050*%
%ADD120R,0.03050X0.00050*%
%ADD121R,0.03000X0.00050*%
%ADD122R,0.02450X0.00050*%
%ADD123R,0.07300X0.00050*%
%ADD124R,0.02850X0.00050*%
%ADD125R,0.02800X0.00050*%
%ADD126R,0.07450X0.00050*%
%ADD127R,0.03150X0.00050*%
%ADD128R,0.07600X0.00050*%
%ADD129R,0.07950X0.00050*%
%ADD130R,0.08050X0.00050*%
%ADD131R,0.08150X0.00050*%
%ADD132R,0.08250X0.00050*%
%ADD133R,0.08300X0.00050*%
%ADD134R,0.08450X0.00050*%
%ADD135R,0.08500X0.00050*%
%ADD136R,0.08600X0.00050*%
%ADD137R,0.08650X0.00050*%
%ADD138R,0.08700X0.00050*%
%ADD139R,0.08750X0.00050*%
%ADD140R,0.08800X0.00050*%
%ADD141R,0.08900X0.00050*%
%ADD142R,0.08950X0.00050*%
%ADD143R,0.09000X0.00050*%
%ADD144R,0.09050X0.00050*%
%ADD145R,0.09150X0.00050*%
%ADD146R,0.09200X0.00050*%
%ADD147R,0.04150X0.00050*%
%ADD148R,0.09250X0.00050*%
%ADD149R,0.01450X0.00050*%
%ADD150R,0.09300X0.00050*%
%ADD151R,0.09350X0.00050*%
%ADD152R,0.09400X0.00050*%
%ADD153R,0.09450X0.00050*%
%ADD154R,0.01500X0.00050*%
%ADD155R,0.09500X0.00050*%
%ADD156R,0.09550X0.00050*%
%ADD157R,0.09600X0.00050*%
%ADD158R,0.09650X0.00050*%
%ADD159R,0.07350X0.00050*%
%ADD160R,0.09700X0.00050*%
%ADD161R,0.09750X0.00050*%
%ADD162R,0.07400X0.00050*%
%ADD163R,0.09800X0.00050*%
%ADD164R,0.04200X0.00050*%
%ADD165R,0.09850X0.00050*%
%ADD166R,0.09900X0.00050*%
%ADD167R,0.09950X0.00050*%
%ADD168R,0.00350X0.00050*%
%ADD169R,0.07550X0.00050*%
%ADD170R,0.07200X0.00050*%
%ADD171R,0.07050X0.00050*%
%ADD172R,0.06750X0.00050*%
%ADD173R,0.02500X0.00050*%
%ADD174R,0.02400X0.00050*%
%ADD175R,0.02200X0.00050*%
%ADD176R,0.02050X0.00050*%
%ADD177R,0.01950X0.00050*%
%ADD178R,0.07100X0.00050*%
%ADD179R,0.01800X0.00050*%
%ADD180R,0.01650X0.00050*%
%ADD181R,0.05450X0.00050*%
%ADD182R,0.05350X0.00050*%
%ADD183R,0.05200X0.00050*%
%ADD184R,0.04250X0.00050*%
%ADD185R,0.07900X0.00050*%
%ADD186R,0.07500X0.00050*%
%ADD187R,0.19200X0.00050*%
%ADD188R,0.17250X0.00050*%
%ADD189R,0.19400X0.00050*%
%ADD190R,0.17200X0.00050*%
%ADD191R,0.19550X0.00050*%
%ADD192R,0.19500X0.00050*%
%ADD193R,0.17150X0.00050*%
%ADD194R,0.19600X0.00050*%
%ADD195R,0.17100X0.00050*%
%ADD196R,0.17050X0.00050*%
%ADD197R,0.19650X0.00050*%
%ADD198R,0.17000X0.00050*%
%ADD199R,0.16950X0.00050*%
%ADD200R,0.16900X0.00050*%
%ADD201R,0.16800X0.00050*%
%ADD202R,0.19700X0.00050*%
%ADD203R,0.16750X0.00050*%
%ADD204R,0.16700X0.00050*%
%ADD205R,0.16650X0.00050*%
%ADD206R,0.16600X0.00050*%
%ADD207R,0.16550X0.00050*%
%ADD208R,0.16500X0.00050*%
%ADD209R,0.16450X0.00050*%
%ADD210R,0.16400X0.00050*%
%ADD211R,0.16350X0.00050*%
%ADD212R,0.16300X0.00050*%
%ADD213R,0.98400X0.00050*%
%ADD214R,0.16250X0.00050*%
%ADD215R,1.15350X0.00050*%
%ADD216R,1.15300X0.00050*%
%ADD217R,1.15250X0.00050*%
%ADD218R,1.15200X0.00050*%
%ADD219R,1.15100X0.00050*%
%ADD220R,1.15050X0.00050*%
%ADD221R,1.15000X0.00050*%
%ADD222R,1.14950X0.00050*%
%ADD223R,1.14900X0.00050*%
%ADD224R,1.14800X0.00050*%
%ADD225R,1.14750X0.00050*%
%ADD226R,1.14650X0.00050*%
%ADD227R,1.14550X0.00050*%
%ADD228R,1.14450X0.00050*%
%ADD229R,1.14300X0.00050*%
%ADD230R,1.14100X0.00050*%
%ADD231R,1.13900X0.00050*%
%ADD232R,1.13750X0.00050*%
%ADD233R,1.13450X0.00050*%
%ADD234R,1.12600X0.00050*%
%ADD235R,0.00050X0.00050*%
D10*
X0046490Y0004511D02*
X0046415Y0045619D01*
X0018449Y0045619D01*
X0018524Y0055507D01*
X0014221Y0055507D01*
X0014221Y0126729D01*
X0015082Y0126729D01*
X0015187Y0126731D01*
X0015291Y0126737D01*
X0015395Y0126747D01*
X0015499Y0126760D01*
X0015602Y0126778D01*
X0015704Y0126799D01*
X0015806Y0126824D01*
X0015906Y0126853D01*
X0016006Y0126886D01*
X0016104Y0126922D01*
X0016200Y0126962D01*
X0016296Y0127006D01*
X0016389Y0127053D01*
X0016480Y0127104D01*
X0016570Y0127158D01*
X0016658Y0127215D01*
X0016743Y0127276D01*
X0016826Y0127339D01*
X0016906Y0127406D01*
X0016984Y0127476D01*
X0017060Y0127548D01*
X0017132Y0127624D01*
X0017202Y0127702D01*
X0017269Y0127782D01*
X0017332Y0127865D01*
X0017393Y0127950D01*
X0017450Y0128038D01*
X0017504Y0128127D01*
X0017555Y0128219D01*
X0017602Y0128312D01*
X0017646Y0128408D01*
X0017686Y0128504D01*
X0017722Y0128602D01*
X0017755Y0128702D01*
X0017784Y0128802D01*
X0017809Y0128904D01*
X0017830Y0129006D01*
X0017848Y0129109D01*
X0017861Y0129213D01*
X0017871Y0129317D01*
X0017877Y0129421D01*
X0017879Y0129526D01*
X0017879Y0132323D01*
X0023687Y0132323D01*
X0023802Y0132325D01*
X0023917Y0132331D01*
X0024032Y0132340D01*
X0024146Y0132354D01*
X0024260Y0132371D01*
X0024373Y0132392D01*
X0024485Y0132417D01*
X0024596Y0132445D01*
X0024707Y0132478D01*
X0024816Y0132513D01*
X0024924Y0132553D01*
X0025031Y0132596D01*
X0025136Y0132643D01*
X0025239Y0132693D01*
X0025341Y0132747D01*
X0025441Y0132803D01*
X0025539Y0132864D01*
X0025635Y0132927D01*
X0025729Y0132994D01*
X0025820Y0133064D01*
X0025909Y0133137D01*
X0025996Y0133212D01*
X0026080Y0133291D01*
X0026161Y0133372D01*
X0026240Y0133456D01*
X0026315Y0133543D01*
X0026388Y0133632D01*
X0026458Y0133723D01*
X0026525Y0133817D01*
X0026588Y0133913D01*
X0026649Y0134011D01*
X0026705Y0134111D01*
X0026759Y0134213D01*
X0026809Y0134316D01*
X0026856Y0134421D01*
X0026899Y0134528D01*
X0026939Y0134636D01*
X0026974Y0134745D01*
X0027007Y0134856D01*
X0027035Y0134967D01*
X0027060Y0135079D01*
X0027081Y0135192D01*
X0027098Y0135306D01*
X0027112Y0135420D01*
X0027121Y0135535D01*
X0027127Y0135650D01*
X0027129Y0135765D01*
X0027129Y0138129D01*
X0092312Y0138129D01*
X0092345Y0138129D01*
X0092312Y0138129D02*
X0168897Y0138133D01*
X0168897Y0129095D01*
X0168899Y0128987D01*
X0168905Y0128880D01*
X0168914Y0128773D01*
X0168928Y0128666D01*
X0168945Y0128560D01*
X0168966Y0128455D01*
X0168991Y0128350D01*
X0169019Y0128246D01*
X0169051Y0128144D01*
X0169087Y0128042D01*
X0169126Y0127942D01*
X0169169Y0127844D01*
X0169216Y0127747D01*
X0169265Y0127652D01*
X0169319Y0127558D01*
X0169375Y0127467D01*
X0169435Y0127377D01*
X0169498Y0127290D01*
X0169564Y0127205D01*
X0169633Y0127123D01*
X0169705Y0127043D01*
X0169779Y0126965D01*
X0169857Y0126891D01*
X0169937Y0126819D01*
X0170019Y0126750D01*
X0170104Y0126684D01*
X0170191Y0126621D01*
X0170281Y0126561D01*
X0170372Y0126505D01*
X0170466Y0126451D01*
X0170561Y0126402D01*
X0170658Y0126355D01*
X0170756Y0126312D01*
X0170856Y0126273D01*
X0170958Y0126237D01*
X0171060Y0126205D01*
X0171164Y0126177D01*
X0171269Y0126152D01*
X0171374Y0126131D01*
X0171480Y0126114D01*
X0171587Y0126100D01*
X0171694Y0126091D01*
X0171801Y0126085D01*
X0171909Y0126083D01*
X0179008Y0126083D01*
X0179008Y0055292D01*
X0174276Y0055292D01*
X0174351Y0046049D01*
X0146510Y0046049D01*
X0146585Y0004511D01*
X0046490Y0004511D01*
D11*
X0051800Y0012472D03*
X0051800Y0015521D03*
X0051800Y0019466D03*
X0051800Y0023052D03*
X0051800Y0026279D03*
X0051800Y0029328D03*
X0057745Y0029328D03*
X0057745Y0026279D03*
X0057745Y0023052D03*
X0057745Y0019466D03*
X0057745Y0015521D03*
X0057745Y0012472D03*
X0063689Y0012472D03*
X0063689Y0015521D03*
X0063689Y0019466D03*
X0063689Y0023052D03*
X0063689Y0026279D03*
X0063689Y0029328D03*
X0069634Y0029328D03*
X0069634Y0026279D03*
X0069634Y0023052D03*
X0069634Y0019466D03*
X0069634Y0015521D03*
X0069634Y0012472D03*
X0075579Y0012472D03*
X0075579Y0015521D03*
X0075579Y0019466D03*
X0075579Y0023052D03*
X0075579Y0026279D03*
X0075579Y0029328D03*
X0081524Y0029328D03*
X0081524Y0026279D03*
X0081524Y0023052D03*
X0081524Y0019466D03*
X0081524Y0015521D03*
X0081524Y0012472D03*
X0087469Y0012472D03*
X0087469Y0015521D03*
X0087469Y0019466D03*
X0087469Y0023052D03*
X0087469Y0026279D03*
X0087469Y0029328D03*
X0093414Y0029328D03*
X0093414Y0026279D03*
X0093414Y0023052D03*
X0093414Y0019466D03*
X0093414Y0015521D03*
X0093414Y0012472D03*
X0099359Y0012472D03*
X0099359Y0015521D03*
X0099359Y0019466D03*
X0099359Y0023052D03*
X0099359Y0026279D03*
X0099359Y0029328D03*
X0105304Y0029328D03*
X0105304Y0026279D03*
X0105304Y0023052D03*
X0105304Y0019466D03*
X0105304Y0015521D03*
X0105304Y0012472D03*
X0111249Y0012472D03*
X0111249Y0015521D03*
X0111249Y0019466D03*
X0111249Y0023052D03*
X0111249Y0026279D03*
X0111249Y0029328D03*
X0117193Y0029328D03*
X0117193Y0026279D03*
X0117193Y0023052D03*
X0117193Y0019466D03*
X0117193Y0015521D03*
X0117193Y0012472D03*
X0123138Y0012472D03*
X0123138Y0015521D03*
X0123138Y0019466D03*
X0123138Y0023052D03*
X0123138Y0026279D03*
X0123138Y0029328D03*
X0129083Y0029328D03*
X0129083Y0026279D03*
X0129083Y0023052D03*
X0129083Y0019466D03*
X0129083Y0015521D03*
X0129083Y0012472D03*
X0135028Y0012472D03*
X0135028Y0015521D03*
X0135028Y0019466D03*
X0135028Y0023052D03*
X0135028Y0026279D03*
X0135028Y0029328D03*
X0141366Y0029361D03*
X0141366Y0026312D03*
X0141366Y0023085D03*
X0141366Y0019499D03*
X0141366Y0015554D03*
X0141366Y0012506D03*
D12*
X0141366Y0010533D03*
X0135028Y0010500D03*
X0129083Y0010500D03*
X0123138Y0010500D03*
X0117193Y0010500D03*
X0111249Y0010500D03*
X0105304Y0010500D03*
X0099359Y0010500D03*
X0093414Y0010500D03*
X0087469Y0010500D03*
X0081524Y0010500D03*
X0075579Y0010500D03*
X0069634Y0010500D03*
X0063689Y0010500D03*
X0057745Y0010500D03*
X0051800Y0010500D03*
X0051800Y0031121D03*
X0057745Y0031121D03*
X0063689Y0031121D03*
X0069634Y0031121D03*
X0075579Y0031121D03*
X0081524Y0031121D03*
X0087469Y0031121D03*
X0093414Y0031121D03*
X0099359Y0031121D03*
X0105304Y0031121D03*
X0111249Y0031121D03*
X0117193Y0031121D03*
X0123138Y0031121D03*
X0129083Y0031121D03*
X0135028Y0031121D03*
X0141366Y0031154D03*
D13*
X0057833Y0110081D03*
X0064633Y0116881D03*
X0062083Y0123381D03*
X0102633Y0123381D03*
X0105183Y0116881D03*
X0105033Y0113681D03*
X0105033Y0113631D03*
X0105033Y0113581D03*
X0105083Y0113531D03*
X0124783Y0123581D03*
X0126583Y0111931D03*
X0132233Y0111981D03*
X0132283Y0111881D03*
X0137933Y0111931D03*
X0137933Y0111981D03*
D14*
X0127733Y0117431D03*
X0127733Y0117481D03*
X0125633Y0122831D03*
X0125583Y0122881D03*
X0102833Y0122931D03*
X0093483Y0123481D03*
X0083333Y0117631D03*
X0083383Y0117531D03*
X0062283Y0122931D03*
X0058283Y0110181D03*
X0058333Y0110131D03*
D15*
X0149858Y0110331D03*
X0149908Y0110231D03*
D16*
X0127758Y0117531D03*
X0125708Y0122731D03*
X0125658Y0122781D03*
X0105008Y0117331D03*
X0096108Y0116781D03*
X0093458Y0123431D03*
X0083308Y0117681D03*
X0083358Y0117581D03*
X0064458Y0117331D03*
X0058208Y0110381D03*
X0058258Y0110281D03*
X0058258Y0110231D03*
D17*
X0149783Y0110481D03*
X0149833Y0110381D03*
X0149883Y0110281D03*
D18*
X0127733Y0117581D03*
X0127733Y0117631D03*
X0125783Y0122631D03*
X0125733Y0122681D03*
X0104983Y0117381D03*
X0102833Y0122881D03*
X0083283Y0117731D03*
X0064433Y0117381D03*
X0062283Y0122881D03*
X0053083Y0122431D03*
X0056983Y0113231D03*
X0057083Y0112981D03*
X0057133Y0112881D03*
X0057133Y0112831D03*
X0057183Y0112731D03*
X0057233Y0112631D03*
X0057283Y0112531D03*
X0057283Y0112481D03*
X0057333Y0112381D03*
X0057383Y0112281D03*
X0057433Y0112181D03*
X0057433Y0112131D03*
X0057483Y0112031D03*
X0057533Y0111931D03*
X0057583Y0111781D03*
X0057633Y0111681D03*
X0057683Y0111581D03*
X0057783Y0111331D03*
X0058133Y0110531D03*
X0058183Y0110481D03*
X0058183Y0110431D03*
X0058233Y0110331D03*
D19*
X0148158Y0114831D03*
X0148258Y0114581D03*
X0148308Y0114431D03*
X0148358Y0114281D03*
X0148408Y0114181D03*
X0148458Y0114031D03*
X0149508Y0111131D03*
X0149558Y0110981D03*
X0149658Y0110731D03*
X0149708Y0110631D03*
X0149708Y0110581D03*
X0149758Y0110531D03*
X0149808Y0110431D03*
D20*
X0127708Y0117681D03*
X0127708Y0117731D03*
X0125808Y0122581D03*
X0096058Y0116831D03*
X0093458Y0123381D03*
X0058108Y0110631D03*
X0058108Y0110581D03*
X0058058Y0110681D03*
X0058058Y0110731D03*
X0058008Y0110781D03*
X0058008Y0110831D03*
X0058008Y0110881D03*
X0057958Y0110931D03*
X0057958Y0110981D03*
X0057908Y0111031D03*
X0057908Y0111081D03*
X0057858Y0111131D03*
X0057858Y0111181D03*
X0057808Y0111231D03*
X0057808Y0111281D03*
X0057758Y0111381D03*
X0057758Y0111431D03*
X0057708Y0111481D03*
X0057708Y0111531D03*
X0057658Y0111631D03*
X0057608Y0111731D03*
X0057558Y0111831D03*
X0057558Y0111881D03*
X0057508Y0111981D03*
X0057458Y0112081D03*
X0057408Y0112231D03*
X0057358Y0112331D03*
X0057308Y0112431D03*
X0057258Y0112581D03*
X0057208Y0112681D03*
X0057158Y0112781D03*
X0057108Y0112931D03*
X0057058Y0113031D03*
X0057058Y0113081D03*
X0057008Y0113131D03*
X0057008Y0113181D03*
X0056958Y0113281D03*
X0056958Y0113331D03*
X0056908Y0113381D03*
X0056908Y0113431D03*
X0056858Y0113481D03*
X0056858Y0113531D03*
X0056858Y0113581D03*
X0056808Y0113631D03*
X0056808Y0113681D03*
X0056758Y0113731D03*
X0056758Y0113781D03*
X0056758Y0113831D03*
X0056708Y0113881D03*
X0056708Y0113931D03*
X0056658Y0114031D03*
X0056608Y0114131D03*
X0056608Y0114181D03*
X0056558Y0114281D03*
X0056508Y0114381D03*
X0056458Y0114531D03*
X0056408Y0114631D03*
X0056358Y0114731D03*
X0056308Y0114831D03*
X0056308Y0114881D03*
X0056258Y0114981D03*
X0056208Y0115081D03*
X0056158Y0115181D03*
X0056158Y0115231D03*
X0056108Y0115281D03*
X0056108Y0115331D03*
X0056058Y0115381D03*
X0056058Y0115431D03*
X0055558Y0116631D03*
X0055508Y0116781D03*
X0055458Y0116881D03*
X0055408Y0116981D03*
X0055358Y0117081D03*
X0055358Y0117131D03*
X0055308Y0117231D03*
X0055258Y0117331D03*
X0055208Y0117431D03*
X0055208Y0117481D03*
X0055158Y0117531D03*
X0055158Y0117581D03*
X0055108Y0117681D03*
X0055058Y0117781D03*
X0055058Y0117831D03*
X0055008Y0117881D03*
X0055008Y0117931D03*
X0054958Y0117981D03*
X0054958Y0118031D03*
X0054958Y0118081D03*
X0054908Y0118131D03*
X0054908Y0118181D03*
X0054858Y0118231D03*
X0054858Y0118281D03*
X0054808Y0118381D03*
X0054808Y0118431D03*
X0054758Y0118481D03*
X0054758Y0118531D03*
X0054708Y0118581D03*
X0054708Y0118631D03*
X0054658Y0118731D03*
X0054658Y0118781D03*
X0054608Y0118831D03*
X0054608Y0118881D03*
X0054558Y0118981D03*
X0054558Y0119031D03*
X0054508Y0119081D03*
X0054508Y0119131D03*
X0054458Y0119181D03*
X0054458Y0119231D03*
X0054408Y0119331D03*
X0054408Y0119381D03*
X0054358Y0119431D03*
X0054358Y0119481D03*
X0054308Y0119531D03*
X0054308Y0119581D03*
X0054258Y0119681D03*
X0054258Y0119731D03*
X0054208Y0119781D03*
X0054208Y0119831D03*
X0054158Y0119931D03*
X0054158Y0119981D03*
X0054108Y0120031D03*
X0054108Y0120081D03*
X0054058Y0120131D03*
X0054058Y0120181D03*
X0054008Y0120281D03*
X0054008Y0120331D03*
X0053958Y0120381D03*
X0053958Y0120431D03*
X0053908Y0120481D03*
X0053908Y0120531D03*
X0053858Y0120631D03*
X0053858Y0120681D03*
X0053808Y0120731D03*
X0053808Y0120781D03*
X0053758Y0120881D03*
X0053708Y0120981D03*
X0053708Y0121031D03*
X0053658Y0121081D03*
X0053658Y0121131D03*
X0053608Y0121181D03*
X0053608Y0121231D03*
X0053558Y0121331D03*
X0053558Y0121381D03*
X0053508Y0121431D03*
X0053508Y0121481D03*
X0053458Y0121531D03*
X0053458Y0121581D03*
X0053408Y0121631D03*
X0053408Y0121681D03*
X0053408Y0121731D03*
X0053358Y0121781D03*
X0053358Y0121831D03*
X0053308Y0121881D03*
X0053308Y0121931D03*
X0053258Y0121981D03*
X0053258Y0122031D03*
X0053258Y0122081D03*
X0053208Y0122131D03*
X0053208Y0122181D03*
X0053158Y0122231D03*
X0053158Y0122281D03*
X0053108Y0122331D03*
X0053108Y0122381D03*
X0053058Y0122481D03*
X0053058Y0122531D03*
X0053008Y0122581D03*
X0053008Y0122631D03*
X0052958Y0122681D03*
X0052958Y0122731D03*
X0052958Y0122781D03*
X0052908Y0122831D03*
X0052908Y0122881D03*
X0052858Y0122931D03*
X0052858Y0122981D03*
X0052808Y0123031D03*
X0052808Y0123081D03*
X0052808Y0123131D03*
X0052758Y0123181D03*
X0052758Y0123231D03*
X0052708Y0123281D03*
X0052708Y0123331D03*
X0052658Y0123431D03*
X0052658Y0123481D03*
X0052608Y0123531D03*
X0052608Y0123581D03*
X0052558Y0123631D03*
X0052558Y0123681D03*
X0052508Y0123781D03*
X0052508Y0123831D03*
X0052458Y0123881D03*
D21*
X0046983Y0117981D03*
X0144933Y0123731D03*
X0144933Y0123781D03*
X0144983Y0123631D03*
X0144983Y0123581D03*
X0145033Y0123531D03*
X0145033Y0123481D03*
X0145083Y0123381D03*
X0145083Y0123331D03*
X0145133Y0123231D03*
X0145133Y0123181D03*
X0145183Y0123081D03*
X0145233Y0122981D03*
X0145233Y0122931D03*
X0145283Y0122831D03*
X0145283Y0122781D03*
X0145333Y0122681D03*
X0145383Y0122531D03*
X0145433Y0122431D03*
X0145433Y0122381D03*
X0145483Y0122281D03*
X0145483Y0122231D03*
X0145533Y0122131D03*
X0145583Y0121981D03*
X0145633Y0121881D03*
X0145633Y0121831D03*
X0145683Y0121731D03*
X0145733Y0121581D03*
X0145783Y0121481D03*
X0145783Y0121431D03*
X0145833Y0121331D03*
X0145883Y0121181D03*
X0145933Y0121031D03*
X0145983Y0120931D03*
X0146033Y0120781D03*
X0146083Y0120631D03*
X0146133Y0120481D03*
X0146183Y0120381D03*
X0146233Y0120231D03*
X0146283Y0120081D03*
X0146383Y0119831D03*
X0146433Y0119681D03*
X0146583Y0119281D03*
X0146633Y0119131D03*
X0146683Y0118981D03*
X0146783Y0118731D03*
X0146833Y0118581D03*
X0146883Y0118431D03*
X0146983Y0118181D03*
X0147033Y0118031D03*
X0147083Y0117881D03*
X0147133Y0117781D03*
X0147183Y0117631D03*
X0147233Y0117481D03*
X0147283Y0117331D03*
X0147333Y0117231D03*
X0147333Y0117181D03*
X0147383Y0117081D03*
X0147383Y0117031D03*
X0147433Y0116931D03*
X0147483Y0116781D03*
X0147533Y0116681D03*
X0147533Y0116631D03*
X0147933Y0115481D03*
X0147983Y0115381D03*
X0147983Y0115331D03*
X0148033Y0115231D03*
X0148033Y0115181D03*
X0148083Y0115131D03*
X0148083Y0115081D03*
X0148083Y0115031D03*
X0148133Y0114981D03*
X0148133Y0114931D03*
X0148133Y0114881D03*
X0148183Y0114781D03*
X0148183Y0114731D03*
X0148233Y0114681D03*
X0148233Y0114631D03*
X0148283Y0114531D03*
X0148283Y0114481D03*
X0148333Y0114381D03*
X0148333Y0114331D03*
X0148383Y0114231D03*
X0148433Y0114131D03*
X0148433Y0114081D03*
X0148483Y0113981D03*
X0148483Y0113931D03*
X0148533Y0113881D03*
X0148533Y0113831D03*
X0148533Y0113781D03*
X0148583Y0113731D03*
X0148583Y0113681D03*
X0148633Y0113631D03*
X0148633Y0113581D03*
X0148633Y0113531D03*
X0148683Y0113481D03*
X0148683Y0113431D03*
X0148733Y0113331D03*
X0148733Y0113281D03*
X0148783Y0113181D03*
X0148833Y0113081D03*
X0148833Y0113031D03*
X0148883Y0112931D03*
X0148933Y0112781D03*
X0148983Y0112631D03*
X0149033Y0112531D03*
X0149033Y0112481D03*
X0149083Y0112381D03*
X0149083Y0112331D03*
X0149133Y0112231D03*
X0149133Y0112181D03*
X0149183Y0112081D03*
X0149233Y0111981D03*
X0149233Y0111931D03*
X0149233Y0111881D03*
X0149283Y0111831D03*
X0149283Y0111781D03*
X0149283Y0111731D03*
X0149333Y0111681D03*
X0149333Y0111631D03*
X0149333Y0111581D03*
X0149383Y0111531D03*
X0149383Y0111481D03*
X0149383Y0111431D03*
X0149433Y0111381D03*
X0149433Y0111331D03*
X0149433Y0111281D03*
X0149483Y0111231D03*
X0149483Y0111181D03*
X0149533Y0111081D03*
X0149533Y0111031D03*
X0149583Y0110931D03*
X0149583Y0110881D03*
X0149633Y0110831D03*
X0149633Y0110781D03*
X0149683Y0110681D03*
D22*
X0138433Y0111431D03*
X0105233Y0116631D03*
X0105233Y0116681D03*
X0102533Y0123531D03*
X0064683Y0116681D03*
X0064683Y0116631D03*
X0061983Y0123531D03*
D23*
X0127058Y0111431D03*
X0132708Y0111431D03*
D24*
X0132158Y0112081D03*
X0132158Y0112131D03*
X0132158Y0112181D03*
X0132108Y0112231D03*
X0132108Y0112281D03*
X0132058Y0112331D03*
X0132058Y0112381D03*
X0132058Y0112431D03*
X0132008Y0112481D03*
X0132008Y0112531D03*
X0131958Y0112581D03*
X0131958Y0112631D03*
X0131958Y0112681D03*
X0131908Y0112731D03*
X0131908Y0112781D03*
X0131858Y0112831D03*
X0131858Y0112881D03*
X0131808Y0112981D03*
X0131808Y0113031D03*
X0131758Y0113081D03*
X0131758Y0113131D03*
X0131708Y0113231D03*
X0131708Y0113281D03*
X0131658Y0113331D03*
X0131658Y0113381D03*
X0131608Y0113481D03*
X0131608Y0113531D03*
X0131558Y0113581D03*
X0131558Y0113631D03*
X0131508Y0113731D03*
X0131508Y0113781D03*
X0131458Y0113831D03*
X0131458Y0113881D03*
X0131408Y0113981D03*
X0131408Y0114031D03*
X0129608Y0113331D03*
X0129608Y0113281D03*
X0129608Y0113231D03*
X0129658Y0113181D03*
X0129658Y0113131D03*
X0129708Y0113081D03*
X0129708Y0113031D03*
X0129758Y0112931D03*
X0129758Y0112881D03*
X0129808Y0112831D03*
X0129808Y0112781D03*
X0129858Y0112681D03*
X0129858Y0112631D03*
X0129908Y0112581D03*
X0129908Y0112531D03*
X0129958Y0112481D03*
X0129958Y0112431D03*
X0129958Y0112381D03*
X0130008Y0112331D03*
X0130008Y0112281D03*
X0130058Y0112231D03*
X0130058Y0112181D03*
X0130108Y0112081D03*
X0129558Y0113381D03*
X0129558Y0113431D03*
X0129508Y0113481D03*
X0129508Y0113531D03*
X0129508Y0113581D03*
X0129458Y0113631D03*
X0129458Y0113681D03*
X0129408Y0113731D03*
X0129408Y0113781D03*
X0129408Y0113831D03*
X0129358Y0113881D03*
X0129358Y0113931D03*
X0129308Y0113981D03*
X0129308Y0114031D03*
X0128058Y0113431D03*
X0128058Y0113381D03*
X0128058Y0113331D03*
X0128108Y0113281D03*
X0128108Y0113231D03*
X0128158Y0113181D03*
X0128158Y0113131D03*
X0128158Y0113081D03*
X0128208Y0113031D03*
X0128208Y0112981D03*
X0128258Y0112931D03*
X0128258Y0112881D03*
X0128258Y0112831D03*
X0128308Y0112781D03*
X0128308Y0112731D03*
X0128358Y0112681D03*
X0128358Y0112631D03*
X0128358Y0112581D03*
X0128408Y0112531D03*
X0128408Y0112481D03*
X0128458Y0112431D03*
X0128458Y0112381D03*
X0128508Y0112281D03*
X0128508Y0112231D03*
X0128558Y0112181D03*
X0128558Y0112131D03*
X0128008Y0113481D03*
X0128008Y0113531D03*
X0127958Y0113581D03*
X0127958Y0113631D03*
X0127958Y0113681D03*
X0127908Y0113731D03*
X0127908Y0113781D03*
X0127858Y0113831D03*
X0127858Y0113881D03*
X0127858Y0113931D03*
X0127808Y0113981D03*
X0127808Y0114031D03*
X0126008Y0113331D03*
X0126008Y0113281D03*
X0126008Y0113231D03*
X0126058Y0113181D03*
X0126058Y0113131D03*
X0126108Y0113081D03*
X0126108Y0113031D03*
X0126158Y0112931D03*
X0126158Y0112881D03*
X0126208Y0112831D03*
X0126208Y0112781D03*
X0126258Y0112681D03*
X0126258Y0112631D03*
X0126308Y0112581D03*
X0126308Y0112531D03*
X0126358Y0112431D03*
X0126358Y0112381D03*
X0126408Y0112331D03*
X0126408Y0112281D03*
X0126458Y0112231D03*
X0126458Y0112181D03*
X0126458Y0112131D03*
X0126508Y0112081D03*
X0126508Y0112031D03*
X0125958Y0113381D03*
X0125958Y0113431D03*
X0125908Y0113481D03*
X0125908Y0113531D03*
X0125908Y0113581D03*
X0125858Y0113631D03*
X0125858Y0113681D03*
X0125808Y0113731D03*
X0125808Y0113781D03*
X0125808Y0113831D03*
X0125758Y0113881D03*
X0125758Y0113931D03*
X0125708Y0113981D03*
X0125708Y0114031D03*
X0123908Y0113381D03*
X0123908Y0113331D03*
X0123958Y0113231D03*
X0123958Y0113181D03*
X0124008Y0113131D03*
X0124008Y0113081D03*
X0124058Y0112981D03*
X0124058Y0112931D03*
X0124108Y0112881D03*
X0124108Y0112831D03*
X0124158Y0112731D03*
X0124158Y0112681D03*
X0124208Y0112631D03*
X0124208Y0112581D03*
X0124258Y0112531D03*
X0124258Y0112481D03*
X0124258Y0112431D03*
X0124308Y0112381D03*
X0124308Y0112331D03*
X0124358Y0112281D03*
X0124358Y0112231D03*
X0124408Y0112131D03*
X0124458Y0112031D03*
X0123108Y0111581D03*
X0123108Y0111531D03*
X0123158Y0111431D03*
X0123058Y0111631D03*
X0123058Y0111681D03*
X0123008Y0111731D03*
X0123008Y0111781D03*
X0122958Y0111881D03*
X0122958Y0111931D03*
X0122908Y0111981D03*
X0122908Y0112031D03*
X0123858Y0113431D03*
X0123858Y0113481D03*
X0123808Y0113581D03*
X0123808Y0113631D03*
X0123758Y0113681D03*
X0123758Y0113731D03*
X0123708Y0113831D03*
X0123708Y0113881D03*
X0123658Y0113931D03*
X0123658Y0113981D03*
X0123608Y0114031D03*
X0117008Y0111481D03*
X0117008Y0111431D03*
X0116958Y0111531D03*
X0116958Y0111581D03*
X0116908Y0111631D03*
X0116908Y0111681D03*
X0116908Y0111731D03*
X0116858Y0111781D03*
X0116858Y0111831D03*
X0116808Y0111881D03*
X0116808Y0111931D03*
X0116808Y0111981D03*
X0116758Y0112031D03*
X0116758Y0112081D03*
X0116708Y0112131D03*
X0116708Y0112181D03*
X0116708Y0112231D03*
X0116658Y0112281D03*
X0116658Y0112331D03*
X0116608Y0112381D03*
X0116358Y0113031D03*
X0116358Y0113081D03*
X0116308Y0113131D03*
X0116308Y0113181D03*
X0116258Y0113281D03*
X0116258Y0113331D03*
X0116208Y0113381D03*
X0116208Y0113431D03*
X0116158Y0113531D03*
X0116108Y0113631D03*
X0116108Y0113681D03*
X0116058Y0113781D03*
X0116008Y0113881D03*
X0115958Y0114031D03*
X0116308Y0116831D03*
X0113108Y0113981D03*
X0113108Y0113931D03*
X0113158Y0113881D03*
X0113158Y0113831D03*
X0113208Y0113731D03*
X0113208Y0113681D03*
X0113258Y0113631D03*
X0113258Y0113581D03*
X0113308Y0113481D03*
X0113308Y0113431D03*
X0113358Y0113381D03*
X0113358Y0113331D03*
X0113408Y0113231D03*
X0113408Y0113181D03*
X0113458Y0113131D03*
X0113458Y0113081D03*
X0113758Y0112381D03*
X0113758Y0112331D03*
X0113758Y0112281D03*
X0113808Y0112231D03*
X0113808Y0112181D03*
X0113858Y0112131D03*
X0113858Y0112081D03*
X0113858Y0112031D03*
X0113908Y0111981D03*
X0113908Y0111931D03*
X0113958Y0111881D03*
X0113958Y0111831D03*
X0113958Y0111781D03*
X0114008Y0111731D03*
X0114008Y0111681D03*
X0114058Y0111631D03*
X0114058Y0111581D03*
X0114108Y0111481D03*
X0114108Y0111431D03*
X0112358Y0112031D03*
X0112358Y0112081D03*
X0112308Y0112131D03*
X0112308Y0112181D03*
X0112308Y0112231D03*
X0112258Y0112281D03*
X0112258Y0112331D03*
X0112208Y0112431D03*
X0112208Y0112481D03*
X0112158Y0112531D03*
X0111908Y0113131D03*
X0111758Y0113431D03*
X0111758Y0113481D03*
X0111708Y0113531D03*
X0113058Y0114031D03*
X0107758Y0112031D03*
X0107758Y0111981D03*
X0107808Y0111881D03*
X0107808Y0111831D03*
X0107858Y0111781D03*
X0107858Y0111731D03*
X0107908Y0111631D03*
X0107958Y0111531D03*
X0107958Y0111481D03*
X0107708Y0112081D03*
X0107708Y0112131D03*
X0107658Y0112231D03*
X0107658Y0112281D03*
X0107608Y0112331D03*
X0107608Y0112381D03*
X0107558Y0112481D03*
X0107558Y0112531D03*
X0107508Y0112581D03*
X0107508Y0112631D03*
X0107458Y0112731D03*
X0107458Y0112781D03*
X0107408Y0112831D03*
X0107408Y0112881D03*
X0107358Y0112981D03*
X0107358Y0113031D03*
X0107308Y0113081D03*
X0107308Y0113131D03*
X0107258Y0113231D03*
X0107258Y0113281D03*
X0107208Y0113331D03*
X0107208Y0113381D03*
X0107158Y0113481D03*
X0105358Y0112831D03*
X0105358Y0112781D03*
X0105408Y0112681D03*
X0105408Y0112631D03*
X0105458Y0112581D03*
X0105458Y0112531D03*
X0105508Y0112431D03*
X0105508Y0112381D03*
X0105558Y0112331D03*
X0105558Y0112281D03*
X0105608Y0112181D03*
X0105608Y0112131D03*
X0105658Y0112081D03*
X0105658Y0112031D03*
X0105708Y0111931D03*
X0105708Y0111881D03*
X0105758Y0111831D03*
X0105758Y0111781D03*
X0105808Y0111681D03*
X0105808Y0111631D03*
X0105858Y0111581D03*
X0105858Y0111531D03*
X0105908Y0111481D03*
X0105908Y0111431D03*
X0105308Y0112881D03*
X0105308Y0112931D03*
X0105258Y0113031D03*
X0105258Y0113081D03*
X0105208Y0113131D03*
X0105208Y0113181D03*
X0105158Y0113231D03*
X0105158Y0113281D03*
X0105158Y0113331D03*
X0105108Y0113381D03*
X0105108Y0113431D03*
X0103308Y0112731D03*
X0103308Y0112681D03*
X0103358Y0112581D03*
X0103408Y0112481D03*
X0103408Y0112431D03*
X0103458Y0112331D03*
X0103508Y0112231D03*
X0103508Y0112181D03*
X0103558Y0112081D03*
X0103608Y0111981D03*
X0103608Y0111931D03*
X0103658Y0111881D03*
X0103658Y0111831D03*
X0103708Y0111731D03*
X0103708Y0111681D03*
X0103758Y0111631D03*
X0103758Y0111581D03*
X0103808Y0111481D03*
X0103808Y0111431D03*
X0103258Y0112831D03*
X0103208Y0112931D03*
X0103208Y0112981D03*
X0103158Y0113031D03*
X0103158Y0113081D03*
X0103158Y0113131D03*
X0103108Y0113181D03*
X0103108Y0113231D03*
X0103058Y0113281D03*
X0103058Y0113331D03*
X0103058Y0113381D03*
X0103008Y0113431D03*
X0103008Y0113481D03*
X0101708Y0112981D03*
X0101708Y0112931D03*
X0101758Y0112831D03*
X0101758Y0112781D03*
X0101808Y0112731D03*
X0101808Y0112681D03*
X0101858Y0112581D03*
X0101858Y0112531D03*
X0101908Y0112481D03*
X0101908Y0112431D03*
X0101958Y0112331D03*
X0101958Y0112281D03*
X0102008Y0112181D03*
X0102008Y0112131D03*
X0102058Y0112031D03*
X0101658Y0113031D03*
X0101658Y0113081D03*
X0101608Y0113131D03*
X0101608Y0113181D03*
X0101558Y0113281D03*
X0101508Y0113381D03*
X0098958Y0112131D03*
X0098958Y0112081D03*
X0099008Y0112031D03*
X0098908Y0112181D03*
X0098908Y0112231D03*
X0098858Y0112281D03*
X0098858Y0112331D03*
X0098808Y0112431D03*
X0098808Y0112481D03*
X0098758Y0112531D03*
X0098758Y0112581D03*
X0098708Y0112681D03*
X0098658Y0112781D03*
X0098608Y0112931D03*
X0098558Y0113031D03*
X0098558Y0113081D03*
X0098508Y0113181D03*
X0098508Y0113231D03*
X0098458Y0113281D03*
X0098458Y0113331D03*
X0098408Y0113431D03*
X0098408Y0113481D03*
X0097058Y0112981D03*
X0097058Y0112931D03*
X0097108Y0112831D03*
X0097158Y0112731D03*
X0097158Y0112681D03*
X0097208Y0112581D03*
X0097258Y0112481D03*
X0097258Y0112431D03*
X0097308Y0112331D03*
X0097358Y0112231D03*
X0097358Y0112181D03*
X0097408Y0112081D03*
X0097008Y0113081D03*
X0096958Y0113181D03*
X0096958Y0113231D03*
X0096908Y0113331D03*
X0096858Y0113431D03*
X0096858Y0113481D03*
X0094208Y0112381D03*
X0094158Y0112481D03*
X0094108Y0112581D03*
X0094108Y0112631D03*
X0094058Y0112731D03*
X0094008Y0112831D03*
X0094008Y0112881D03*
X0093958Y0112981D03*
X0093908Y0113081D03*
X0093908Y0113131D03*
X0093858Y0113231D03*
X0092458Y0113081D03*
X0092408Y0113181D03*
X0088408Y0111681D03*
X0088408Y0111631D03*
X0088408Y0111581D03*
X0088458Y0111531D03*
X0088458Y0111481D03*
X0088508Y0111431D03*
X0088358Y0111731D03*
X0088358Y0111781D03*
X0088308Y0111831D03*
X0088308Y0111881D03*
X0088308Y0111931D03*
X0088258Y0111981D03*
X0088258Y0112031D03*
X0088208Y0112081D03*
X0088208Y0112131D03*
X0088208Y0112181D03*
X0088158Y0112231D03*
X0088158Y0112281D03*
X0088108Y0112331D03*
X0088108Y0112381D03*
X0087808Y0113081D03*
X0087808Y0113131D03*
X0087808Y0113181D03*
X0087758Y0113231D03*
X0087758Y0113281D03*
X0087708Y0113331D03*
X0087708Y0113381D03*
X0087658Y0113481D03*
X0087658Y0113531D03*
X0087608Y0113581D03*
X0087608Y0113631D03*
X0087558Y0113731D03*
X0087558Y0113781D03*
X0087508Y0113831D03*
X0087508Y0113881D03*
X0087458Y0113981D03*
X0087408Y0114081D03*
X0084958Y0113081D03*
X0084958Y0113031D03*
X0084908Y0113131D03*
X0084908Y0113181D03*
X0084858Y0113231D03*
X0084858Y0113281D03*
X0084858Y0113331D03*
X0084808Y0113381D03*
X0084808Y0113431D03*
X0084758Y0113481D03*
X0084758Y0113531D03*
X0084758Y0113581D03*
X0084708Y0113631D03*
X0084708Y0113681D03*
X0084658Y0113731D03*
X0084658Y0113781D03*
X0084658Y0113831D03*
X0084608Y0113881D03*
X0084608Y0113931D03*
X0084558Y0113981D03*
X0084558Y0114031D03*
X0083308Y0113381D03*
X0083358Y0113281D03*
X0083358Y0113231D03*
X0083408Y0113181D03*
X0083408Y0113131D03*
X0083458Y0113081D03*
X0083458Y0113031D03*
X0083458Y0112981D03*
X0083508Y0112931D03*
X0083508Y0112881D03*
X0083558Y0112831D03*
X0083558Y0112781D03*
X0083608Y0112681D03*
X0083658Y0112581D03*
X0083658Y0112531D03*
X0083708Y0112431D03*
X0083708Y0112381D03*
X0083758Y0112331D03*
X0083758Y0112281D03*
X0083758Y0112231D03*
X0083808Y0112181D03*
X0083808Y0112131D03*
X0083258Y0113481D03*
X0085258Y0112331D03*
X0085258Y0112281D03*
X0085308Y0112181D03*
X0085308Y0112131D03*
X0085358Y0112081D03*
X0085358Y0112031D03*
X0085408Y0111981D03*
X0085408Y0111931D03*
X0085408Y0111881D03*
X0085458Y0111831D03*
X0085458Y0111781D03*
X0085508Y0111731D03*
X0085508Y0111681D03*
X0085508Y0111631D03*
X0085558Y0111581D03*
X0085558Y0111531D03*
X0085608Y0111481D03*
X0085608Y0111431D03*
X0080758Y0112081D03*
X0080708Y0112181D03*
X0080708Y0112231D03*
X0080658Y0112281D03*
X0080658Y0112331D03*
X0080608Y0112381D03*
X0080608Y0112431D03*
X0080558Y0112531D03*
X0080558Y0112581D03*
X0080508Y0112631D03*
X0080508Y0112681D03*
X0080458Y0112781D03*
X0080408Y0112881D03*
X0080408Y0112931D03*
X0080358Y0113031D03*
X0080308Y0113131D03*
X0080308Y0113181D03*
X0080258Y0113231D03*
X0080258Y0113281D03*
X0080258Y0113331D03*
X0080208Y0113381D03*
X0080208Y0113431D03*
X0080208Y0113481D03*
X0074808Y0111531D03*
X0074808Y0111481D03*
X0074758Y0111581D03*
X0074758Y0111631D03*
X0074708Y0111731D03*
X0074708Y0111781D03*
X0074658Y0111831D03*
X0074658Y0111881D03*
X0074608Y0111931D03*
X0074608Y0111981D03*
X0073008Y0112031D03*
X0073008Y0112081D03*
X0073008Y0112131D03*
X0073008Y0112181D03*
X0072958Y0112231D03*
X0072958Y0112281D03*
X0072908Y0112381D03*
X0072908Y0112431D03*
X0072858Y0112531D03*
X0072808Y0112631D03*
X0072808Y0112681D03*
X0072758Y0112781D03*
X0072708Y0112881D03*
X0072708Y0112931D03*
X0072658Y0112981D03*
X0072658Y0113031D03*
X0072608Y0113131D03*
X0072608Y0113181D03*
X0072558Y0113231D03*
X0072558Y0113281D03*
X0072508Y0113331D03*
X0072508Y0113381D03*
X0072458Y0113481D03*
X0068408Y0112131D03*
X0068408Y0112081D03*
X0068408Y0112031D03*
X0068358Y0112181D03*
X0068358Y0112231D03*
X0068358Y0112281D03*
X0068308Y0112331D03*
X0068308Y0112381D03*
X0068258Y0112481D03*
X0068258Y0112531D03*
X0068208Y0112631D03*
X0068158Y0112731D03*
X0068158Y0112781D03*
X0068108Y0112881D03*
X0068058Y0112981D03*
X0068008Y0113081D03*
X0068008Y0113131D03*
X0067958Y0113181D03*
X0067958Y0113231D03*
X0067908Y0113281D03*
X0067908Y0113331D03*
X0067858Y0113431D03*
X0065258Y0112331D03*
X0065258Y0112281D03*
X0065308Y0112181D03*
X0065308Y0112131D03*
X0065358Y0112081D03*
X0065358Y0112031D03*
X0065208Y0112381D03*
X0065208Y0112431D03*
X0065158Y0112481D03*
X0065158Y0112531D03*
X0065108Y0112631D03*
X0065108Y0112681D03*
X0065058Y0112731D03*
X0065058Y0112781D03*
X0065008Y0112881D03*
X0065008Y0112931D03*
X0064958Y0112981D03*
X0064958Y0113031D03*
X0064908Y0113131D03*
X0064908Y0113181D03*
X0064858Y0113231D03*
X0064858Y0113281D03*
X0064858Y0113331D03*
X0064808Y0113381D03*
X0064808Y0113431D03*
X0064808Y0113481D03*
X0133458Y0114031D03*
X0133458Y0114081D03*
X0133508Y0113981D03*
X0133508Y0113931D03*
X0133558Y0113831D03*
X0133558Y0113781D03*
X0133608Y0113731D03*
X0133608Y0113681D03*
X0133658Y0113631D03*
X0133658Y0113581D03*
X0133658Y0113531D03*
X0133708Y0113481D03*
X0133708Y0113431D03*
X0133758Y0113381D03*
X0133758Y0113331D03*
X0133808Y0113231D03*
X0133808Y0113181D03*
X0133858Y0113131D03*
X0133858Y0113081D03*
X0133908Y0112981D03*
X0133908Y0112931D03*
X0133958Y0112881D03*
X0133958Y0112831D03*
X0134008Y0112731D03*
X0134008Y0112681D03*
X0134058Y0112631D03*
X0134058Y0112581D03*
X0134108Y0112481D03*
X0134108Y0112431D03*
X0134158Y0112381D03*
X0134158Y0112331D03*
X0134208Y0112231D03*
X0134208Y0112181D03*
X0134258Y0112131D03*
X0134258Y0112081D03*
X0135558Y0112581D03*
X0135558Y0112631D03*
X0135608Y0112531D03*
X0135608Y0112481D03*
X0135658Y0112431D03*
X0135658Y0112381D03*
X0135658Y0112331D03*
X0135708Y0112281D03*
X0135708Y0112231D03*
X0135758Y0112181D03*
X0135758Y0112131D03*
X0135808Y0112031D03*
X0135508Y0112731D03*
X0135508Y0112781D03*
X0135458Y0112831D03*
X0135458Y0112881D03*
X0135408Y0112981D03*
X0135408Y0113031D03*
X0135358Y0113081D03*
X0135358Y0113131D03*
X0135308Y0113231D03*
X0135308Y0113281D03*
X0135258Y0113331D03*
X0135258Y0113381D03*
X0135208Y0113481D03*
X0135208Y0113531D03*
X0135158Y0113581D03*
X0135158Y0113631D03*
X0135108Y0113731D03*
X0135108Y0113781D03*
X0135058Y0113831D03*
X0135058Y0113881D03*
X0135008Y0113981D03*
X0135008Y0114031D03*
X0137058Y0114031D03*
X0137108Y0113981D03*
X0137108Y0113931D03*
X0137158Y0113831D03*
X0137158Y0113781D03*
X0137208Y0113731D03*
X0137208Y0113681D03*
X0137258Y0113581D03*
X0137258Y0113531D03*
X0137308Y0113481D03*
X0137308Y0113431D03*
X0137358Y0113331D03*
X0137358Y0113281D03*
X0137408Y0113231D03*
X0137408Y0113181D03*
X0137458Y0113081D03*
X0137458Y0113031D03*
X0137508Y0112981D03*
X0137508Y0112931D03*
X0137558Y0112831D03*
X0137558Y0112781D03*
X0137608Y0112731D03*
X0137608Y0112681D03*
X0137658Y0112581D03*
X0137658Y0112531D03*
X0137708Y0112481D03*
X0137708Y0112431D03*
X0137758Y0112331D03*
X0137758Y0112281D03*
X0137808Y0112231D03*
X0137808Y0112181D03*
X0137858Y0112131D03*
X0137858Y0112081D03*
X0137858Y0112031D03*
X0139708Y0112631D03*
X0139708Y0112681D03*
X0139758Y0112581D03*
X0139758Y0112531D03*
X0139808Y0112431D03*
X0139808Y0112381D03*
X0139858Y0112331D03*
X0139858Y0112281D03*
X0139908Y0112181D03*
X0139908Y0112131D03*
X0139958Y0112081D03*
X0139958Y0112031D03*
X0139658Y0112781D03*
X0139658Y0112831D03*
X0139608Y0112881D03*
X0139608Y0112931D03*
X0139558Y0113031D03*
X0139558Y0113081D03*
X0139508Y0113131D03*
X0139508Y0113181D03*
X0139458Y0113231D03*
X0139458Y0113281D03*
X0139458Y0113331D03*
X0139408Y0113381D03*
X0139408Y0113431D03*
X0139358Y0113481D03*
X0139358Y0113531D03*
X0139358Y0113581D03*
X0139308Y0113631D03*
X0139308Y0113681D03*
X0139258Y0113731D03*
X0139258Y0113781D03*
X0139208Y0113881D03*
X0139158Y0113981D03*
X0139158Y0114031D03*
D25*
X0120058Y0111481D03*
X0120058Y0111431D03*
X0120008Y0111581D03*
X0119958Y0111681D03*
X0119908Y0111831D03*
X0119858Y0111931D03*
X0119808Y0112081D03*
X0119758Y0112181D03*
X0119708Y0112331D03*
X0119658Y0112431D03*
X0119608Y0112581D03*
X0119558Y0112681D03*
X0119508Y0112781D03*
X0119508Y0112831D03*
X0119458Y0112931D03*
X0119408Y0113031D03*
X0119358Y0113181D03*
X0119308Y0113281D03*
X0119258Y0113431D03*
X0116258Y0116931D03*
X0111908Y0113081D03*
X0109158Y0123581D03*
X0109108Y0123631D03*
X0092308Y0113381D03*
X0092308Y0113331D03*
X0092358Y0113281D03*
X0092258Y0113431D03*
X0089658Y0112531D03*
X0089658Y0112481D03*
X0089658Y0112431D03*
X0089658Y0112381D03*
X0089708Y0112331D03*
X0089708Y0112281D03*
X0089758Y0112181D03*
X0089758Y0112131D03*
X0089808Y0112081D03*
X0089808Y0112031D03*
X0089858Y0111981D03*
X0079408Y0111481D03*
X0079358Y0111581D03*
X0079308Y0111731D03*
X0079258Y0111831D03*
X0079208Y0111931D03*
X0079208Y0111981D03*
X0079158Y0112081D03*
X0079108Y0112181D03*
X0079108Y0112231D03*
X0079058Y0112331D03*
X0078808Y0113031D03*
X0078758Y0113181D03*
X0078708Y0113231D03*
X0078708Y0113281D03*
X0078658Y0113331D03*
X0075758Y0113031D03*
X0075708Y0113131D03*
X0075608Y0113381D03*
D26*
X0081508Y0113981D03*
X0082508Y0111531D03*
X0081708Y0118231D03*
X0083208Y0121831D03*
X0083208Y0121881D03*
X0090808Y0112581D03*
X0091908Y0111431D03*
X0096458Y0111431D03*
X0099708Y0113981D03*
X0100708Y0111531D03*
X0110758Y0111431D03*
X0115708Y0118481D03*
X0117008Y0120381D03*
X0117008Y0120431D03*
X0111608Y0120331D03*
X0111558Y0120381D03*
X0125058Y0120931D03*
X0125108Y0120831D03*
X0125108Y0120781D03*
X0125158Y0120731D03*
X0125158Y0120681D03*
X0125158Y0120631D03*
X0125208Y0120581D03*
X0125208Y0120531D03*
X0125258Y0120381D03*
X0066108Y0113981D03*
D27*
X0064933Y0113081D03*
X0065033Y0112831D03*
X0065133Y0112581D03*
X0068033Y0113031D03*
X0068083Y0112931D03*
X0068133Y0112831D03*
X0068183Y0112681D03*
X0068233Y0112581D03*
X0068283Y0112431D03*
X0072633Y0113081D03*
X0072733Y0112831D03*
X0072783Y0112731D03*
X0072833Y0112581D03*
X0072883Y0112481D03*
X0072933Y0112331D03*
X0074733Y0111681D03*
X0074833Y0111431D03*
X0078783Y0113081D03*
X0078783Y0113131D03*
X0080333Y0113081D03*
X0080383Y0112981D03*
X0080433Y0112831D03*
X0080483Y0112731D03*
X0080583Y0112481D03*
X0083583Y0112731D03*
X0083633Y0112631D03*
X0083683Y0112481D03*
X0085233Y0112381D03*
X0087833Y0113031D03*
X0092383Y0113231D03*
X0096883Y0113381D03*
X0096933Y0113281D03*
X0096983Y0113131D03*
X0097033Y0113031D03*
X0097083Y0112881D03*
X0097133Y0112781D03*
X0097183Y0112631D03*
X0097233Y0112531D03*
X0097283Y0112381D03*
X0097333Y0112281D03*
X0097383Y0112131D03*
X0097433Y0112031D03*
X0098733Y0112631D03*
X0098683Y0112731D03*
X0098633Y0112831D03*
X0098633Y0112881D03*
X0098583Y0112981D03*
X0098533Y0113131D03*
X0098833Y0112381D03*
X0101733Y0112881D03*
X0101833Y0112631D03*
X0101933Y0112381D03*
X0103233Y0112881D03*
X0103283Y0112781D03*
X0103333Y0112631D03*
X0103383Y0112531D03*
X0103433Y0112381D03*
X0103483Y0112281D03*
X0103533Y0112131D03*
X0103583Y0112031D03*
X0103683Y0111781D03*
X0103783Y0111531D03*
X0105583Y0112231D03*
X0105683Y0111981D03*
X0105783Y0111731D03*
X0105483Y0112481D03*
X0105383Y0112731D03*
X0105283Y0112981D03*
X0105083Y0113481D03*
X0107183Y0113431D03*
X0107283Y0113181D03*
X0107383Y0112931D03*
X0107483Y0112681D03*
X0107583Y0112431D03*
X0107683Y0112181D03*
X0107783Y0111931D03*
X0107883Y0111681D03*
X0107933Y0111581D03*
X0107983Y0111431D03*
X0111783Y0113381D03*
X0111833Y0113331D03*
X0111833Y0113281D03*
X0111883Y0113231D03*
X0111883Y0113181D03*
X0112233Y0112381D03*
X0113483Y0113031D03*
X0113383Y0113281D03*
X0113283Y0113531D03*
X0113183Y0113781D03*
X0114083Y0111531D03*
X0116283Y0116881D03*
X0123133Y0111481D03*
X0124133Y0112781D03*
X0124033Y0113031D03*
X0123933Y0113281D03*
X0123833Y0113531D03*
X0123733Y0113781D03*
X0126133Y0112981D03*
X0126233Y0112731D03*
X0126333Y0112481D03*
X0128483Y0112331D03*
X0128583Y0112081D03*
X0128583Y0112031D03*
X0129833Y0112731D03*
X0129733Y0112981D03*
X0131533Y0113681D03*
X0131633Y0113431D03*
X0131733Y0113181D03*
X0131833Y0112931D03*
X0132183Y0112031D03*
X0133983Y0112781D03*
X0134083Y0112531D03*
X0134183Y0112281D03*
X0134283Y0112031D03*
X0133883Y0113031D03*
X0133783Y0113281D03*
X0135133Y0113681D03*
X0135233Y0113431D03*
X0135333Y0113181D03*
X0135433Y0112931D03*
X0135533Y0112681D03*
X0135033Y0113931D03*
X0137133Y0113881D03*
X0137233Y0113631D03*
X0137333Y0113381D03*
X0137433Y0113131D03*
X0137533Y0112881D03*
X0137633Y0112631D03*
X0137733Y0112381D03*
X0139583Y0112981D03*
X0139683Y0112731D03*
X0139783Y0112481D03*
X0139883Y0112231D03*
X0131433Y0113931D03*
D28*
X0111058Y0121081D03*
X0105158Y0122131D03*
X0102908Y0117831D03*
X0099658Y0114081D03*
X0100758Y0111431D03*
X0083258Y0122331D03*
X0083258Y0122381D03*
X0081458Y0114081D03*
X0082558Y0111431D03*
X0066058Y0114081D03*
X0062358Y0117831D03*
X0064608Y0122131D03*
D29*
X0075583Y0113531D03*
X0075583Y0113481D03*
X0075583Y0113431D03*
X0075633Y0113331D03*
X0075633Y0113281D03*
X0075683Y0113231D03*
X0075683Y0113181D03*
X0075733Y0113081D03*
X0078583Y0113481D03*
X0078633Y0113431D03*
X0078633Y0113381D03*
X0079033Y0112381D03*
X0079083Y0112281D03*
X0079133Y0112131D03*
X0079183Y0112031D03*
X0079233Y0111881D03*
X0079283Y0111781D03*
X0079333Y0111681D03*
X0079333Y0111631D03*
X0079383Y0111531D03*
X0079433Y0111431D03*
X0089733Y0112231D03*
X0092233Y0113481D03*
X0119233Y0113481D03*
X0119283Y0113381D03*
X0119283Y0113331D03*
X0119333Y0113231D03*
X0119383Y0113131D03*
X0119383Y0113081D03*
X0119433Y0112981D03*
X0119483Y0112881D03*
X0119533Y0112731D03*
X0119583Y0112631D03*
X0119633Y0112531D03*
X0119633Y0112481D03*
X0119683Y0112381D03*
X0119733Y0112281D03*
X0119733Y0112231D03*
X0119783Y0112131D03*
X0119833Y0112031D03*
X0119833Y0111981D03*
X0119883Y0111881D03*
X0119933Y0111781D03*
X0119933Y0111731D03*
X0119983Y0111631D03*
X0120033Y0111531D03*
D30*
X0115683Y0118531D03*
X0117033Y0120281D03*
X0117033Y0120331D03*
X0125233Y0120431D03*
X0125233Y0120481D03*
X0125283Y0120331D03*
X0125283Y0120281D03*
X0125333Y0120231D03*
X0125333Y0120181D03*
X0125333Y0120131D03*
X0125383Y0120081D03*
X0125383Y0120031D03*
X0125383Y0119981D03*
X0125433Y0119931D03*
X0125433Y0119881D03*
X0109733Y0114081D03*
X0090233Y0114081D03*
X0083183Y0121731D03*
X0083183Y0121781D03*
X0070433Y0114081D03*
X0071483Y0111431D03*
D31*
X0067183Y0111431D03*
X0060483Y0122181D03*
X0093133Y0117831D03*
X0101033Y0122181D03*
X0110983Y0121131D03*
X0115833Y0118131D03*
X0116983Y0121131D03*
X0116983Y0121181D03*
X0116983Y0121231D03*
X0129433Y0117881D03*
D32*
X0126933Y0111481D03*
X0132633Y0111481D03*
X0138333Y0111481D03*
D33*
X0117033Y0119981D03*
X0117033Y0120031D03*
X0111833Y0120031D03*
X0109883Y0113981D03*
X0110883Y0111481D03*
X0090933Y0112731D03*
X0090383Y0113981D03*
X0082483Y0111631D03*
X0077033Y0114031D03*
X0070583Y0113981D03*
X0066133Y0113881D03*
X0081733Y0118481D03*
X0083133Y0121481D03*
X0083133Y0121531D03*
D34*
X0083258Y0122081D03*
X0081458Y0114031D03*
X0082558Y0111481D03*
X0067158Y0111481D03*
X0100758Y0111481D03*
X0115758Y0118331D03*
X0117008Y0120631D03*
X0117008Y0120681D03*
X0117008Y0120731D03*
X0129208Y0117781D03*
D35*
X0117033Y0120131D03*
X0117033Y0120181D03*
X0117033Y0120231D03*
X0115683Y0118581D03*
X0111733Y0120181D03*
X0111683Y0120231D03*
X0109833Y0114031D03*
X0096333Y0111481D03*
X0091783Y0111481D03*
X0090883Y0112631D03*
X0081533Y0113931D03*
X0077733Y0112481D03*
X0081733Y0118381D03*
X0083183Y0121681D03*
X0066133Y0113931D03*
D36*
X0067108Y0111631D03*
X0070508Y0114031D03*
X0071558Y0111481D03*
X0081558Y0113881D03*
X0081758Y0118431D03*
X0083158Y0121581D03*
X0083158Y0121631D03*
X0090308Y0114031D03*
X0091108Y0112931D03*
X0090908Y0112681D03*
X0095258Y0114031D03*
X0099758Y0113881D03*
X0100708Y0111631D03*
X0111758Y0120131D03*
X0111808Y0120081D03*
X0115658Y0118631D03*
X0117058Y0120081D03*
D37*
X0126883Y0111531D03*
X0132583Y0111531D03*
X0138233Y0111531D03*
X0105033Y0114031D03*
D38*
X0100658Y0111681D03*
X0096258Y0111531D03*
X0096208Y0111581D03*
X0095258Y0113981D03*
X0091708Y0111531D03*
X0091658Y0111581D03*
X0090958Y0112781D03*
X0091008Y0112831D03*
X0091058Y0112881D03*
X0082458Y0111681D03*
X0081558Y0113831D03*
X0077658Y0112531D03*
X0071558Y0111531D03*
X0067058Y0111681D03*
X0066158Y0113831D03*
X0081758Y0118531D03*
X0081758Y0118581D03*
X0083108Y0121431D03*
X0111858Y0119981D03*
X0111908Y0119931D03*
X0115658Y0118681D03*
X0117058Y0119931D03*
X0110908Y0111531D03*
D39*
X0115733Y0118431D03*
X0117033Y0120481D03*
X0111533Y0120431D03*
X0111483Y0120481D03*
X0125033Y0120981D03*
X0125033Y0121031D03*
X0125083Y0120881D03*
X0083233Y0121931D03*
X0081683Y0118181D03*
X0081683Y0118131D03*
X0067133Y0111531D03*
D40*
X0080683Y0123531D03*
X0084433Y0116631D03*
X0126783Y0111631D03*
X0126833Y0111581D03*
X0138133Y0111631D03*
X0138183Y0111581D03*
D41*
X0132508Y0111581D03*
X0105008Y0113981D03*
X0105208Y0116781D03*
X0080608Y0123581D03*
X0064658Y0116781D03*
D42*
X0066208Y0113731D03*
X0067008Y0111781D03*
X0070658Y0113881D03*
X0070708Y0113831D03*
X0071608Y0111631D03*
X0077008Y0113931D03*
X0077558Y0112631D03*
X0081608Y0113731D03*
X0082408Y0111781D03*
X0082458Y0111731D03*
X0086408Y0112981D03*
X0086458Y0112931D03*
X0086458Y0112881D03*
X0086508Y0112781D03*
X0086508Y0112731D03*
X0086558Y0112681D03*
X0086558Y0112631D03*
X0086608Y0112531D03*
X0086658Y0112431D03*
X0090458Y0113881D03*
X0091558Y0111681D03*
X0091608Y0111631D03*
X0095208Y0113881D03*
X0096108Y0111681D03*
X0096158Y0111631D03*
X0099808Y0113731D03*
X0100658Y0111731D03*
X0110008Y0113881D03*
X0110508Y0113031D03*
X0110558Y0112981D03*
X0110558Y0112931D03*
X0110608Y0112881D03*
X0110608Y0112831D03*
X0110658Y0112731D03*
X0110658Y0112681D03*
X0110708Y0112631D03*
X0110708Y0112581D03*
X0110908Y0111631D03*
X0110908Y0111581D03*
X0114958Y0112931D03*
X0115008Y0112831D03*
X0115008Y0112781D03*
X0115058Y0112731D03*
X0115058Y0112681D03*
X0115108Y0112581D03*
X0115108Y0112531D03*
X0115158Y0112481D03*
X0115158Y0112431D03*
X0115608Y0118781D03*
X0117058Y0119731D03*
X0117058Y0119781D03*
X0112008Y0119831D03*
X0111958Y0119881D03*
X0102558Y0123631D03*
X0083058Y0121281D03*
X0081808Y0118731D03*
X0081808Y0118681D03*
X0062008Y0123631D03*
D43*
X0077108Y0114081D03*
X0082508Y0111581D03*
X0081708Y0118281D03*
X0081708Y0118331D03*
X0091158Y0112981D03*
X0095308Y0114081D03*
X0099758Y0113931D03*
X0100708Y0111581D03*
X0111658Y0120281D03*
X0067108Y0111581D03*
D44*
X0067033Y0111731D03*
X0066183Y0113781D03*
X0070633Y0113931D03*
X0071583Y0111581D03*
X0077033Y0113981D03*
X0077583Y0112581D03*
X0081583Y0113781D03*
X0086483Y0112831D03*
X0086583Y0112581D03*
X0086633Y0112481D03*
X0090433Y0113931D03*
X0095233Y0113931D03*
X0099783Y0113831D03*
X0099783Y0113781D03*
X0109933Y0113931D03*
X0110633Y0112781D03*
X0114933Y0112981D03*
X0114983Y0112881D03*
X0115083Y0112631D03*
X0115633Y0118731D03*
X0117033Y0119831D03*
X0117033Y0119881D03*
X0083083Y0121331D03*
X0083083Y0121381D03*
X0081783Y0118631D03*
D45*
X0084258Y0116731D03*
X0102608Y0123431D03*
X0105008Y0113931D03*
X0105008Y0113881D03*
X0132408Y0111681D03*
X0132458Y0111631D03*
X0138108Y0111681D03*
X0062058Y0123431D03*
D46*
X0064633Y0116831D03*
X0104983Y0113831D03*
X0105183Y0116831D03*
X0126683Y0111731D03*
X0126733Y0111681D03*
X0132383Y0111731D03*
X0138033Y0111781D03*
X0138083Y0111731D03*
D47*
X0117058Y0119581D03*
X0117058Y0119631D03*
X0115608Y0118831D03*
X0112108Y0119681D03*
X0112058Y0119731D03*
X0110108Y0113731D03*
X0110108Y0113681D03*
X0110158Y0113631D03*
X0110908Y0111781D03*
X0110908Y0111731D03*
X0110908Y0111681D03*
X0100558Y0111931D03*
X0099908Y0113531D03*
X0099858Y0113631D03*
X0096058Y0111781D03*
X0096008Y0111831D03*
X0095958Y0111931D03*
X0095258Y0113681D03*
X0095258Y0113731D03*
X0091508Y0111781D03*
X0091458Y0111831D03*
X0090558Y0113781D03*
X0082358Y0111931D03*
X0081658Y0113631D03*
X0077508Y0112681D03*
X0077458Y0112731D03*
X0077008Y0113781D03*
X0077008Y0113831D03*
X0071558Y0111881D03*
X0071608Y0111731D03*
X0070808Y0113681D03*
X0066958Y0111931D03*
X0066958Y0111881D03*
X0066908Y0111981D03*
X0066258Y0113581D03*
X0066258Y0113631D03*
X0081858Y0118881D03*
X0083008Y0121131D03*
D48*
X0083033Y0121181D03*
X0083033Y0121231D03*
X0081833Y0118781D03*
X0081633Y0113681D03*
X0082383Y0111881D03*
X0082383Y0111831D03*
X0076983Y0113881D03*
X0071583Y0111681D03*
X0070783Y0113731D03*
X0070733Y0113781D03*
X0066983Y0111831D03*
X0066233Y0113681D03*
X0090533Y0113831D03*
X0091533Y0111731D03*
X0095233Y0113781D03*
X0095233Y0113831D03*
X0096083Y0111731D03*
X0099833Y0113681D03*
X0100583Y0111881D03*
X0100583Y0111831D03*
X0100633Y0111781D03*
X0110033Y0113831D03*
X0110083Y0113781D03*
X0117033Y0119681D03*
X0112033Y0119781D03*
D49*
X0105008Y0113781D03*
X0105008Y0113731D03*
X0126558Y0111981D03*
X0126608Y0111881D03*
X0126658Y0111831D03*
X0126658Y0111781D03*
X0132258Y0111931D03*
X0132308Y0111831D03*
X0132358Y0111781D03*
X0137958Y0111881D03*
X0138008Y0111831D03*
X0080758Y0123481D03*
D50*
X0082983Y0121081D03*
X0082983Y0121031D03*
X0081983Y0119131D03*
X0081933Y0119031D03*
X0081883Y0118931D03*
X0081833Y0118831D03*
X0081683Y0113581D03*
X0081683Y0113531D03*
X0082333Y0111981D03*
X0077433Y0112781D03*
X0077383Y0112831D03*
X0071583Y0111831D03*
X0071583Y0111781D03*
X0071533Y0111931D03*
X0071533Y0111981D03*
X0070883Y0113531D03*
X0070883Y0113581D03*
X0070833Y0113631D03*
X0066283Y0113531D03*
X0090583Y0113731D03*
X0090633Y0113681D03*
X0090683Y0113581D03*
X0091383Y0111931D03*
X0091433Y0111881D03*
X0095283Y0113581D03*
X0095283Y0113631D03*
X0095933Y0111981D03*
X0095983Y0111881D03*
X0099883Y0113581D03*
X0100533Y0111981D03*
X0110183Y0113581D03*
X0110833Y0111981D03*
X0110833Y0111931D03*
X0110883Y0111881D03*
X0110883Y0111831D03*
X0118983Y0114081D03*
X0119033Y0113981D03*
X0119033Y0113931D03*
X0119083Y0113881D03*
X0119083Y0113831D03*
X0119133Y0113731D03*
X0119133Y0113681D03*
X0119183Y0113631D03*
X0119183Y0113581D03*
X0115583Y0118881D03*
X0112183Y0119581D03*
X0112133Y0119631D03*
D51*
X0115933Y0114081D03*
X0115983Y0113981D03*
X0115983Y0113931D03*
X0116033Y0113831D03*
X0116083Y0113731D03*
X0116133Y0113581D03*
X0116183Y0113481D03*
X0116283Y0113231D03*
X0122983Y0111831D03*
X0124383Y0112181D03*
X0124433Y0112081D03*
X0130083Y0112131D03*
X0130133Y0112031D03*
X0133533Y0113881D03*
X0135783Y0112081D03*
X0139233Y0113831D03*
X0139183Y0113931D03*
X0139133Y0114081D03*
X0102033Y0112081D03*
X0101983Y0112231D03*
X0101583Y0113231D03*
X0101533Y0113331D03*
X0101483Y0113431D03*
X0101483Y0113481D03*
X0098433Y0113381D03*
X0094383Y0112031D03*
X0094333Y0112081D03*
X0094333Y0112131D03*
X0094283Y0112181D03*
X0094283Y0112231D03*
X0094233Y0112281D03*
X0094233Y0112331D03*
X0094183Y0112431D03*
X0094133Y0112531D03*
X0094083Y0112681D03*
X0094033Y0112781D03*
X0093983Y0112931D03*
X0093933Y0113031D03*
X0093883Y0113181D03*
X0093833Y0113281D03*
X0093833Y0113331D03*
X0093783Y0113381D03*
X0093783Y0113431D03*
X0093783Y0113481D03*
X0092433Y0113131D03*
X0087683Y0113431D03*
X0087583Y0113681D03*
X0087483Y0113931D03*
X0087433Y0114031D03*
X0085283Y0112231D03*
X0083833Y0112081D03*
X0083833Y0112031D03*
X0083333Y0113331D03*
X0083283Y0113431D03*
X0080733Y0112131D03*
X0080783Y0112031D03*
X0074583Y0112031D03*
X0072483Y0113431D03*
X0067883Y0113381D03*
X0067833Y0113481D03*
X0065283Y0112231D03*
D52*
X0144908Y0123831D03*
X0144958Y0123681D03*
X0145058Y0123431D03*
X0145108Y0123281D03*
X0145158Y0123131D03*
X0145208Y0123031D03*
X0145258Y0122881D03*
X0145308Y0122731D03*
X0145358Y0122631D03*
X0145358Y0122581D03*
X0145408Y0122481D03*
X0145458Y0122331D03*
X0145508Y0122181D03*
X0145558Y0122081D03*
X0145558Y0122031D03*
X0145608Y0121931D03*
X0145658Y0121781D03*
X0145708Y0121681D03*
X0145708Y0121631D03*
X0145758Y0121531D03*
X0145808Y0121381D03*
X0145858Y0121281D03*
X0145858Y0121231D03*
X0145908Y0121131D03*
X0145908Y0121081D03*
X0145958Y0120981D03*
X0146008Y0120881D03*
X0146008Y0120831D03*
X0146058Y0120731D03*
X0146058Y0120681D03*
X0146108Y0120581D03*
X0146108Y0120531D03*
X0146158Y0120431D03*
X0146208Y0120331D03*
X0146208Y0120281D03*
X0146258Y0120181D03*
X0146258Y0120131D03*
X0146308Y0120031D03*
X0146308Y0119981D03*
X0146358Y0119931D03*
X0146358Y0119881D03*
X0146408Y0119781D03*
X0146408Y0119731D03*
X0146458Y0119631D03*
X0146458Y0119581D03*
X0146508Y0119531D03*
X0146508Y0119481D03*
X0146508Y0119431D03*
X0146558Y0119381D03*
X0146558Y0119331D03*
X0146608Y0119231D03*
X0146608Y0119181D03*
X0146658Y0119081D03*
X0146658Y0119031D03*
X0146708Y0118931D03*
X0146708Y0118881D03*
X0146758Y0118831D03*
X0146758Y0118781D03*
X0146808Y0118681D03*
X0146808Y0118631D03*
X0146858Y0118531D03*
X0146858Y0118481D03*
X0146908Y0118381D03*
X0146908Y0118331D03*
X0146958Y0118281D03*
X0146958Y0118231D03*
X0147008Y0118131D03*
X0147008Y0118081D03*
X0147058Y0117981D03*
X0147058Y0117931D03*
X0147108Y0117831D03*
X0147158Y0117731D03*
X0147158Y0117681D03*
X0147208Y0117581D03*
X0147208Y0117531D03*
X0147258Y0117431D03*
X0147258Y0117381D03*
X0147308Y0117281D03*
X0147358Y0117131D03*
X0147408Y0116981D03*
X0147458Y0116881D03*
X0147458Y0116831D03*
X0147508Y0116731D03*
X0147908Y0115531D03*
X0147958Y0115431D03*
X0148008Y0115281D03*
X0148708Y0113381D03*
X0148758Y0113231D03*
X0148808Y0113131D03*
X0148858Y0112981D03*
X0148908Y0112881D03*
X0148908Y0112831D03*
X0148958Y0112731D03*
X0148958Y0112681D03*
X0149008Y0112581D03*
X0149058Y0112431D03*
X0149108Y0112281D03*
X0149158Y0112131D03*
X0149208Y0112031D03*
D53*
X0116983Y0120781D03*
X0111333Y0120681D03*
X0111283Y0120731D03*
X0104933Y0122231D03*
X0083233Y0122131D03*
X0081683Y0117981D03*
X0077933Y0112431D03*
X0064383Y0122231D03*
D54*
X0077008Y0113731D03*
X0077008Y0113681D03*
X0077358Y0112881D03*
X0081908Y0118981D03*
X0081958Y0119081D03*
X0082008Y0119181D03*
X0082058Y0119281D03*
X0082958Y0120931D03*
X0082958Y0120981D03*
X0090658Y0113631D03*
X0095308Y0113531D03*
X0112208Y0119531D03*
X0119008Y0114031D03*
X0119108Y0113781D03*
X0119208Y0113531D03*
D55*
X0115583Y0118931D03*
X0082933Y0120881D03*
X0082883Y0120781D03*
X0082333Y0119781D03*
X0082283Y0119681D03*
X0082233Y0119581D03*
X0082183Y0119531D03*
X0082183Y0119481D03*
X0082133Y0119431D03*
X0082133Y0119381D03*
X0082083Y0119331D03*
X0082033Y0119231D03*
X0077033Y0113631D03*
X0077033Y0113581D03*
X0077283Y0112981D03*
X0077333Y0112931D03*
D56*
X0091258Y0113031D03*
X0111458Y0120531D03*
X0117008Y0120531D03*
X0117008Y0120581D03*
D57*
X0118633Y0119131D03*
X0118733Y0118881D03*
X0118783Y0118731D03*
X0118833Y0118631D03*
X0118833Y0118581D03*
X0118883Y0118481D03*
X0118883Y0118431D03*
X0118933Y0118381D03*
X0118933Y0118331D03*
X0118983Y0118231D03*
X0118983Y0118181D03*
X0119033Y0118131D03*
X0119033Y0118081D03*
X0119033Y0118031D03*
X0119083Y0117981D03*
X0119083Y0117931D03*
X0119133Y0117881D03*
X0119133Y0117831D03*
X0119133Y0117781D03*
X0119183Y0117731D03*
X0119183Y0117681D03*
X0119233Y0117581D03*
X0119233Y0117531D03*
X0119283Y0117481D03*
X0119283Y0117431D03*
X0119283Y0117381D03*
X0119333Y0117331D03*
X0119333Y0117281D03*
X0119383Y0117181D03*
X0119383Y0117131D03*
X0119433Y0117081D03*
X0119433Y0117031D03*
X0119483Y0116931D03*
X0119533Y0116781D03*
X0119583Y0116631D03*
X0116233Y0117031D03*
X0109283Y0123431D03*
X0092133Y0113531D03*
D58*
X0078558Y0113531D03*
X0109208Y0123531D03*
X0109258Y0123481D03*
X0116258Y0116981D03*
X0118958Y0118281D03*
X0118858Y0118531D03*
X0118808Y0118681D03*
X0118758Y0118781D03*
X0118758Y0118831D03*
X0118708Y0118931D03*
X0118708Y0118981D03*
X0118658Y0119031D03*
X0118658Y0119081D03*
X0118608Y0119181D03*
X0118608Y0119231D03*
X0118558Y0119281D03*
X0118558Y0119331D03*
X0118558Y0119381D03*
X0118508Y0119431D03*
X0118508Y0119481D03*
X0118508Y0119531D03*
X0119358Y0117231D03*
X0119458Y0116981D03*
X0119508Y0116881D03*
X0119508Y0116831D03*
X0119558Y0116731D03*
X0119558Y0116681D03*
D59*
X0125883Y0122431D03*
X0125883Y0122481D03*
X0125833Y0122531D03*
X0104983Y0117431D03*
X0102883Y0122831D03*
X0095983Y0116881D03*
X0093433Y0123331D03*
X0064433Y0117431D03*
X0062333Y0122831D03*
X0054433Y0119281D03*
X0054583Y0118931D03*
X0054683Y0118681D03*
X0054833Y0118331D03*
X0055083Y0117731D03*
X0055133Y0117631D03*
X0055233Y0117381D03*
X0055283Y0117281D03*
X0055333Y0117181D03*
X0055383Y0117031D03*
X0055433Y0116931D03*
X0055483Y0116831D03*
X0055533Y0116731D03*
X0055533Y0116681D03*
X0056033Y0115531D03*
X0056033Y0115481D03*
X0056183Y0115131D03*
X0056233Y0115031D03*
X0056283Y0114931D03*
X0056333Y0114781D03*
X0056383Y0114681D03*
X0056433Y0114581D03*
X0056483Y0114481D03*
X0056483Y0114431D03*
X0056533Y0114331D03*
X0056583Y0114231D03*
X0056633Y0114081D03*
X0056683Y0113981D03*
X0054283Y0119631D03*
X0054183Y0119881D03*
X0054033Y0120231D03*
X0053883Y0120581D03*
X0053783Y0120831D03*
X0053733Y0120931D03*
X0053583Y0121281D03*
X0052683Y0123381D03*
X0052533Y0123731D03*
D60*
X0066083Y0114031D03*
X0081683Y0118031D03*
X0081683Y0118081D03*
X0083233Y0121981D03*
X0083233Y0122031D03*
X0099683Y0114031D03*
X0111383Y0120631D03*
X0111433Y0120581D03*
X0115733Y0118381D03*
D61*
X0105208Y0116731D03*
X0105058Y0114081D03*
X0064658Y0116731D03*
D62*
X0102108Y0116181D03*
X0102158Y0116031D03*
X0102208Y0115931D03*
X0102208Y0115881D03*
X0102258Y0115831D03*
X0102258Y0115781D03*
X0102308Y0115681D03*
X0102308Y0115631D03*
X0102358Y0115581D03*
D63*
X0102283Y0115731D03*
X0102183Y0115981D03*
X0102133Y0116081D03*
X0102133Y0116131D03*
X0102083Y0116231D03*
X0102083Y0116281D03*
X0102033Y0116331D03*
X0102033Y0116381D03*
X0101983Y0116481D03*
X0101983Y0116531D03*
D64*
X0101958Y0116581D03*
X0102008Y0116431D03*
D65*
X0101808Y0119281D03*
X0097408Y0117931D03*
X0097408Y0117881D03*
X0097358Y0117981D03*
X0097358Y0118031D03*
X0097308Y0118131D03*
X0097308Y0118181D03*
X0097258Y0118231D03*
X0097258Y0118281D03*
X0097208Y0118331D03*
X0097208Y0118381D03*
X0097208Y0118431D03*
X0097158Y0118481D03*
X0097158Y0118531D03*
X0097108Y0118581D03*
X0097108Y0118631D03*
X0097108Y0118681D03*
X0097058Y0118731D03*
X0097058Y0118781D03*
X0097008Y0118831D03*
X0097008Y0118881D03*
X0096958Y0118981D03*
X0096958Y0119031D03*
X0096908Y0119081D03*
X0096908Y0119131D03*
X0096858Y0119231D03*
X0096858Y0119281D03*
X0096808Y0119331D03*
X0096808Y0119381D03*
X0096758Y0119481D03*
X0096758Y0119531D03*
X0096708Y0119631D03*
X0096708Y0119681D03*
X0096658Y0119731D03*
X0096658Y0119781D03*
X0096658Y0119831D03*
X0096608Y0119881D03*
X0096608Y0119931D03*
X0096558Y0119981D03*
X0096558Y0120031D03*
X0096558Y0120081D03*
X0096508Y0120181D03*
X0096508Y0120231D03*
X0096458Y0120331D03*
X0096408Y0120481D03*
X0096308Y0120731D03*
X0096208Y0120981D03*
X0096158Y0121081D03*
X0096158Y0121131D03*
X0096108Y0121231D03*
X0096058Y0121331D03*
X0096008Y0121431D03*
X0096008Y0121481D03*
X0095958Y0121581D03*
X0095908Y0121681D03*
X0095858Y0121781D03*
X0095858Y0121831D03*
X0095808Y0121931D03*
X0095758Y0122031D03*
X0095708Y0122131D03*
X0095708Y0122181D03*
X0095658Y0122281D03*
X0095608Y0122381D03*
X0091208Y0121881D03*
X0091158Y0122131D03*
X0091158Y0122181D03*
X0091158Y0122231D03*
X0091158Y0122281D03*
X0091158Y0122331D03*
X0092158Y0119181D03*
X0092208Y0119081D03*
X0092258Y0118981D03*
X0092308Y0118881D03*
X0092358Y0118781D03*
X0092408Y0118731D03*
X0092408Y0118681D03*
X0092458Y0118631D03*
X0092508Y0118531D03*
X0092558Y0118481D03*
X0092608Y0118381D03*
X0092658Y0118331D03*
X0092758Y0118181D03*
X0092808Y0118131D03*
X0106708Y0119031D03*
X0106708Y0119081D03*
X0106708Y0119131D03*
X0106758Y0118981D03*
X0106758Y0118931D03*
X0106758Y0118881D03*
X0106758Y0118831D03*
X0106808Y0118681D03*
X0106808Y0118631D03*
X0106858Y0118181D03*
X0106858Y0118131D03*
X0106858Y0118081D03*
X0106858Y0118031D03*
X0106858Y0117981D03*
X0111558Y0119381D03*
X0112208Y0117681D03*
X0112258Y0117531D03*
X0112308Y0117431D03*
X0112308Y0117381D03*
X0112358Y0117281D03*
X0112358Y0117231D03*
X0112408Y0117181D03*
X0112408Y0117131D03*
X0112458Y0117031D03*
X0112458Y0116981D03*
X0112508Y0116931D03*
X0112508Y0116881D03*
X0112558Y0116831D03*
X0112558Y0116781D03*
X0112558Y0116731D03*
X0112608Y0116681D03*
X0112608Y0116631D03*
X0115908Y0117931D03*
X0116958Y0121481D03*
X0116958Y0121531D03*
X0116958Y0121581D03*
X0128058Y0121981D03*
X0128108Y0121931D03*
X0128208Y0121781D03*
X0133008Y0122481D03*
X0133108Y0122231D03*
X0133158Y0122131D03*
X0133158Y0122081D03*
X0133208Y0121981D03*
X0133258Y0121881D03*
X0133258Y0121831D03*
X0133308Y0121731D03*
X0133358Y0121631D03*
X0133358Y0121581D03*
X0133408Y0121531D03*
X0133408Y0121481D03*
X0133408Y0121431D03*
X0133458Y0121381D03*
X0133458Y0121331D03*
X0133508Y0121281D03*
X0133508Y0121231D03*
X0133508Y0121181D03*
X0133558Y0121131D03*
X0133558Y0121081D03*
X0134058Y0119831D03*
X0134058Y0119781D03*
X0134108Y0119731D03*
X0134108Y0119681D03*
X0134108Y0119631D03*
X0134158Y0119581D03*
X0134158Y0119531D03*
X0134208Y0119481D03*
X0134208Y0119431D03*
X0134208Y0119381D03*
X0134258Y0119331D03*
X0134258Y0119281D03*
X0134308Y0119181D03*
X0134308Y0119131D03*
X0134358Y0119081D03*
X0134358Y0119031D03*
X0134408Y0118931D03*
X0134408Y0118881D03*
X0134458Y0118831D03*
X0134458Y0118781D03*
X0134508Y0118681D03*
X0134508Y0118631D03*
X0134558Y0118531D03*
X0134558Y0118481D03*
X0134608Y0118431D03*
X0134608Y0118381D03*
X0134658Y0118281D03*
X0134658Y0118231D03*
X0134708Y0118181D03*
X0134708Y0118131D03*
X0134758Y0118031D03*
X0134758Y0117981D03*
X0134808Y0117931D03*
X0134808Y0117881D03*
X0134858Y0117781D03*
X0134858Y0117731D03*
X0134908Y0117681D03*
X0134908Y0117631D03*
X0134908Y0117581D03*
X0134958Y0117531D03*
X0134958Y0117481D03*
X0135008Y0117431D03*
X0135008Y0117381D03*
X0135008Y0117331D03*
X0135058Y0117281D03*
X0135058Y0117231D03*
X0135108Y0117181D03*
X0135108Y0117131D03*
X0135108Y0117081D03*
X0135158Y0117031D03*
X0135158Y0116981D03*
X0135208Y0116931D03*
X0135208Y0116881D03*
X0135208Y0116831D03*
X0135258Y0116781D03*
X0135258Y0116731D03*
X0135308Y0116681D03*
X0135308Y0116631D03*
X0139408Y0118231D03*
X0139358Y0118381D03*
X0139258Y0118631D03*
X0139508Y0117981D03*
X0139558Y0117831D03*
X0139608Y0117731D03*
X0139608Y0117681D03*
X0139658Y0117581D03*
X0139708Y0117481D03*
X0139708Y0117431D03*
X0139758Y0117331D03*
X0139758Y0117281D03*
X0139808Y0117231D03*
X0139808Y0117181D03*
X0139858Y0117131D03*
X0139858Y0117081D03*
X0139908Y0116981D03*
X0139958Y0116881D03*
X0139958Y0116831D03*
X0139958Y0116781D03*
X0140008Y0116631D03*
X0138758Y0119831D03*
X0129508Y0118081D03*
X0129508Y0118031D03*
X0129508Y0117981D03*
X0076708Y0116831D03*
X0076658Y0116931D03*
X0076558Y0117181D03*
X0076508Y0117281D03*
X0076508Y0117331D03*
X0076458Y0117381D03*
X0076458Y0117431D03*
X0076408Y0117531D03*
X0076408Y0117581D03*
X0076358Y0117681D03*
X0076308Y0117781D03*
X0076308Y0117831D03*
X0076258Y0117931D03*
X0076208Y0118081D03*
X0076158Y0118181D03*
X0076108Y0118331D03*
X0076058Y0118431D03*
X0076008Y0118581D03*
X0075958Y0118681D03*
X0075908Y0118831D03*
X0075858Y0118931D03*
X0075858Y0118981D03*
X0075808Y0119081D03*
X0075758Y0119181D03*
X0075758Y0119231D03*
X0075708Y0119331D03*
X0075658Y0119431D03*
X0075658Y0119481D03*
X0075608Y0119531D03*
X0075608Y0119581D03*
X0075558Y0119631D03*
X0075558Y0119681D03*
X0075508Y0119781D03*
X0075008Y0121081D03*
X0075008Y0121131D03*
X0074958Y0121281D03*
X0074858Y0121531D03*
X0074758Y0121781D03*
X0074558Y0122281D03*
X0074458Y0122531D03*
X0074408Y0122681D03*
X0070258Y0121331D03*
X0070258Y0121281D03*
X0070258Y0121231D03*
X0070308Y0121181D03*
X0070308Y0121131D03*
X0070208Y0121381D03*
X0070208Y0121431D03*
X0070158Y0121481D03*
X0070158Y0121531D03*
X0070108Y0121631D03*
X0070108Y0121681D03*
X0070058Y0121781D03*
X0070008Y0121881D03*
X0069958Y0122031D03*
X0071058Y0119131D03*
X0071108Y0119031D03*
X0071158Y0118881D03*
X0071208Y0118781D03*
X0071208Y0118731D03*
X0071258Y0118631D03*
X0071258Y0118581D03*
X0071308Y0118481D03*
X0071308Y0118431D03*
X0071358Y0118381D03*
X0071358Y0118331D03*
X0071408Y0118231D03*
X0071408Y0118181D03*
X0071458Y0118081D03*
X0071508Y0117981D03*
X0071508Y0117931D03*
X0071558Y0117831D03*
X0071608Y0117681D03*
X0072008Y0116731D03*
X0066308Y0117981D03*
X0066308Y0118031D03*
X0066308Y0118081D03*
X0066308Y0118131D03*
X0066308Y0118181D03*
X0066258Y0118631D03*
X0066258Y0118681D03*
X0066208Y0118831D03*
X0066208Y0118881D03*
X0066208Y0118931D03*
X0066208Y0118981D03*
X0066158Y0119031D03*
X0066158Y0119081D03*
X0066158Y0119131D03*
X0061258Y0119281D03*
D66*
X0080858Y0123431D03*
X0084158Y0116781D03*
X0127608Y0116681D03*
X0127608Y0116631D03*
D67*
X0116358Y0116631D03*
X0116358Y0116681D03*
D68*
X0125483Y0123031D03*
X0127733Y0117331D03*
X0105033Y0117281D03*
X0102783Y0123031D03*
X0096233Y0116681D03*
X0096233Y0116631D03*
X0083483Y0117381D03*
X0064483Y0117281D03*
X0062233Y0123031D03*
D69*
X0066233Y0118781D03*
X0066233Y0118731D03*
X0066283Y0118581D03*
X0066283Y0118531D03*
X0066283Y0118481D03*
X0066283Y0118431D03*
X0066283Y0118381D03*
X0066283Y0118331D03*
X0066283Y0118281D03*
X0066283Y0118231D03*
X0070833Y0119681D03*
X0070883Y0119581D03*
X0070883Y0119531D03*
X0070933Y0119481D03*
X0070933Y0119431D03*
X0070983Y0119331D03*
X0070983Y0119281D03*
X0071033Y0119231D03*
X0071033Y0119181D03*
X0071083Y0119081D03*
X0071133Y0118981D03*
X0071133Y0118931D03*
X0071183Y0118831D03*
X0071233Y0118681D03*
X0071283Y0118531D03*
X0071383Y0118281D03*
X0071433Y0118131D03*
X0071483Y0118031D03*
X0071533Y0117881D03*
X0071583Y0117781D03*
X0071583Y0117731D03*
X0071633Y0117631D03*
X0071633Y0117581D03*
X0071683Y0117531D03*
X0071683Y0117481D03*
X0071733Y0117381D03*
X0071733Y0117331D03*
X0071783Y0117281D03*
X0071783Y0117231D03*
X0071833Y0117181D03*
X0071833Y0117131D03*
X0071883Y0117031D03*
X0071883Y0116981D03*
X0071933Y0116931D03*
X0071933Y0116881D03*
X0071983Y0116831D03*
X0071983Y0116781D03*
X0072033Y0116681D03*
X0072033Y0116631D03*
X0076133Y0118231D03*
X0076133Y0118281D03*
X0076083Y0118381D03*
X0076033Y0118481D03*
X0076033Y0118531D03*
X0075983Y0118631D03*
X0075933Y0118731D03*
X0075933Y0118781D03*
X0075883Y0118881D03*
X0075833Y0119031D03*
X0075783Y0119131D03*
X0075733Y0119281D03*
X0075683Y0119381D03*
X0076183Y0118131D03*
X0076233Y0118031D03*
X0076233Y0117981D03*
X0076283Y0117881D03*
X0076333Y0117731D03*
X0076383Y0117631D03*
X0076433Y0117481D03*
X0076533Y0117231D03*
X0076583Y0117131D03*
X0076583Y0117081D03*
X0076633Y0117031D03*
X0076633Y0116981D03*
X0076683Y0116881D03*
X0076733Y0116781D03*
X0076733Y0116731D03*
X0076783Y0116681D03*
X0076783Y0116631D03*
X0074983Y0121181D03*
X0074983Y0121231D03*
X0074933Y0121331D03*
X0074933Y0121381D03*
X0074883Y0121431D03*
X0074883Y0121481D03*
X0074833Y0121581D03*
X0074833Y0121631D03*
X0074783Y0121681D03*
X0074783Y0121731D03*
X0074733Y0121831D03*
X0074733Y0121881D03*
X0074683Y0121931D03*
X0074683Y0121981D03*
X0074683Y0122031D03*
X0074633Y0122081D03*
X0074633Y0122131D03*
X0074583Y0122181D03*
X0074583Y0122231D03*
X0074533Y0122331D03*
X0074533Y0122381D03*
X0074483Y0122431D03*
X0074483Y0122481D03*
X0074433Y0122581D03*
X0074433Y0122631D03*
X0074383Y0122731D03*
X0074383Y0122781D03*
X0074333Y0122831D03*
X0074333Y0122881D03*
X0074283Y0122931D03*
X0074283Y0122981D03*
X0074283Y0123031D03*
X0074233Y0123081D03*
X0074233Y0123131D03*
X0074233Y0123181D03*
X0074183Y0123231D03*
X0074183Y0123281D03*
X0074133Y0123331D03*
X0074133Y0123381D03*
X0074133Y0123431D03*
X0074083Y0123481D03*
X0074083Y0123531D03*
X0074033Y0123581D03*
X0069933Y0122131D03*
X0069933Y0122081D03*
X0069983Y0121981D03*
X0069983Y0121931D03*
X0070033Y0121831D03*
X0070083Y0121731D03*
X0070133Y0121581D03*
X0069883Y0122181D03*
X0069883Y0122231D03*
X0069833Y0122281D03*
X0069833Y0122331D03*
X0069833Y0122381D03*
X0069783Y0122431D03*
X0069783Y0122481D03*
X0069733Y0122581D03*
X0069733Y0122631D03*
X0069683Y0122681D03*
X0069683Y0122731D03*
X0069633Y0122831D03*
X0069633Y0122881D03*
X0069583Y0122931D03*
X0069583Y0122981D03*
X0069533Y0123081D03*
X0069533Y0123131D03*
X0069483Y0123231D03*
X0069433Y0123331D03*
X0069433Y0123381D03*
X0069383Y0123481D03*
X0070783Y0119831D03*
X0096733Y0119581D03*
X0096783Y0119431D03*
X0096883Y0119181D03*
X0096983Y0118931D03*
X0106783Y0118781D03*
X0106783Y0118731D03*
X0106833Y0118581D03*
X0106833Y0118531D03*
X0106833Y0118481D03*
X0106833Y0118431D03*
X0106833Y0118381D03*
X0106833Y0118331D03*
X0106833Y0118281D03*
X0106833Y0118231D03*
X0111583Y0119231D03*
X0111583Y0119281D03*
X0111583Y0119331D03*
X0111633Y0119181D03*
X0111633Y0119131D03*
X0111683Y0119081D03*
X0111683Y0119031D03*
X0111733Y0118931D03*
X0111733Y0118881D03*
X0111783Y0118831D03*
X0111783Y0118781D03*
X0111833Y0118681D03*
X0111883Y0118581D03*
X0111883Y0118531D03*
X0111933Y0118431D03*
X0111983Y0118281D03*
X0112033Y0118181D03*
X0112033Y0118131D03*
X0112083Y0118031D03*
X0112083Y0117981D03*
X0112133Y0117931D03*
X0112133Y0117881D03*
X0112133Y0117831D03*
X0112183Y0117781D03*
X0112183Y0117731D03*
X0112233Y0117631D03*
X0112233Y0117581D03*
X0112283Y0117481D03*
X0112333Y0117331D03*
X0112433Y0117081D03*
X0110683Y0121531D03*
X0116933Y0121631D03*
X0132583Y0123581D03*
X0132633Y0123431D03*
X0132683Y0123331D03*
X0132733Y0123181D03*
X0132783Y0123081D03*
X0132783Y0123031D03*
X0132833Y0122931D03*
X0132883Y0122831D03*
X0132883Y0122781D03*
X0132933Y0122731D03*
X0132933Y0122681D03*
X0132933Y0122631D03*
X0132983Y0122581D03*
X0132983Y0122531D03*
X0133033Y0122431D03*
X0133033Y0122381D03*
X0133083Y0122331D03*
X0133083Y0122281D03*
X0133133Y0122181D03*
X0133183Y0122031D03*
X0133233Y0121931D03*
X0133283Y0121781D03*
X0133333Y0121681D03*
X0134283Y0119231D03*
X0134383Y0118981D03*
X0134483Y0118731D03*
X0134533Y0118581D03*
X0134633Y0118331D03*
X0134733Y0118081D03*
X0134833Y0117831D03*
X0138883Y0119531D03*
X0138883Y0119581D03*
X0138933Y0119481D03*
X0138933Y0119431D03*
X0138983Y0119331D03*
X0139033Y0119181D03*
X0139083Y0119081D03*
X0139133Y0118981D03*
X0139133Y0118931D03*
X0139183Y0118831D03*
X0139183Y0118781D03*
X0139233Y0118731D03*
X0139233Y0118681D03*
X0139283Y0118581D03*
X0139283Y0118531D03*
X0139333Y0118481D03*
X0139333Y0118431D03*
X0139383Y0118331D03*
X0139383Y0118281D03*
X0139433Y0118181D03*
X0139433Y0118131D03*
X0139483Y0118081D03*
X0139483Y0118031D03*
X0139533Y0117931D03*
X0139533Y0117881D03*
X0139583Y0117781D03*
X0139633Y0117631D03*
X0139683Y0117531D03*
X0139733Y0117381D03*
X0139983Y0116731D03*
X0139983Y0116681D03*
X0138833Y0119681D03*
X0138833Y0119731D03*
X0138283Y0121081D03*
X0138283Y0121131D03*
X0138283Y0121181D03*
X0138233Y0121231D03*
X0138233Y0121281D03*
X0138183Y0121331D03*
X0138183Y0121381D03*
X0138133Y0121481D03*
X0138133Y0121531D03*
X0138083Y0121581D03*
X0138083Y0121631D03*
X0138033Y0121731D03*
X0138033Y0121781D03*
X0137983Y0121831D03*
X0137983Y0121881D03*
X0137933Y0121981D03*
X0137933Y0122031D03*
X0137883Y0122131D03*
X0137833Y0122281D03*
X0137783Y0122381D03*
X0137733Y0122531D03*
X0137683Y0122631D03*
X0137633Y0122781D03*
X0137433Y0123281D03*
X0137383Y0123381D03*
X0137383Y0123431D03*
X0137333Y0123481D03*
X0137333Y0123531D03*
X0137283Y0123581D03*
D70*
X0102558Y0123481D03*
X0084358Y0116681D03*
X0062008Y0123481D03*
D71*
X0064608Y0116931D03*
X0080908Y0123381D03*
X0084058Y0116831D03*
X0105158Y0116931D03*
X0127608Y0116731D03*
D72*
X0116358Y0116731D03*
D73*
X0125508Y0122981D03*
X0125558Y0122931D03*
X0127758Y0117381D03*
X0102808Y0122981D03*
X0096158Y0116731D03*
X0083458Y0117431D03*
X0083408Y0117481D03*
X0062258Y0122981D03*
D74*
X0062083Y0123331D03*
X0080983Y0123331D03*
X0102633Y0123331D03*
X0127633Y0116781D03*
D75*
X0116333Y0116781D03*
D76*
X0105133Y0116981D03*
X0083983Y0116881D03*
X0081083Y0123231D03*
X0081033Y0123281D03*
X0064583Y0116981D03*
X0127683Y0116831D03*
D77*
X0127683Y0116881D03*
X0125083Y0123381D03*
X0105133Y0117031D03*
X0083883Y0116931D03*
X0081133Y0123181D03*
X0064583Y0117031D03*
D78*
X0066283Y0117881D03*
X0066283Y0117931D03*
X0066133Y0119181D03*
X0066133Y0119231D03*
X0066083Y0119281D03*
X0066083Y0119331D03*
X0066083Y0119381D03*
X0066033Y0119481D03*
X0066033Y0119531D03*
X0065983Y0119631D03*
X0065933Y0119781D03*
X0065783Y0120181D03*
X0065733Y0120331D03*
X0065683Y0120431D03*
X0065683Y0120481D03*
X0065633Y0120581D03*
X0061833Y0118331D03*
X0061733Y0118481D03*
X0061683Y0118581D03*
X0061633Y0118631D03*
X0061583Y0118731D03*
X0061533Y0118781D03*
X0061533Y0118831D03*
X0061483Y0118881D03*
X0061433Y0118981D03*
X0061383Y0119081D03*
X0061333Y0119181D03*
X0061233Y0119331D03*
X0061233Y0119381D03*
X0061183Y0119431D03*
X0061183Y0119481D03*
X0061133Y0119531D03*
X0061133Y0119581D03*
X0061083Y0119681D03*
X0060633Y0120881D03*
X0060583Y0121031D03*
X0060583Y0121081D03*
X0060533Y0121231D03*
X0060483Y0121431D03*
X0070333Y0121081D03*
X0075483Y0119831D03*
X0075533Y0119731D03*
X0091183Y0121931D03*
X0091183Y0121981D03*
X0091183Y0122031D03*
X0091183Y0122081D03*
X0091233Y0121831D03*
X0091233Y0121781D03*
X0091233Y0121731D03*
X0091283Y0121531D03*
X0091183Y0122381D03*
X0091883Y0119731D03*
X0091933Y0119631D03*
X0091983Y0119531D03*
X0091983Y0119481D03*
X0092033Y0119431D03*
X0092033Y0119381D03*
X0092083Y0119331D03*
X0092083Y0119281D03*
X0092133Y0119231D03*
X0092183Y0119131D03*
X0092233Y0119031D03*
X0092283Y0118931D03*
X0092333Y0118831D03*
X0092483Y0118581D03*
X0092583Y0118431D03*
X0092683Y0118281D03*
X0092733Y0118231D03*
X0092833Y0118081D03*
X0092883Y0118031D03*
X0092933Y0117981D03*
X0096533Y0120131D03*
X0096483Y0120281D03*
X0096433Y0120381D03*
X0096433Y0120431D03*
X0096383Y0120531D03*
X0096383Y0120581D03*
X0096333Y0120631D03*
X0096333Y0120681D03*
X0096283Y0120781D03*
X0096283Y0120831D03*
X0096233Y0120881D03*
X0096233Y0120931D03*
X0096183Y0121031D03*
X0096133Y0121181D03*
X0096083Y0121281D03*
X0096033Y0121381D03*
X0095983Y0121531D03*
X0095933Y0121631D03*
X0095883Y0121731D03*
X0095833Y0121881D03*
X0095783Y0121981D03*
X0095733Y0122081D03*
X0095683Y0122231D03*
X0095633Y0122331D03*
X0097333Y0118081D03*
X0097433Y0117831D03*
X0097433Y0117781D03*
X0101683Y0119531D03*
X0101683Y0119581D03*
X0101733Y0119481D03*
X0101733Y0119431D03*
X0101783Y0119381D03*
X0101783Y0119331D03*
X0101883Y0119181D03*
X0101933Y0119081D03*
X0101983Y0118981D03*
X0102033Y0118881D03*
X0102083Y0118831D03*
X0102083Y0118781D03*
X0102133Y0118731D03*
X0102183Y0118631D03*
X0102233Y0118581D03*
X0102283Y0118481D03*
X0102383Y0118331D03*
X0101633Y0119681D03*
X0101183Y0120881D03*
X0101133Y0121031D03*
X0101133Y0121081D03*
X0101083Y0121231D03*
X0101033Y0121431D03*
X0106183Y0120581D03*
X0106233Y0120481D03*
X0106233Y0120431D03*
X0106283Y0120331D03*
X0106333Y0120181D03*
X0106483Y0119781D03*
X0106533Y0119631D03*
X0106583Y0119531D03*
X0106583Y0119481D03*
X0106633Y0119381D03*
X0106633Y0119331D03*
X0106633Y0119281D03*
X0106683Y0119231D03*
X0106683Y0119181D03*
X0106833Y0117931D03*
X0106833Y0117881D03*
X0110733Y0121481D03*
X0110783Y0121431D03*
X0116283Y0119031D03*
X0115883Y0117981D03*
X0127883Y0122181D03*
X0127933Y0122131D03*
X0127983Y0122081D03*
X0128033Y0122031D03*
X0128133Y0121881D03*
X0128183Y0121831D03*
X0128233Y0121731D03*
X0128283Y0121681D03*
X0128283Y0121631D03*
X0128333Y0121581D03*
X0128333Y0121531D03*
X0128383Y0121481D03*
X0128433Y0121381D03*
X0128483Y0121281D03*
X0129383Y0118931D03*
X0129433Y0118731D03*
X0129433Y0118681D03*
X0129433Y0118631D03*
X0129483Y0118431D03*
X0129483Y0118381D03*
X0129483Y0118331D03*
X0129483Y0118281D03*
X0129483Y0118231D03*
X0129483Y0118181D03*
X0129483Y0118131D03*
X0139883Y0117031D03*
X0139933Y0116931D03*
D79*
X0127708Y0116931D03*
X0081158Y0123131D03*
D80*
X0093408Y0123281D03*
X0095958Y0116931D03*
X0102908Y0122731D03*
X0102908Y0122781D03*
X0104958Y0117481D03*
X0064408Y0117481D03*
X0062358Y0122731D03*
X0062358Y0122781D03*
X0042158Y0121931D03*
X0042108Y0122031D03*
X0042058Y0122131D03*
X0042008Y0122231D03*
X0041958Y0122381D03*
D81*
X0062108Y0123231D03*
X0064558Y0117081D03*
X0081258Y0123031D03*
X0102658Y0123231D03*
X0105108Y0117081D03*
X0125158Y0123331D03*
X0127708Y0116981D03*
D82*
X0104908Y0117581D03*
X0102908Y0122681D03*
X0095908Y0116981D03*
X0093408Y0123181D03*
X0093408Y0123231D03*
X0064358Y0117581D03*
X0062358Y0122681D03*
X0042458Y0121431D03*
X0042408Y0121531D03*
X0042358Y0121581D03*
X0042308Y0121681D03*
X0041858Y0122681D03*
X0041808Y0122831D03*
X0041808Y0122881D03*
X0041808Y0122931D03*
D83*
X0081233Y0123081D03*
X0083833Y0116981D03*
X0093683Y0123631D03*
D84*
X0083783Y0117031D03*
X0081333Y0122981D03*
X0125233Y0123281D03*
X0127733Y0117031D03*
D85*
X0104883Y0117631D03*
X0102933Y0122631D03*
X0095833Y0117031D03*
X0064333Y0117631D03*
X0062383Y0122631D03*
X0047483Y0117731D03*
X0042583Y0121281D03*
X0042533Y0121331D03*
X0042483Y0121381D03*
X0042433Y0121481D03*
X0041783Y0122981D03*
X0041783Y0123031D03*
X0041783Y0123081D03*
D86*
X0062183Y0123131D03*
X0081433Y0122831D03*
X0083683Y0117131D03*
X0102733Y0123131D03*
X0125283Y0123231D03*
X0125333Y0123181D03*
X0127733Y0117131D03*
X0127733Y0117081D03*
D87*
X0116233Y0117081D03*
X0116833Y0123531D03*
X0109383Y0123281D03*
D88*
X0102958Y0122581D03*
X0095808Y0117081D03*
X0095758Y0117131D03*
X0093408Y0123081D03*
X0093408Y0123131D03*
X0062408Y0122581D03*
X0042658Y0121181D03*
X0042608Y0121231D03*
X0041758Y0123131D03*
X0041758Y0123181D03*
X0041758Y0123231D03*
X0041758Y0123281D03*
D89*
X0062158Y0123181D03*
X0064558Y0117131D03*
X0081358Y0122931D03*
X0081408Y0122881D03*
X0083708Y0117081D03*
X0102708Y0123181D03*
X0105108Y0117131D03*
D90*
X0111708Y0118981D03*
X0111808Y0118731D03*
X0111858Y0118631D03*
X0111908Y0118481D03*
X0111958Y0118381D03*
X0111958Y0118331D03*
X0112008Y0118231D03*
X0112058Y0118081D03*
X0115908Y0117881D03*
X0116958Y0121681D03*
X0110658Y0121581D03*
X0110608Y0121631D03*
X0132608Y0123481D03*
X0132608Y0123531D03*
X0132658Y0123381D03*
X0132708Y0123281D03*
X0132708Y0123231D03*
X0132758Y0123131D03*
X0132808Y0122981D03*
X0132858Y0122881D03*
X0137408Y0123331D03*
X0137458Y0123231D03*
X0137458Y0123181D03*
X0137508Y0123131D03*
X0137508Y0123081D03*
X0137508Y0123031D03*
X0137558Y0122981D03*
X0137558Y0122931D03*
X0137608Y0122881D03*
X0137608Y0122831D03*
X0137658Y0122731D03*
X0137658Y0122681D03*
X0137708Y0122581D03*
X0137758Y0122481D03*
X0137758Y0122431D03*
X0137808Y0122331D03*
X0137858Y0122231D03*
X0137858Y0122181D03*
X0137908Y0122081D03*
X0137958Y0121931D03*
X0138058Y0121681D03*
X0138158Y0121431D03*
X0138808Y0119781D03*
X0138858Y0119631D03*
X0138958Y0119381D03*
X0139008Y0119281D03*
X0139008Y0119231D03*
X0139058Y0119131D03*
X0139108Y0119031D03*
X0139158Y0118881D03*
X0071858Y0117081D03*
X0071708Y0117431D03*
X0070958Y0119381D03*
X0070858Y0119631D03*
X0070808Y0119731D03*
X0070808Y0119781D03*
X0069758Y0122531D03*
X0069658Y0122781D03*
X0069558Y0123031D03*
X0069508Y0123181D03*
X0069458Y0123281D03*
X0069408Y0123431D03*
X0069358Y0123531D03*
X0069358Y0123581D03*
D91*
X0109408Y0123231D03*
X0109458Y0123181D03*
X0116858Y0123431D03*
X0116858Y0123481D03*
X0116208Y0117131D03*
D92*
X0105058Y0117181D03*
X0093558Y0123581D03*
X0081508Y0122731D03*
X0081458Y0122781D03*
X0064508Y0117181D03*
X0127758Y0117181D03*
D93*
X0116183Y0117181D03*
X0114133Y0119031D03*
X0113983Y0119131D03*
X0113933Y0119181D03*
X0116833Y0123381D03*
X0109483Y0123131D03*
D94*
X0102958Y0122531D03*
X0104858Y0117731D03*
X0095708Y0117181D03*
X0093408Y0122981D03*
X0064308Y0117731D03*
X0062408Y0122531D03*
X0042808Y0121031D03*
X0042758Y0121081D03*
X0041758Y0123331D03*
X0041758Y0123381D03*
X0041758Y0123431D03*
D95*
X0062233Y0123081D03*
X0081533Y0122681D03*
X0081583Y0122631D03*
X0083583Y0117231D03*
X0083633Y0117181D03*
X0102783Y0123081D03*
X0125383Y0123131D03*
X0127733Y0117231D03*
D96*
X0116158Y0117231D03*
X0116858Y0123081D03*
X0116858Y0123131D03*
X0116858Y0123181D03*
X0109658Y0122931D03*
X0109608Y0122981D03*
D97*
X0105058Y0117231D03*
X0093508Y0123531D03*
X0083558Y0117281D03*
X0083508Y0117331D03*
X0081708Y0122431D03*
X0081658Y0122481D03*
X0081658Y0122531D03*
X0081608Y0122581D03*
X0064508Y0117231D03*
X0125408Y0123081D03*
X0127758Y0117281D03*
D98*
X0102983Y0122481D03*
X0095683Y0117231D03*
X0095633Y0117281D03*
X0093383Y0122931D03*
X0062433Y0122481D03*
X0041783Y0123481D03*
X0041783Y0123531D03*
D99*
X0109683Y0122881D03*
X0116133Y0117281D03*
D100*
X0116133Y0117331D03*
X0116883Y0122881D03*
X0109783Y0122731D03*
D101*
X0095583Y0117331D03*
X0095533Y0117381D03*
X0093383Y0122781D03*
X0093383Y0122831D03*
X0042933Y0120931D03*
X0041783Y0123581D03*
X0041783Y0123631D03*
D102*
X0116108Y0117381D03*
X0116858Y0122781D03*
X0116858Y0122831D03*
D103*
X0116858Y0122681D03*
X0116108Y0117431D03*
X0109958Y0122531D03*
X0109908Y0122581D03*
D104*
X0103008Y0122381D03*
X0095508Y0117431D03*
X0093408Y0122731D03*
X0062458Y0122381D03*
X0043008Y0120881D03*
X0041808Y0123681D03*
D105*
X0109983Y0122481D03*
X0116883Y0122581D03*
X0116883Y0122631D03*
X0116083Y0117481D03*
D106*
X0103033Y0122281D03*
X0103033Y0122331D03*
X0095483Y0117481D03*
X0095433Y0117531D03*
X0093383Y0122681D03*
X0062483Y0122331D03*
X0062483Y0122281D03*
X0041833Y0123731D03*
D107*
X0110083Y0122331D03*
X0116883Y0122431D03*
X0116883Y0122481D03*
X0116033Y0117531D03*
D108*
X0104933Y0117531D03*
X0064383Y0117531D03*
X0042333Y0121631D03*
X0042283Y0121731D03*
X0042233Y0121781D03*
X0042233Y0121831D03*
X0042183Y0121881D03*
X0042133Y0121981D03*
X0042083Y0122081D03*
X0042033Y0122181D03*
X0041983Y0122281D03*
X0041983Y0122331D03*
X0041933Y0122431D03*
X0041933Y0122481D03*
X0041883Y0122531D03*
X0041883Y0122581D03*
X0041883Y0122631D03*
X0041833Y0122731D03*
X0041833Y0122781D03*
D109*
X0110133Y0122281D03*
X0110183Y0122231D03*
X0116883Y0122331D03*
X0116033Y0117581D03*
D110*
X0095408Y0117581D03*
X0095358Y0117631D03*
X0093408Y0122631D03*
X0047358Y0117781D03*
D111*
X0109308Y0123381D03*
X0109358Y0123331D03*
X0116858Y0123581D03*
X0116858Y0123631D03*
X0119208Y0117631D03*
D112*
X0116008Y0117631D03*
X0116908Y0122181D03*
X0116908Y0122231D03*
X0116908Y0122281D03*
X0110258Y0122131D03*
X0110208Y0122181D03*
D113*
X0110308Y0122031D03*
X0110358Y0121981D03*
X0116908Y0122081D03*
X0116908Y0122131D03*
X0116008Y0117681D03*
D114*
X0104883Y0117681D03*
X0093383Y0123031D03*
X0064333Y0117681D03*
X0042733Y0121131D03*
D115*
X0043083Y0120831D03*
X0041883Y0123781D03*
X0093383Y0122581D03*
X0093383Y0122531D03*
X0095283Y0117731D03*
X0095333Y0117681D03*
D116*
X0110383Y0121931D03*
X0116933Y0122031D03*
X0115983Y0117731D03*
D117*
X0115958Y0117781D03*
X0116908Y0121981D03*
D118*
X0116958Y0121431D03*
X0116958Y0121381D03*
X0116408Y0119381D03*
X0116358Y0119281D03*
X0116358Y0119231D03*
X0116308Y0119131D03*
X0116308Y0119081D03*
X0115858Y0118031D03*
X0110858Y0121331D03*
X0110808Y0121381D03*
X0106458Y0119881D03*
X0106458Y0119831D03*
X0106508Y0119731D03*
X0106508Y0119681D03*
X0106558Y0119581D03*
X0106608Y0119431D03*
X0106408Y0119931D03*
X0106408Y0119981D03*
X0106408Y0120031D03*
X0106358Y0120081D03*
X0106358Y0120131D03*
X0106308Y0120231D03*
X0106308Y0120281D03*
X0106258Y0120381D03*
X0106208Y0120531D03*
X0106108Y0120681D03*
X0106058Y0120781D03*
X0106058Y0120831D03*
X0106008Y0120881D03*
X0106008Y0120931D03*
X0105958Y0120981D03*
X0105958Y0121031D03*
X0105908Y0121081D03*
X0105908Y0121131D03*
X0105858Y0121181D03*
X0105858Y0121231D03*
X0105808Y0121281D03*
X0105758Y0121331D03*
X0105758Y0121381D03*
X0105708Y0121431D03*
X0105658Y0121531D03*
X0105608Y0121581D03*
X0105558Y0121681D03*
X0105508Y0121731D03*
X0101558Y0119931D03*
X0101558Y0119881D03*
X0101558Y0119831D03*
X0101608Y0119781D03*
X0101608Y0119731D03*
X0101658Y0119631D03*
X0101508Y0119981D03*
X0101508Y0120031D03*
X0101458Y0120131D03*
X0101408Y0120231D03*
X0101408Y0120281D03*
X0101358Y0120381D03*
X0101358Y0120431D03*
X0101308Y0120481D03*
X0101308Y0120531D03*
X0101308Y0120581D03*
X0101258Y0120631D03*
X0101258Y0120681D03*
X0101258Y0120731D03*
X0101208Y0120781D03*
X0101208Y0120831D03*
X0101158Y0120931D03*
X0101158Y0120981D03*
X0101108Y0121131D03*
X0101108Y0121181D03*
X0101058Y0121281D03*
X0101058Y0121331D03*
X0101058Y0121381D03*
X0101008Y0121481D03*
X0101008Y0121531D03*
X0101008Y0121581D03*
X0101008Y0121631D03*
X0101858Y0119231D03*
X0101908Y0119131D03*
X0101958Y0119031D03*
X0102008Y0118931D03*
X0102158Y0118681D03*
X0102258Y0118531D03*
X0102308Y0118431D03*
X0102358Y0118381D03*
X0102408Y0118281D03*
X0102458Y0118231D03*
X0102508Y0118181D03*
X0102558Y0118131D03*
X0106808Y0117831D03*
X0106808Y0117781D03*
X0093008Y0117931D03*
X0091958Y0119581D03*
X0091908Y0119681D03*
X0091858Y0119781D03*
X0091858Y0119831D03*
X0091808Y0119881D03*
X0091808Y0119931D03*
X0091758Y0119981D03*
X0091758Y0120031D03*
X0091758Y0120081D03*
X0091708Y0120131D03*
X0091708Y0120181D03*
X0091658Y0120281D03*
X0091358Y0121181D03*
X0091358Y0121231D03*
X0091308Y0121331D03*
X0091308Y0121381D03*
X0091308Y0121431D03*
X0091308Y0121481D03*
X0091258Y0121581D03*
X0091258Y0121631D03*
X0091258Y0121681D03*
X0066258Y0117831D03*
X0066258Y0117781D03*
X0066058Y0119431D03*
X0066008Y0119581D03*
X0065958Y0119681D03*
X0065958Y0119731D03*
X0065908Y0119831D03*
X0065908Y0119881D03*
X0065858Y0119931D03*
X0065858Y0119981D03*
X0065858Y0120031D03*
X0065808Y0120081D03*
X0065808Y0120131D03*
X0065758Y0120231D03*
X0065758Y0120281D03*
X0065708Y0120381D03*
X0065658Y0120531D03*
X0065558Y0120681D03*
X0065508Y0120781D03*
X0065508Y0120831D03*
X0065458Y0120881D03*
X0065458Y0120931D03*
X0065408Y0120981D03*
X0065408Y0121031D03*
X0065358Y0121081D03*
X0065358Y0121131D03*
X0065308Y0121181D03*
X0065308Y0121231D03*
X0065258Y0121281D03*
X0065208Y0121331D03*
X0065208Y0121381D03*
X0065158Y0121431D03*
X0065108Y0121531D03*
X0065058Y0121581D03*
X0065008Y0121681D03*
X0064958Y0121731D03*
X0061008Y0119931D03*
X0061008Y0119881D03*
X0061008Y0119831D03*
X0061058Y0119781D03*
X0061058Y0119731D03*
X0061108Y0119631D03*
X0060958Y0119981D03*
X0060958Y0120031D03*
X0060908Y0120131D03*
X0060858Y0120231D03*
X0060858Y0120281D03*
X0060808Y0120381D03*
X0060808Y0120431D03*
X0060758Y0120481D03*
X0060758Y0120531D03*
X0060758Y0120581D03*
X0060708Y0120631D03*
X0060708Y0120681D03*
X0060708Y0120731D03*
X0060658Y0120781D03*
X0060658Y0120831D03*
X0060608Y0120931D03*
X0060608Y0120981D03*
X0060558Y0121131D03*
X0060558Y0121181D03*
X0060508Y0121281D03*
X0060508Y0121331D03*
X0060508Y0121381D03*
X0060458Y0121481D03*
X0060458Y0121531D03*
X0060458Y0121581D03*
X0060458Y0121631D03*
X0061308Y0119231D03*
X0061358Y0119131D03*
X0061408Y0119031D03*
X0061458Y0118931D03*
X0061608Y0118681D03*
X0061708Y0118531D03*
X0061758Y0118431D03*
X0061808Y0118381D03*
X0061858Y0118281D03*
X0061908Y0118231D03*
X0061958Y0118181D03*
X0062008Y0118131D03*
X0127758Y0122331D03*
X0127808Y0122281D03*
X0127858Y0122231D03*
X0128408Y0121431D03*
X0128458Y0121331D03*
X0128508Y0121231D03*
X0128558Y0121181D03*
X0128558Y0121131D03*
X0128608Y0121081D03*
X0128608Y0121031D03*
X0128658Y0120931D03*
X0128708Y0120831D03*
X0128758Y0120731D03*
X0129258Y0119381D03*
X0129308Y0119281D03*
X0129308Y0119231D03*
X0129308Y0119181D03*
X0129358Y0119131D03*
X0129358Y0119081D03*
X0129358Y0119031D03*
X0129358Y0118981D03*
X0129408Y0118881D03*
X0129408Y0118831D03*
X0129408Y0118781D03*
X0129458Y0118581D03*
X0129458Y0118531D03*
X0129458Y0118481D03*
X0129508Y0117931D03*
D119*
X0116983Y0120931D03*
X0115783Y0118281D03*
X0111233Y0120831D03*
X0111183Y0120881D03*
X0103033Y0117781D03*
X0083233Y0122231D03*
X0081683Y0117881D03*
X0062483Y0117781D03*
D120*
X0064508Y0122181D03*
X0081658Y0117831D03*
X0083258Y0122281D03*
X0093258Y0117781D03*
X0105058Y0122181D03*
X0111108Y0120981D03*
X0111158Y0120931D03*
X0115808Y0118231D03*
X0117008Y0120981D03*
X0129308Y0117831D03*
D121*
X0116983Y0121031D03*
X0116983Y0121081D03*
X0115833Y0118181D03*
X0111083Y0121031D03*
X0101083Y0122231D03*
X0081683Y0117781D03*
X0060533Y0122231D03*
D122*
X0110508Y0121781D03*
X0110558Y0121731D03*
X0115958Y0117831D03*
D123*
X0073133Y0119881D03*
X0073083Y0120031D03*
X0072983Y0120281D03*
X0072883Y0120531D03*
X0072833Y0120681D03*
X0072783Y0120781D03*
X0072733Y0120931D03*
X0072683Y0121031D03*
X0047283Y0117831D03*
D124*
X0060458Y0122131D03*
X0064658Y0122081D03*
X0064708Y0122031D03*
X0064758Y0121981D03*
X0064808Y0121931D03*
X0062258Y0117881D03*
X0101008Y0122131D03*
X0105208Y0122081D03*
X0105258Y0122031D03*
X0105308Y0121981D03*
X0105358Y0121931D03*
X0102808Y0117881D03*
X0110908Y0121231D03*
X0110958Y0121181D03*
X0115858Y0118081D03*
X0116958Y0121281D03*
X0128858Y0120481D03*
X0128908Y0120381D03*
X0128958Y0120231D03*
X0129008Y0120131D03*
X0129008Y0120081D03*
X0129058Y0119981D03*
X0129108Y0119831D03*
X0129158Y0119681D03*
D125*
X0129183Y0119631D03*
X0129183Y0119581D03*
X0129233Y0119531D03*
X0129233Y0119481D03*
X0129233Y0119431D03*
X0129283Y0119331D03*
X0129133Y0119731D03*
X0129133Y0119781D03*
X0129083Y0119881D03*
X0129083Y0119931D03*
X0129033Y0120031D03*
X0128983Y0120181D03*
X0128933Y0120281D03*
X0128933Y0120331D03*
X0128883Y0120431D03*
X0128833Y0120531D03*
X0128833Y0120581D03*
X0128783Y0120631D03*
X0128783Y0120681D03*
X0128733Y0120781D03*
X0128683Y0120881D03*
X0128633Y0120981D03*
X0127683Y0122381D03*
X0116983Y0121331D03*
X0116433Y0119531D03*
X0116433Y0119481D03*
X0116433Y0119431D03*
X0116383Y0119331D03*
X0116333Y0119181D03*
X0110883Y0121281D03*
X0106133Y0120631D03*
X0106083Y0120731D03*
X0105683Y0121481D03*
X0105583Y0121631D03*
X0105483Y0121781D03*
X0105433Y0121831D03*
X0105383Y0121881D03*
X0101383Y0120331D03*
X0101433Y0120181D03*
X0101483Y0120081D03*
X0100983Y0121681D03*
X0100983Y0121731D03*
X0100983Y0121781D03*
X0100983Y0121831D03*
X0100983Y0121881D03*
X0100983Y0121931D03*
X0100983Y0121981D03*
X0100983Y0122031D03*
X0100983Y0122081D03*
X0102583Y0118081D03*
X0102633Y0118031D03*
X0102683Y0117981D03*
X0102733Y0117931D03*
X0093083Y0117881D03*
X0091683Y0120231D03*
X0091633Y0120331D03*
X0091633Y0120381D03*
X0091583Y0120431D03*
X0091583Y0120481D03*
X0091583Y0120531D03*
X0091533Y0120581D03*
X0091533Y0120631D03*
X0091533Y0120681D03*
X0091483Y0120731D03*
X0091483Y0120781D03*
X0091483Y0120831D03*
X0091433Y0120881D03*
X0091433Y0120931D03*
X0091433Y0120981D03*
X0091383Y0121031D03*
X0091383Y0121081D03*
X0091383Y0121131D03*
X0091333Y0121281D03*
X0065583Y0120631D03*
X0065533Y0120731D03*
X0065133Y0121481D03*
X0065033Y0121631D03*
X0064933Y0121781D03*
X0064883Y0121831D03*
X0064833Y0121881D03*
X0060833Y0120331D03*
X0060883Y0120181D03*
X0060933Y0120081D03*
X0060433Y0121681D03*
X0060433Y0121731D03*
X0060433Y0121781D03*
X0060433Y0121831D03*
X0060433Y0121881D03*
X0060433Y0121931D03*
X0060433Y0121981D03*
X0060433Y0122031D03*
X0060433Y0122081D03*
X0062033Y0118081D03*
X0062083Y0118031D03*
X0062133Y0117981D03*
X0062183Y0117931D03*
D126*
X0047158Y0117881D03*
D127*
X0081658Y0117931D03*
X0083258Y0122181D03*
X0111258Y0120781D03*
X0117008Y0120831D03*
X0117008Y0120881D03*
D128*
X0047083Y0117931D03*
D129*
X0046908Y0118031D03*
X0043758Y0120581D03*
D130*
X0046808Y0118081D03*
D131*
X0046758Y0118131D03*
D132*
X0046708Y0118181D03*
D133*
X0046633Y0118231D03*
D134*
X0046558Y0118281D03*
D135*
X0046483Y0118331D03*
D136*
X0046433Y0118381D03*
D137*
X0046408Y0118431D03*
D138*
X0046333Y0118481D03*
D139*
X0046308Y0118531D03*
D140*
X0046233Y0118581D03*
D141*
X0046183Y0118631D03*
D142*
X0046158Y0118681D03*
D143*
X0046083Y0118731D03*
D144*
X0046058Y0118781D03*
X0046008Y0118831D03*
D145*
X0045958Y0118881D03*
D146*
X0045933Y0118931D03*
X0045883Y0118981D03*
D147*
X0082258Y0119631D03*
X0082308Y0119731D03*
X0082358Y0119831D03*
X0082408Y0119881D03*
X0082408Y0119931D03*
X0082458Y0119981D03*
X0082458Y0120031D03*
X0082508Y0120081D03*
X0082558Y0120181D03*
X0082658Y0120331D03*
X0082708Y0120431D03*
X0082758Y0120531D03*
X0082808Y0120631D03*
X0082858Y0120681D03*
X0082858Y0120731D03*
X0082908Y0120831D03*
X0112258Y0119481D03*
X0112308Y0119431D03*
X0115558Y0118981D03*
D148*
X0045858Y0119031D03*
D149*
X0113758Y0119331D03*
X0113808Y0119281D03*
X0113858Y0119231D03*
X0114058Y0119081D03*
X0116858Y0123231D03*
X0116858Y0123281D03*
X0116858Y0123331D03*
D150*
X0045783Y0119081D03*
D151*
X0045758Y0119131D03*
X0045708Y0119181D03*
D152*
X0045683Y0119231D03*
D153*
X0045658Y0119281D03*
X0045608Y0119331D03*
D154*
X0109533Y0123081D03*
X0109583Y0123031D03*
X0113683Y0119381D03*
D155*
X0045583Y0119381D03*
X0045533Y0119431D03*
D156*
X0045508Y0119481D03*
X0045458Y0119531D03*
X0045408Y0119631D03*
D157*
X0045433Y0119581D03*
X0045383Y0119681D03*
X0045333Y0119731D03*
D158*
X0045308Y0119781D03*
X0045258Y0119831D03*
D159*
X0043408Y0120681D03*
X0072708Y0120981D03*
X0072758Y0120881D03*
X0072758Y0120831D03*
X0072808Y0120731D03*
X0072858Y0120631D03*
X0072858Y0120581D03*
X0072908Y0120481D03*
X0072908Y0120431D03*
X0072958Y0120381D03*
X0072958Y0120331D03*
X0073008Y0120231D03*
X0073008Y0120181D03*
X0073058Y0120131D03*
X0073058Y0120081D03*
X0073108Y0119981D03*
X0073108Y0119931D03*
X0135958Y0120981D03*
X0135958Y0121031D03*
X0136008Y0120881D03*
X0136008Y0120831D03*
X0136058Y0120731D03*
X0136108Y0120631D03*
X0136158Y0120481D03*
X0136208Y0120381D03*
X0136208Y0120331D03*
X0136258Y0120231D03*
X0136258Y0120181D03*
X0136308Y0120131D03*
X0136308Y0120081D03*
X0136358Y0119981D03*
X0136358Y0119931D03*
X0136408Y0119881D03*
D160*
X0045233Y0119881D03*
X0045183Y0119931D03*
D161*
X0045158Y0119981D03*
D162*
X0135983Y0120931D03*
X0136033Y0120781D03*
X0136083Y0120681D03*
X0136133Y0120581D03*
X0136133Y0120531D03*
X0136183Y0120431D03*
X0136233Y0120281D03*
X0136333Y0120031D03*
D163*
X0045133Y0120031D03*
X0045083Y0120081D03*
X0045083Y0120131D03*
X0045033Y0120181D03*
D164*
X0082533Y0120131D03*
X0082583Y0120231D03*
X0082633Y0120281D03*
X0082683Y0120381D03*
X0082733Y0120481D03*
X0082783Y0120581D03*
D165*
X0045008Y0120231D03*
X0044958Y0120281D03*
D166*
X0044933Y0120331D03*
X0044883Y0120381D03*
X0044833Y0120481D03*
X0044783Y0120531D03*
D167*
X0044858Y0120431D03*
D168*
X0049558Y0120581D03*
D169*
X0043508Y0120631D03*
D170*
X0043283Y0120731D03*
X0041933Y0123831D03*
D171*
X0043158Y0120781D03*
X0093408Y0122481D03*
D172*
X0093408Y0122881D03*
X0103008Y0122431D03*
X0062458Y0122431D03*
X0042858Y0120981D03*
D173*
X0110583Y0121681D03*
X0116933Y0121731D03*
X0116933Y0121781D03*
D174*
X0116933Y0121831D03*
X0116933Y0121881D03*
X0116933Y0121931D03*
X0110483Y0121831D03*
X0110433Y0121881D03*
D175*
X0110283Y0122081D03*
D176*
X0116908Y0122381D03*
D177*
X0116908Y0122531D03*
X0110058Y0122381D03*
X0110008Y0122431D03*
D178*
X0093383Y0122431D03*
D179*
X0109833Y0122681D03*
X0109883Y0122631D03*
X0116883Y0122731D03*
D180*
X0116858Y0122931D03*
X0116858Y0122981D03*
X0116858Y0123031D03*
X0109758Y0122781D03*
X0109708Y0122831D03*
D181*
X0102658Y0123281D03*
X0125008Y0123431D03*
X0062108Y0123281D03*
D182*
X0124958Y0123481D03*
D183*
X0124883Y0123531D03*
D184*
X0102508Y0123581D03*
X0061958Y0123581D03*
D185*
X0144883Y0123881D03*
D186*
X0042083Y0123881D03*
D187*
X0144633Y0123931D03*
D188*
X0046958Y0123931D03*
D189*
X0144733Y0123981D03*
D190*
X0046933Y0123981D03*
X0046933Y0124031D03*
X0046933Y0124081D03*
X0046883Y0124131D03*
X0046883Y0124181D03*
D191*
X0144658Y0124231D03*
X0144708Y0124181D03*
X0144708Y0124131D03*
X0144758Y0124031D03*
D192*
X0144733Y0124081D03*
D193*
X0046858Y0124231D03*
X0046858Y0124281D03*
X0046858Y0124331D03*
D194*
X0144483Y0124681D03*
X0144533Y0124581D03*
X0144533Y0124531D03*
X0144583Y0124481D03*
X0144583Y0124431D03*
X0144583Y0124381D03*
X0144633Y0124331D03*
X0144633Y0124281D03*
D195*
X0046833Y0124381D03*
X0046833Y0124431D03*
D196*
X0046808Y0124481D03*
X0046808Y0124531D03*
X0046808Y0124581D03*
D197*
X0144158Y0125581D03*
X0144158Y0125631D03*
X0144208Y0125481D03*
X0144208Y0125431D03*
X0144258Y0125331D03*
X0144258Y0125281D03*
X0144308Y0125181D03*
X0144308Y0125131D03*
X0144358Y0125031D03*
X0144358Y0124981D03*
X0144408Y0124931D03*
X0144408Y0124881D03*
X0144408Y0124831D03*
X0144458Y0124781D03*
X0144458Y0124731D03*
X0144508Y0124631D03*
D198*
X0046783Y0124631D03*
X0046783Y0124681D03*
D199*
X0046758Y0124731D03*
X0046758Y0124781D03*
D200*
X0046733Y0124831D03*
X0046733Y0124881D03*
X0046733Y0124931D03*
D201*
X0046733Y0124981D03*
X0046733Y0125031D03*
D202*
X0144133Y0125681D03*
X0144183Y0125531D03*
X0144233Y0125381D03*
X0144283Y0125231D03*
X0144333Y0125081D03*
D203*
X0046708Y0125081D03*
X0046708Y0125131D03*
D204*
X0046733Y0125181D03*
D205*
X0046708Y0125231D03*
X0046708Y0125281D03*
D206*
X0046683Y0125331D03*
D207*
X0046708Y0125381D03*
D208*
X0046683Y0125431D03*
D209*
X0046708Y0125481D03*
X0046708Y0125531D03*
D210*
X0046683Y0125581D03*
D211*
X0046708Y0125631D03*
D212*
X0046683Y0125681D03*
D213*
X0104733Y0125731D03*
D214*
X0046708Y0125731D03*
D215*
X0096258Y0125781D03*
D216*
X0096283Y0125831D03*
D217*
X0096258Y0125881D03*
D218*
X0096283Y0125931D03*
X0096283Y0125981D03*
D219*
X0096283Y0126031D03*
D220*
X0096308Y0126081D03*
D221*
X0096283Y0126131D03*
D222*
X0096308Y0126181D03*
D223*
X0096333Y0126231D03*
D224*
X0096333Y0126281D03*
D225*
X0096358Y0126331D03*
D226*
X0096408Y0126381D03*
D227*
X0096408Y0126431D03*
D228*
X0096458Y0126481D03*
D229*
X0096533Y0126531D03*
D230*
X0096583Y0126581D03*
D231*
X0096683Y0126631D03*
D232*
X0096758Y0126681D03*
D233*
X0096858Y0126731D03*
D234*
X0097183Y0126781D03*
D235*
X0040458Y0126781D03*
M02*
