G75*
%MOIN*%
%OFA0B0*%
%FSLAX25Y25*%
%IPPOS*%
%LPD*%
%AMOC8*
5,1,8,0,0,1.08239X$1,22.5*
%
%ADD10C,0.00600*%
%ADD11R,0.10236X0.15354*%
%ADD12R,0.04724X0.02362*%
%ADD13R,0.08268X0.01575*%
%ADD14R,0.03937X0.03937*%
%ADD15C,0.03937*%
%ADD16C,0.02000*%
%ADD17C,0.02978*%
%ADD18C,0.02400*%
%ADD19C,0.01600*%
%ADD20C,0.02756*%
D10*
X0046490Y0004511D02*
X0046415Y0045619D01*
X0018449Y0045619D01*
X0018524Y0055507D01*
X0014221Y0055507D01*
X0014221Y0126729D01*
X0015082Y0126729D01*
X0016821Y0124405D02*
X0018139Y0124951D01*
X0019657Y0126469D01*
X0020479Y0128452D01*
X0020479Y0129723D01*
X0024889Y0129723D01*
X0027110Y0130643D01*
X0028809Y0132343D01*
X0029729Y0134564D01*
X0029729Y0135529D01*
X0091795Y0135529D01*
X0091795Y0135529D01*
X0092288Y0135529D01*
X0092862Y0135529D01*
X0092862Y0135529D01*
X0166297Y0135533D01*
X0166297Y0127979D01*
X0167152Y0125916D01*
X0168730Y0124338D01*
X0168730Y0124338D01*
X0170793Y0123483D01*
X0176408Y0123483D01*
X0176408Y0057892D01*
X0174782Y0057892D01*
X0174772Y0057896D01*
X0174265Y0057892D01*
X0173758Y0057892D01*
X0173748Y0057888D01*
X0173737Y0057887D01*
X0173271Y0057690D01*
X0172803Y0057496D01*
X0172795Y0057488D01*
X0172785Y0057484D01*
X0172429Y0057122D01*
X0172071Y0056764D01*
X0172067Y0056754D01*
X0172059Y0056747D01*
X0171869Y0056277D01*
X0171676Y0055809D01*
X0171676Y0055798D01*
X0171671Y0055788D01*
X0171676Y0055281D01*
X0171676Y0054775D01*
X0171680Y0054764D01*
X0171729Y0048649D01*
X0147025Y0048649D01*
X0147022Y0048650D01*
X0146505Y0048649D01*
X0145993Y0048649D01*
X0145990Y0048648D01*
X0145988Y0048648D01*
X0145512Y0048450D01*
X0145037Y0048253D01*
X0145035Y0048252D01*
X0145033Y0048251D01*
X0144670Y0047886D01*
X0144306Y0047522D01*
X0144305Y0047520D01*
X0144303Y0047518D01*
X0144106Y0047041D01*
X0143910Y0046566D01*
X0143910Y0046564D01*
X0143909Y0046562D01*
X0143910Y0046044D01*
X0143910Y0045532D01*
X0143911Y0045530D01*
X0143934Y0032478D01*
X0143922Y0032478D01*
X0143797Y0032779D01*
X0142991Y0033586D01*
X0141936Y0034022D01*
X0140795Y0034022D01*
X0139741Y0033586D01*
X0138934Y0032779D01*
X0138809Y0032478D01*
X0137571Y0032478D01*
X0137460Y0032746D01*
X0136868Y0033337D01*
X0136868Y0055749D01*
X0130412Y0062205D01*
X0130412Y0104820D01*
X0130829Y0105237D01*
X0130829Y0106977D01*
X0129598Y0108207D01*
X0127859Y0108207D01*
X0126629Y0106977D01*
X0126629Y0105237D01*
X0127012Y0104854D01*
X0127012Y0060797D01*
X0128008Y0059801D01*
X0133468Y0054340D01*
X0133468Y0033579D01*
X0133403Y0033552D01*
X0132596Y0032746D01*
X0132486Y0032478D01*
X0131626Y0032478D01*
X0131515Y0032746D01*
X0130789Y0033471D01*
X0130789Y0055132D01*
X0125477Y0060444D01*
X0125477Y0104875D01*
X0125839Y0105237D01*
X0125839Y0106977D01*
X0124609Y0108207D01*
X0122869Y0108207D01*
X0121639Y0106977D01*
X0121639Y0105237D01*
X0122077Y0104799D01*
X0122077Y0059036D01*
X0123073Y0058040D01*
X0127389Y0053724D01*
X0127389Y0033484D01*
X0126651Y0032746D01*
X0126541Y0032478D01*
X0125681Y0032478D01*
X0125570Y0032746D01*
X0124947Y0033369D01*
X0124947Y0054674D01*
X0120453Y0059168D01*
X0120453Y0104855D01*
X0120835Y0105237D01*
X0120835Y0106977D01*
X0119605Y0108207D01*
X0117866Y0108207D01*
X0116635Y0106977D01*
X0116635Y0105237D01*
X0117053Y0104819D01*
X0117053Y0057760D01*
X0118049Y0056764D01*
X0121547Y0053266D01*
X0121547Y0033566D01*
X0121513Y0033552D01*
X0120707Y0032746D01*
X0120596Y0032478D01*
X0119736Y0032478D01*
X0119625Y0032746D01*
X0118851Y0033520D01*
X0118851Y0054737D01*
X0115726Y0057862D01*
X0115726Y0105131D01*
X0115832Y0105237D01*
X0115832Y0106977D01*
X0114602Y0108207D01*
X0112862Y0108207D01*
X0111632Y0106977D01*
X0111632Y0105237D01*
X0112326Y0104543D01*
X0112326Y0056454D01*
X0113322Y0055458D01*
X0115451Y0053328D01*
X0115451Y0033435D01*
X0114762Y0032746D01*
X0114651Y0032478D01*
X0113791Y0032478D01*
X0113680Y0032746D01*
X0112937Y0033489D01*
X0112937Y0055141D01*
X0111941Y0056136D01*
X0111941Y0056136D01*
X0110442Y0057635D01*
X0110442Y0104845D01*
X0110833Y0105237D01*
X0110833Y0106977D01*
X0109603Y0108207D01*
X0107864Y0108207D01*
X0106633Y0106977D01*
X0106633Y0105237D01*
X0107042Y0104829D01*
X0107042Y0056227D01*
X0108038Y0055231D01*
X0109537Y0053732D01*
X0109537Y0033466D01*
X0108817Y0032746D01*
X0108706Y0032478D01*
X0107846Y0032478D01*
X0107735Y0032746D01*
X0107031Y0033450D01*
X0107031Y0055342D01*
X0105468Y0056905D01*
X0105468Y0104874D01*
X0105831Y0105237D01*
X0105831Y0106977D01*
X0104601Y0108207D01*
X0102861Y0108207D01*
X0101631Y0106977D01*
X0101631Y0105237D01*
X0102068Y0104800D01*
X0102068Y0055497D01*
X0103064Y0054501D01*
X0103631Y0053934D01*
X0103631Y0033505D01*
X0102872Y0032746D01*
X0102761Y0032478D01*
X0101901Y0032478D01*
X0101791Y0032746D01*
X0100984Y0033552D01*
X0100713Y0033665D01*
X0100713Y0105115D01*
X0100835Y0105237D01*
X0100835Y0106977D01*
X0099605Y0108207D01*
X0097865Y0108207D01*
X0096635Y0106977D01*
X0096635Y0105237D01*
X0097313Y0104559D01*
X0097313Y0033132D01*
X0096927Y0032746D01*
X0096816Y0032478D01*
X0095956Y0032478D01*
X0095846Y0032746D01*
X0095263Y0033328D01*
X0095263Y0104670D01*
X0095830Y0105237D01*
X0095830Y0106977D01*
X0094600Y0108207D01*
X0092860Y0108207D01*
X0091630Y0106977D01*
X0091630Y0105237D01*
X0091863Y0105004D01*
X0091863Y0033583D01*
X0091789Y0033552D01*
X0090982Y0032746D01*
X0090871Y0032478D01*
X0090011Y0032478D01*
X0089901Y0032746D01*
X0089166Y0033480D01*
X0089166Y0055082D01*
X0089482Y0055397D01*
X0090477Y0056393D01*
X0090477Y0104879D01*
X0090836Y0105237D01*
X0090836Y0106977D01*
X0089605Y0108207D01*
X0087866Y0108207D01*
X0086636Y0106977D01*
X0086636Y0105237D01*
X0087077Y0104795D01*
X0087077Y0057801D01*
X0085766Y0056490D01*
X0085766Y0033475D01*
X0085037Y0032746D01*
X0084927Y0032478D01*
X0084067Y0032478D01*
X0083956Y0032746D01*
X0083213Y0033489D01*
X0083213Y0054688D01*
X0084511Y0055986D01*
X0085506Y0056982D01*
X0085506Y0104910D01*
X0085834Y0105237D01*
X0085834Y0106977D01*
X0084604Y0108207D01*
X0082864Y0108207D01*
X0081634Y0106977D01*
X0081634Y0105237D01*
X0082106Y0104764D01*
X0082106Y0058390D01*
X0079813Y0056096D01*
X0079813Y0033466D01*
X0079092Y0032746D01*
X0078982Y0032478D01*
X0078122Y0032478D01*
X0078011Y0032746D01*
X0077263Y0033494D01*
X0077263Y0054412D01*
X0079445Y0056595D01*
X0080441Y0057590D01*
X0080441Y0104845D01*
X0080833Y0105237D01*
X0080833Y0106977D01*
X0079603Y0108207D01*
X0077863Y0108207D01*
X0076633Y0106977D01*
X0076633Y0105237D01*
X0077041Y0104829D01*
X0077041Y0058999D01*
X0073863Y0055820D01*
X0073863Y0033461D01*
X0073147Y0032746D01*
X0073037Y0032478D01*
X0072177Y0032478D01*
X0072066Y0032746D01*
X0071341Y0033470D01*
X0071341Y0053685D01*
X0074467Y0056810D01*
X0075463Y0057806D01*
X0075463Y0104865D01*
X0075835Y0105237D01*
X0075835Y0106977D01*
X0074605Y0108207D01*
X0072865Y0108207D01*
X0071635Y0106977D01*
X0071635Y0105237D01*
X0072063Y0104809D01*
X0072063Y0059214D01*
X0067941Y0055093D01*
X0067941Y0033484D01*
X0067203Y0032746D01*
X0067092Y0032478D01*
X0066764Y0032478D01*
X0066764Y0042272D01*
X0066791Y0042299D01*
X0066791Y0081952D01*
X0068486Y0083650D01*
X0068666Y0083650D01*
X0070065Y0085050D01*
X0070065Y0087029D01*
X0070031Y0087064D01*
X0070030Y0087088D01*
X0068695Y0088421D01*
X0068674Y0088421D01*
X0068666Y0088428D01*
X0066687Y0088428D01*
X0065287Y0087029D01*
X0065287Y0086895D01*
X0062902Y0084504D01*
X0062235Y0083838D01*
X0062235Y0083837D01*
X0062234Y0083836D01*
X0062235Y0082892D01*
X0062235Y0049942D01*
X0057099Y0049942D01*
X0056396Y0049239D01*
X0055564Y0048407D01*
X0055558Y0048407D01*
X0054728Y0047577D01*
X0054728Y0047541D01*
X0054728Y0047540D01*
X0054728Y0032478D01*
X0054342Y0032478D01*
X0054232Y0032746D01*
X0053448Y0033529D01*
X0053448Y0080319D01*
X0069445Y0096316D01*
X0070441Y0097312D01*
X0070441Y0104843D01*
X0070835Y0105237D01*
X0070835Y0106977D01*
X0069605Y0108207D01*
X0067865Y0108207D01*
X0066635Y0106977D01*
X0066635Y0105237D01*
X0067041Y0104831D01*
X0067041Y0098720D01*
X0050048Y0081727D01*
X0050048Y0033426D01*
X0049368Y0032746D01*
X0049257Y0032478D01*
X0049039Y0032478D01*
X0049015Y0045621D01*
X0049015Y0046136D01*
X0049014Y0046138D01*
X0049014Y0046141D01*
X0048816Y0046618D01*
X0048620Y0047092D01*
X0048618Y0047093D01*
X0048617Y0047096D01*
X0048251Y0047461D01*
X0047888Y0047823D01*
X0047886Y0047824D01*
X0047884Y0047826D01*
X0047410Y0048021D01*
X0046933Y0048219D01*
X0046930Y0048219D01*
X0046928Y0048220D01*
X0046414Y0048219D01*
X0021069Y0048219D01*
X0021120Y0054980D01*
X0021124Y0054990D01*
X0021124Y0055497D01*
X0021128Y0056004D01*
X0021124Y0056014D01*
X0021124Y0056024D01*
X0020930Y0056492D01*
X0020739Y0056963D01*
X0020732Y0056970D01*
X0020728Y0056980D01*
X0020370Y0057338D01*
X0020013Y0057700D01*
X0020004Y0057704D01*
X0019997Y0057711D01*
X0019528Y0057905D01*
X0019061Y0058103D01*
X0019051Y0058103D01*
X0019041Y0058107D01*
X0018534Y0058107D01*
X0018027Y0058111D01*
X0018017Y0058107D01*
X0016821Y0058107D01*
X0016821Y0124405D01*
X0016821Y0124232D02*
X0168987Y0124232D01*
X0168730Y0124338D02*
X0168730Y0124338D01*
X0168238Y0124830D02*
X0017848Y0124830D01*
X0018139Y0124951D02*
X0018139Y0124951D01*
X0018617Y0125429D02*
X0167640Y0125429D01*
X0167152Y0125916D02*
X0167152Y0125916D01*
X0167106Y0126027D02*
X0019215Y0126027D01*
X0019657Y0126469D02*
X0019657Y0126469D01*
X0019722Y0126626D02*
X0166858Y0126626D01*
X0166610Y0127224D02*
X0019970Y0127224D01*
X0020218Y0127823D02*
X0166362Y0127823D01*
X0166297Y0128421D02*
X0020466Y0128421D01*
X0020479Y0129020D02*
X0166297Y0129020D01*
X0166297Y0129618D02*
X0020479Y0129618D01*
X0017879Y0129526D02*
X0017879Y0132323D01*
X0023687Y0132323D01*
X0026079Y0130217D02*
X0166297Y0130217D01*
X0166297Y0130815D02*
X0027281Y0130815D01*
X0027110Y0130643D02*
X0027110Y0130643D01*
X0027880Y0131414D02*
X0166297Y0131414D01*
X0166297Y0132012D02*
X0028478Y0132012D01*
X0028809Y0132343D02*
X0028809Y0132343D01*
X0028920Y0132611D02*
X0166297Y0132611D01*
X0166297Y0133209D02*
X0029168Y0133209D01*
X0029416Y0133808D02*
X0166297Y0133808D01*
X0166297Y0134406D02*
X0029664Y0134406D01*
X0029729Y0135005D02*
X0166297Y0135005D01*
X0168897Y0138133D02*
X0168897Y0129095D01*
X0168899Y0128987D01*
X0168905Y0128880D01*
X0168914Y0128773D01*
X0168928Y0128666D01*
X0168945Y0128560D01*
X0168966Y0128455D01*
X0168991Y0128350D01*
X0169019Y0128246D01*
X0169051Y0128144D01*
X0169087Y0128042D01*
X0169126Y0127942D01*
X0169169Y0127844D01*
X0169216Y0127747D01*
X0169265Y0127652D01*
X0169319Y0127558D01*
X0169375Y0127467D01*
X0169435Y0127377D01*
X0169498Y0127290D01*
X0169564Y0127205D01*
X0169633Y0127123D01*
X0169705Y0127043D01*
X0169779Y0126965D01*
X0169857Y0126891D01*
X0169937Y0126819D01*
X0170019Y0126750D01*
X0170104Y0126684D01*
X0170191Y0126621D01*
X0170281Y0126561D01*
X0170372Y0126505D01*
X0170466Y0126451D01*
X0170561Y0126402D01*
X0170658Y0126355D01*
X0170756Y0126312D01*
X0170856Y0126273D01*
X0170958Y0126237D01*
X0171060Y0126205D01*
X0171164Y0126177D01*
X0171269Y0126152D01*
X0171374Y0126131D01*
X0171480Y0126114D01*
X0171587Y0126100D01*
X0171694Y0126091D01*
X0171801Y0126085D01*
X0171909Y0126083D01*
X0179008Y0126083D01*
X0179008Y0055292D01*
X0174276Y0055292D01*
X0174351Y0046049D01*
X0146510Y0046049D01*
X0146585Y0004511D01*
X0046490Y0004511D01*
X0049039Y0032659D02*
X0049332Y0032659D01*
X0049038Y0033258D02*
X0049880Y0033258D01*
X0050048Y0033856D02*
X0049037Y0033856D01*
X0049036Y0034455D02*
X0050048Y0034455D01*
X0050048Y0035053D02*
X0049035Y0035053D01*
X0049034Y0035652D02*
X0050048Y0035652D01*
X0050048Y0036250D02*
X0049033Y0036250D01*
X0049031Y0036849D02*
X0050048Y0036849D01*
X0050048Y0037447D02*
X0049030Y0037447D01*
X0049029Y0038046D02*
X0050048Y0038046D01*
X0050048Y0038644D02*
X0049028Y0038644D01*
X0049027Y0039243D02*
X0050048Y0039243D01*
X0050048Y0039841D02*
X0049026Y0039841D01*
X0049025Y0040440D02*
X0050048Y0040440D01*
X0050048Y0041038D02*
X0049024Y0041038D01*
X0049023Y0041637D02*
X0050048Y0041637D01*
X0050048Y0042235D02*
X0049022Y0042235D01*
X0049021Y0042834D02*
X0050048Y0042834D01*
X0050048Y0043432D02*
X0049019Y0043432D01*
X0049018Y0044031D02*
X0050048Y0044031D01*
X0050048Y0044630D02*
X0049017Y0044630D01*
X0049016Y0045228D02*
X0050048Y0045228D01*
X0050048Y0045827D02*
X0049015Y0045827D01*
X0048896Y0046425D02*
X0050048Y0046425D01*
X0050048Y0047024D02*
X0048648Y0047024D01*
X0048089Y0047622D02*
X0050048Y0047622D01*
X0050048Y0048221D02*
X0021069Y0048221D01*
X0021073Y0048819D02*
X0050048Y0048819D01*
X0050048Y0049418D02*
X0021078Y0049418D01*
X0021082Y0050016D02*
X0050048Y0050016D01*
X0050048Y0050615D02*
X0021087Y0050615D01*
X0021091Y0051213D02*
X0050048Y0051213D01*
X0050048Y0051812D02*
X0021096Y0051812D01*
X0021101Y0052410D02*
X0050048Y0052410D01*
X0050048Y0053009D02*
X0021105Y0053009D01*
X0021110Y0053607D02*
X0050048Y0053607D01*
X0050048Y0054206D02*
X0021114Y0054206D01*
X0021119Y0054804D02*
X0050048Y0054804D01*
X0050048Y0055403D02*
X0021124Y0055403D01*
X0021128Y0056001D02*
X0050048Y0056001D01*
X0050048Y0056600D02*
X0020887Y0056600D01*
X0020510Y0057198D02*
X0050048Y0057198D01*
X0050048Y0057797D02*
X0019790Y0057797D01*
X0016821Y0058395D02*
X0050048Y0058395D01*
X0050048Y0058994D02*
X0016821Y0058994D01*
X0016821Y0059592D02*
X0050048Y0059592D01*
X0050048Y0060191D02*
X0016821Y0060191D01*
X0016821Y0060789D02*
X0050048Y0060789D01*
X0050048Y0061388D02*
X0016821Y0061388D01*
X0016821Y0061986D02*
X0050048Y0061986D01*
X0050048Y0062585D02*
X0016821Y0062585D01*
X0016821Y0063183D02*
X0050048Y0063183D01*
X0050048Y0063782D02*
X0016821Y0063782D01*
X0016821Y0064380D02*
X0050048Y0064380D01*
X0050048Y0064979D02*
X0016821Y0064979D01*
X0016821Y0065577D02*
X0050048Y0065577D01*
X0050048Y0066176D02*
X0016821Y0066176D01*
X0016821Y0066774D02*
X0050048Y0066774D01*
X0050048Y0067373D02*
X0016821Y0067373D01*
X0016821Y0067971D02*
X0050048Y0067971D01*
X0050048Y0068570D02*
X0016821Y0068570D01*
X0016821Y0069168D02*
X0050048Y0069168D01*
X0050048Y0069767D02*
X0016821Y0069767D01*
X0016821Y0070365D02*
X0050048Y0070365D01*
X0050048Y0070964D02*
X0016821Y0070964D01*
X0016821Y0071563D02*
X0050048Y0071563D01*
X0050048Y0072161D02*
X0016821Y0072161D01*
X0016821Y0072760D02*
X0050048Y0072760D01*
X0050048Y0073358D02*
X0016821Y0073358D01*
X0016821Y0073957D02*
X0050048Y0073957D01*
X0050048Y0074555D02*
X0016821Y0074555D01*
X0016821Y0075154D02*
X0050048Y0075154D01*
X0050048Y0075752D02*
X0016821Y0075752D01*
X0016821Y0076351D02*
X0050048Y0076351D01*
X0050048Y0076949D02*
X0016821Y0076949D01*
X0016821Y0077548D02*
X0050048Y0077548D01*
X0050048Y0078146D02*
X0016821Y0078146D01*
X0016821Y0078745D02*
X0050048Y0078745D01*
X0050048Y0079343D02*
X0016821Y0079343D01*
X0016821Y0079942D02*
X0050048Y0079942D01*
X0050048Y0080540D02*
X0016821Y0080540D01*
X0016821Y0081139D02*
X0050048Y0081139D01*
X0050058Y0081737D02*
X0016821Y0081737D01*
X0016821Y0082336D02*
X0050657Y0082336D01*
X0051255Y0082934D02*
X0016821Y0082934D01*
X0016821Y0083533D02*
X0051854Y0083533D01*
X0052452Y0084131D02*
X0016821Y0084131D01*
X0016821Y0084730D02*
X0053051Y0084730D01*
X0053649Y0085328D02*
X0016821Y0085328D01*
X0016821Y0085927D02*
X0054248Y0085927D01*
X0054846Y0086525D02*
X0016821Y0086525D01*
X0016821Y0087124D02*
X0055445Y0087124D01*
X0056043Y0087722D02*
X0016821Y0087722D01*
X0016821Y0088321D02*
X0056642Y0088321D01*
X0057240Y0088919D02*
X0016821Y0088919D01*
X0016821Y0089518D02*
X0057839Y0089518D01*
X0058437Y0090116D02*
X0016821Y0090116D01*
X0016821Y0090715D02*
X0059036Y0090715D01*
X0059635Y0091313D02*
X0016821Y0091313D01*
X0016821Y0091912D02*
X0060233Y0091912D01*
X0060832Y0092510D02*
X0016821Y0092510D01*
X0016821Y0093109D02*
X0061430Y0093109D01*
X0062029Y0093707D02*
X0016821Y0093707D01*
X0016821Y0094306D02*
X0062627Y0094306D01*
X0063226Y0094904D02*
X0016821Y0094904D01*
X0016821Y0095503D02*
X0063824Y0095503D01*
X0064423Y0096101D02*
X0016821Y0096101D01*
X0016821Y0096700D02*
X0065021Y0096700D01*
X0065620Y0097298D02*
X0016821Y0097298D01*
X0016821Y0097897D02*
X0066218Y0097897D01*
X0066817Y0098496D02*
X0016821Y0098496D01*
X0016821Y0099094D02*
X0067041Y0099094D01*
X0067041Y0099693D02*
X0016821Y0099693D01*
X0016821Y0100291D02*
X0067041Y0100291D01*
X0067041Y0100890D02*
X0016821Y0100890D01*
X0016821Y0101488D02*
X0067041Y0101488D01*
X0067041Y0102087D02*
X0016821Y0102087D01*
X0016821Y0102685D02*
X0067041Y0102685D01*
X0067041Y0103284D02*
X0016821Y0103284D01*
X0016821Y0103882D02*
X0067041Y0103882D01*
X0067041Y0104481D02*
X0016821Y0104481D01*
X0016821Y0105079D02*
X0066793Y0105079D01*
X0066635Y0105678D02*
X0016821Y0105678D01*
X0016821Y0106276D02*
X0066635Y0106276D01*
X0066635Y0106875D02*
X0016821Y0106875D01*
X0016821Y0107473D02*
X0067132Y0107473D01*
X0067730Y0108072D02*
X0016821Y0108072D01*
X0016821Y0108670D02*
X0176408Y0108670D01*
X0176408Y0108072D02*
X0129734Y0108072D01*
X0130332Y0107473D02*
X0176408Y0107473D01*
X0176408Y0106875D02*
X0130829Y0106875D01*
X0130829Y0106276D02*
X0176408Y0106276D01*
X0176408Y0105678D02*
X0130829Y0105678D01*
X0130671Y0105079D02*
X0176408Y0105079D01*
X0176408Y0104481D02*
X0130412Y0104481D01*
X0130412Y0103882D02*
X0176408Y0103882D01*
X0176408Y0103284D02*
X0130412Y0103284D01*
X0130412Y0102685D02*
X0176408Y0102685D01*
X0176408Y0102087D02*
X0130412Y0102087D01*
X0130412Y0101488D02*
X0176408Y0101488D01*
X0176408Y0100890D02*
X0130412Y0100890D01*
X0130412Y0100291D02*
X0176408Y0100291D01*
X0176408Y0099693D02*
X0130412Y0099693D01*
X0130412Y0099094D02*
X0176408Y0099094D01*
X0176408Y0098496D02*
X0130412Y0098496D01*
X0130412Y0097897D02*
X0176408Y0097897D01*
X0176408Y0097298D02*
X0130412Y0097298D01*
X0130412Y0096700D02*
X0176408Y0096700D01*
X0176408Y0096101D02*
X0130412Y0096101D01*
X0130412Y0095503D02*
X0176408Y0095503D01*
X0176408Y0094904D02*
X0130412Y0094904D01*
X0130412Y0094306D02*
X0176408Y0094306D01*
X0176408Y0093707D02*
X0130412Y0093707D01*
X0130412Y0093109D02*
X0176408Y0093109D01*
X0176408Y0092510D02*
X0130412Y0092510D01*
X0130412Y0091912D02*
X0176408Y0091912D01*
X0176408Y0091313D02*
X0130412Y0091313D01*
X0130412Y0090715D02*
X0176408Y0090715D01*
X0176408Y0090116D02*
X0130412Y0090116D01*
X0130412Y0089518D02*
X0176408Y0089518D01*
X0176408Y0088919D02*
X0130412Y0088919D01*
X0130412Y0088321D02*
X0176408Y0088321D01*
X0176408Y0087722D02*
X0130412Y0087722D01*
X0130412Y0087124D02*
X0176408Y0087124D01*
X0176408Y0086525D02*
X0130412Y0086525D01*
X0130412Y0085927D02*
X0176408Y0085927D01*
X0176408Y0085328D02*
X0130412Y0085328D01*
X0130412Y0084730D02*
X0176408Y0084730D01*
X0176408Y0084131D02*
X0130412Y0084131D01*
X0130412Y0083533D02*
X0176408Y0083533D01*
X0176408Y0082934D02*
X0130412Y0082934D01*
X0130412Y0082336D02*
X0176408Y0082336D01*
X0176408Y0081737D02*
X0130412Y0081737D01*
X0130412Y0081139D02*
X0176408Y0081139D01*
X0176408Y0080540D02*
X0130412Y0080540D01*
X0130412Y0079942D02*
X0132858Y0079942D01*
X0133134Y0080218D02*
X0131734Y0078818D01*
X0131734Y0076839D01*
X0132452Y0076121D01*
X0132452Y0065214D01*
X0131686Y0064447D01*
X0131686Y0062468D01*
X0133086Y0061069D01*
X0135065Y0061069D01*
X0136464Y0062468D01*
X0136464Y0064447D01*
X0135852Y0065059D01*
X0135852Y0076179D01*
X0136512Y0076839D01*
X0136512Y0078818D01*
X0135113Y0080218D01*
X0133134Y0080218D01*
X0132259Y0079343D02*
X0130412Y0079343D01*
X0130412Y0078745D02*
X0131734Y0078745D01*
X0131734Y0078146D02*
X0130412Y0078146D01*
X0130412Y0077548D02*
X0131734Y0077548D01*
X0131734Y0076949D02*
X0130412Y0076949D01*
X0130412Y0076351D02*
X0132223Y0076351D01*
X0132452Y0075752D02*
X0130412Y0075752D01*
X0130412Y0075154D02*
X0132452Y0075154D01*
X0132452Y0074555D02*
X0130412Y0074555D01*
X0130412Y0073957D02*
X0132452Y0073957D01*
X0132452Y0073358D02*
X0130412Y0073358D01*
X0130412Y0072760D02*
X0132452Y0072760D01*
X0132452Y0072161D02*
X0130412Y0072161D01*
X0130412Y0071563D02*
X0132452Y0071563D01*
X0132452Y0070964D02*
X0130412Y0070964D01*
X0130412Y0070365D02*
X0132452Y0070365D01*
X0132452Y0069767D02*
X0130412Y0069767D01*
X0130412Y0069168D02*
X0132452Y0069168D01*
X0132452Y0068570D02*
X0130412Y0068570D01*
X0130412Y0067971D02*
X0132452Y0067971D01*
X0132452Y0067373D02*
X0130412Y0067373D01*
X0130412Y0066774D02*
X0132452Y0066774D01*
X0132452Y0066176D02*
X0130412Y0066176D01*
X0130412Y0065577D02*
X0132452Y0065577D01*
X0132218Y0064979D02*
X0130412Y0064979D01*
X0130412Y0064380D02*
X0131686Y0064380D01*
X0131686Y0063782D02*
X0130412Y0063782D01*
X0130412Y0063183D02*
X0131686Y0063183D01*
X0131686Y0062585D02*
X0130412Y0062585D01*
X0130630Y0061986D02*
X0132168Y0061986D01*
X0132767Y0061388D02*
X0131229Y0061388D01*
X0131827Y0060789D02*
X0176408Y0060789D01*
X0176408Y0060191D02*
X0132426Y0060191D01*
X0133024Y0059592D02*
X0176408Y0059592D01*
X0176408Y0058994D02*
X0133623Y0058994D01*
X0134221Y0058395D02*
X0176408Y0058395D01*
X0173523Y0057797D02*
X0134820Y0057797D01*
X0135418Y0057198D02*
X0172504Y0057198D01*
X0172000Y0056600D02*
X0136017Y0056600D01*
X0136616Y0056001D02*
X0171755Y0056001D01*
X0171675Y0055403D02*
X0136868Y0055403D01*
X0136868Y0054804D02*
X0171676Y0054804D01*
X0171684Y0054206D02*
X0136868Y0054206D01*
X0136868Y0053607D02*
X0171689Y0053607D01*
X0171694Y0053009D02*
X0136868Y0053009D01*
X0136868Y0052410D02*
X0171699Y0052410D01*
X0171704Y0051812D02*
X0136868Y0051812D01*
X0136868Y0051213D02*
X0171709Y0051213D01*
X0171713Y0050615D02*
X0136868Y0050615D01*
X0136868Y0050016D02*
X0171718Y0050016D01*
X0171723Y0049418D02*
X0136868Y0049418D01*
X0136868Y0048819D02*
X0171728Y0048819D01*
X0176408Y0061388D02*
X0135384Y0061388D01*
X0135982Y0061986D02*
X0176408Y0061986D01*
X0176408Y0062585D02*
X0136464Y0062585D01*
X0136464Y0063183D02*
X0176408Y0063183D01*
X0176408Y0063782D02*
X0136464Y0063782D01*
X0136464Y0064380D02*
X0176408Y0064380D01*
X0176408Y0064979D02*
X0135933Y0064979D01*
X0135852Y0065577D02*
X0176408Y0065577D01*
X0176408Y0066176D02*
X0135852Y0066176D01*
X0135852Y0066774D02*
X0176408Y0066774D01*
X0176408Y0067373D02*
X0135852Y0067373D01*
X0135852Y0067971D02*
X0176408Y0067971D01*
X0176408Y0068570D02*
X0135852Y0068570D01*
X0135852Y0069168D02*
X0176408Y0069168D01*
X0176408Y0069767D02*
X0135852Y0069767D01*
X0135852Y0070365D02*
X0176408Y0070365D01*
X0176408Y0070964D02*
X0135852Y0070964D01*
X0135852Y0071563D02*
X0176408Y0071563D01*
X0176408Y0072161D02*
X0135852Y0072161D01*
X0135852Y0072760D02*
X0176408Y0072760D01*
X0176408Y0073358D02*
X0135852Y0073358D01*
X0135852Y0073957D02*
X0176408Y0073957D01*
X0176408Y0074555D02*
X0135852Y0074555D01*
X0135852Y0075154D02*
X0176408Y0075154D01*
X0176408Y0075752D02*
X0135852Y0075752D01*
X0136024Y0076351D02*
X0176408Y0076351D01*
X0176408Y0076949D02*
X0136512Y0076949D01*
X0136512Y0077548D02*
X0176408Y0077548D01*
X0176408Y0078146D02*
X0136512Y0078146D01*
X0136512Y0078745D02*
X0176408Y0078745D01*
X0176408Y0079343D02*
X0135987Y0079343D01*
X0135389Y0079942D02*
X0176408Y0079942D01*
X0176408Y0109269D02*
X0016821Y0109269D01*
X0016821Y0109867D02*
X0176408Y0109867D01*
X0176408Y0110466D02*
X0016821Y0110466D01*
X0016821Y0111064D02*
X0176408Y0111064D01*
X0176408Y0111663D02*
X0016821Y0111663D01*
X0016821Y0112261D02*
X0176408Y0112261D01*
X0176408Y0112860D02*
X0016821Y0112860D01*
X0016821Y0113458D02*
X0176408Y0113458D01*
X0176408Y0114057D02*
X0016821Y0114057D01*
X0016821Y0114655D02*
X0176408Y0114655D01*
X0176408Y0115254D02*
X0016821Y0115254D01*
X0016821Y0115852D02*
X0176408Y0115852D01*
X0176408Y0116451D02*
X0016821Y0116451D01*
X0016821Y0117049D02*
X0176408Y0117049D01*
X0176408Y0117648D02*
X0016821Y0117648D01*
X0016821Y0118246D02*
X0176408Y0118246D01*
X0176408Y0118845D02*
X0016821Y0118845D01*
X0016821Y0119443D02*
X0176408Y0119443D01*
X0176408Y0120042D02*
X0016821Y0120042D01*
X0016821Y0120640D02*
X0176408Y0120640D01*
X0176408Y0121239D02*
X0016821Y0121239D01*
X0016821Y0121837D02*
X0176408Y0121837D01*
X0176408Y0122436D02*
X0016821Y0122436D01*
X0016821Y0123034D02*
X0176408Y0123034D01*
X0170432Y0123633D02*
X0016821Y0123633D01*
X0015082Y0126729D02*
X0015187Y0126731D01*
X0015291Y0126737D01*
X0015395Y0126747D01*
X0015499Y0126760D01*
X0015602Y0126778D01*
X0015704Y0126799D01*
X0015806Y0126824D01*
X0015906Y0126853D01*
X0016006Y0126886D01*
X0016104Y0126922D01*
X0016200Y0126962D01*
X0016296Y0127006D01*
X0016389Y0127053D01*
X0016480Y0127104D01*
X0016570Y0127158D01*
X0016658Y0127215D01*
X0016743Y0127276D01*
X0016826Y0127339D01*
X0016906Y0127406D01*
X0016984Y0127476D01*
X0017060Y0127548D01*
X0017132Y0127624D01*
X0017202Y0127702D01*
X0017269Y0127782D01*
X0017332Y0127865D01*
X0017393Y0127950D01*
X0017450Y0128038D01*
X0017504Y0128127D01*
X0017555Y0128219D01*
X0017602Y0128312D01*
X0017646Y0128408D01*
X0017686Y0128504D01*
X0017722Y0128602D01*
X0017755Y0128702D01*
X0017784Y0128802D01*
X0017809Y0128904D01*
X0017830Y0129006D01*
X0017848Y0129109D01*
X0017861Y0129213D01*
X0017871Y0129317D01*
X0017877Y0129421D01*
X0017879Y0129526D01*
X0023687Y0132323D02*
X0023802Y0132325D01*
X0023917Y0132331D01*
X0024032Y0132340D01*
X0024146Y0132354D01*
X0024260Y0132371D01*
X0024373Y0132392D01*
X0024485Y0132417D01*
X0024596Y0132445D01*
X0024707Y0132478D01*
X0024816Y0132513D01*
X0024924Y0132553D01*
X0025031Y0132596D01*
X0025136Y0132643D01*
X0025239Y0132693D01*
X0025341Y0132747D01*
X0025441Y0132803D01*
X0025539Y0132864D01*
X0025635Y0132927D01*
X0025729Y0132994D01*
X0025820Y0133064D01*
X0025909Y0133137D01*
X0025996Y0133212D01*
X0026080Y0133291D01*
X0026161Y0133372D01*
X0026240Y0133456D01*
X0026315Y0133543D01*
X0026388Y0133632D01*
X0026458Y0133723D01*
X0026525Y0133817D01*
X0026588Y0133913D01*
X0026649Y0134011D01*
X0026705Y0134111D01*
X0026759Y0134213D01*
X0026809Y0134316D01*
X0026856Y0134421D01*
X0026899Y0134528D01*
X0026939Y0134636D01*
X0026974Y0134745D01*
X0027007Y0134856D01*
X0027035Y0134967D01*
X0027060Y0135079D01*
X0027081Y0135192D01*
X0027098Y0135306D01*
X0027112Y0135420D01*
X0027121Y0135535D01*
X0027127Y0135650D01*
X0027129Y0135765D01*
X0027129Y0138129D01*
X0092312Y0138129D01*
X0092345Y0138129D01*
X0092312Y0138129D02*
X0168897Y0138133D01*
X0127723Y0108072D02*
X0124744Y0108072D01*
X0125343Y0107473D02*
X0127125Y0107473D01*
X0126629Y0106875D02*
X0125839Y0106875D01*
X0125839Y0106276D02*
X0126629Y0106276D01*
X0126629Y0105678D02*
X0125839Y0105678D01*
X0125681Y0105079D02*
X0126787Y0105079D01*
X0127012Y0104481D02*
X0125477Y0104481D01*
X0125477Y0103882D02*
X0127012Y0103882D01*
X0127012Y0103284D02*
X0125477Y0103284D01*
X0125477Y0102685D02*
X0127012Y0102685D01*
X0127012Y0102087D02*
X0125477Y0102087D01*
X0125477Y0101488D02*
X0127012Y0101488D01*
X0127012Y0100890D02*
X0125477Y0100890D01*
X0125477Y0100291D02*
X0127012Y0100291D01*
X0127012Y0099693D02*
X0125477Y0099693D01*
X0125477Y0099094D02*
X0127012Y0099094D01*
X0127012Y0098496D02*
X0125477Y0098496D01*
X0125477Y0097897D02*
X0127012Y0097897D01*
X0127012Y0097298D02*
X0125477Y0097298D01*
X0125477Y0096700D02*
X0127012Y0096700D01*
X0127012Y0096101D02*
X0125477Y0096101D01*
X0125477Y0095503D02*
X0127012Y0095503D01*
X0127012Y0094904D02*
X0125477Y0094904D01*
X0125477Y0094306D02*
X0127012Y0094306D01*
X0127012Y0093707D02*
X0125477Y0093707D01*
X0125477Y0093109D02*
X0127012Y0093109D01*
X0127012Y0092510D02*
X0125477Y0092510D01*
X0125477Y0091912D02*
X0127012Y0091912D01*
X0127012Y0091313D02*
X0125477Y0091313D01*
X0125477Y0090715D02*
X0127012Y0090715D01*
X0127012Y0090116D02*
X0125477Y0090116D01*
X0125477Y0089518D02*
X0127012Y0089518D01*
X0127012Y0088919D02*
X0125477Y0088919D01*
X0125477Y0088321D02*
X0127012Y0088321D01*
X0127012Y0087722D02*
X0125477Y0087722D01*
X0125477Y0087124D02*
X0127012Y0087124D01*
X0127012Y0086525D02*
X0125477Y0086525D01*
X0125477Y0085927D02*
X0127012Y0085927D01*
X0127012Y0085328D02*
X0125477Y0085328D01*
X0125477Y0084730D02*
X0127012Y0084730D01*
X0127012Y0084131D02*
X0125477Y0084131D01*
X0125477Y0083533D02*
X0127012Y0083533D01*
X0127012Y0082934D02*
X0125477Y0082934D01*
X0125477Y0082336D02*
X0127012Y0082336D01*
X0127012Y0081737D02*
X0125477Y0081737D01*
X0125477Y0081139D02*
X0127012Y0081139D01*
X0127012Y0080540D02*
X0125477Y0080540D01*
X0125477Y0079942D02*
X0127012Y0079942D01*
X0127012Y0079343D02*
X0125477Y0079343D01*
X0125477Y0078745D02*
X0127012Y0078745D01*
X0127012Y0078146D02*
X0125477Y0078146D01*
X0125477Y0077548D02*
X0127012Y0077548D01*
X0127012Y0076949D02*
X0125477Y0076949D01*
X0125477Y0076351D02*
X0127012Y0076351D01*
X0127012Y0075752D02*
X0125477Y0075752D01*
X0125477Y0075154D02*
X0127012Y0075154D01*
X0127012Y0074555D02*
X0125477Y0074555D01*
X0125477Y0073957D02*
X0127012Y0073957D01*
X0127012Y0073358D02*
X0125477Y0073358D01*
X0125477Y0072760D02*
X0127012Y0072760D01*
X0127012Y0072161D02*
X0125477Y0072161D01*
X0125477Y0071563D02*
X0127012Y0071563D01*
X0127012Y0070964D02*
X0125477Y0070964D01*
X0125477Y0070365D02*
X0127012Y0070365D01*
X0127012Y0069767D02*
X0125477Y0069767D01*
X0125477Y0069168D02*
X0127012Y0069168D01*
X0127012Y0068570D02*
X0125477Y0068570D01*
X0125477Y0067971D02*
X0127012Y0067971D01*
X0127012Y0067373D02*
X0125477Y0067373D01*
X0125477Y0066774D02*
X0127012Y0066774D01*
X0127012Y0066176D02*
X0125477Y0066176D01*
X0125477Y0065577D02*
X0127012Y0065577D01*
X0127012Y0064979D02*
X0125477Y0064979D01*
X0125477Y0064380D02*
X0127012Y0064380D01*
X0127012Y0063782D02*
X0125477Y0063782D01*
X0125477Y0063183D02*
X0127012Y0063183D01*
X0127012Y0062585D02*
X0125477Y0062585D01*
X0125477Y0061986D02*
X0127012Y0061986D01*
X0127012Y0061388D02*
X0125477Y0061388D01*
X0125477Y0060789D02*
X0127019Y0060789D01*
X0127618Y0060191D02*
X0125730Y0060191D01*
X0126329Y0059592D02*
X0128216Y0059592D01*
X0128815Y0058994D02*
X0126927Y0058994D01*
X0127526Y0058395D02*
X0129413Y0058395D01*
X0130012Y0057797D02*
X0128125Y0057797D01*
X0128723Y0057198D02*
X0130610Y0057198D01*
X0131209Y0056600D02*
X0129322Y0056600D01*
X0129920Y0056001D02*
X0131807Y0056001D01*
X0132406Y0055403D02*
X0130519Y0055403D01*
X0130789Y0054804D02*
X0133004Y0054804D01*
X0133468Y0054206D02*
X0130789Y0054206D01*
X0130789Y0053607D02*
X0133468Y0053607D01*
X0133468Y0053009D02*
X0130789Y0053009D01*
X0130789Y0052410D02*
X0133468Y0052410D01*
X0133468Y0051812D02*
X0130789Y0051812D01*
X0130789Y0051213D02*
X0133468Y0051213D01*
X0133468Y0050615D02*
X0130789Y0050615D01*
X0130789Y0050016D02*
X0133468Y0050016D01*
X0133468Y0049418D02*
X0130789Y0049418D01*
X0130789Y0048819D02*
X0133468Y0048819D01*
X0133468Y0048221D02*
X0130789Y0048221D01*
X0130789Y0047622D02*
X0133468Y0047622D01*
X0133468Y0047024D02*
X0130789Y0047024D01*
X0130789Y0046425D02*
X0133468Y0046425D01*
X0133468Y0045827D02*
X0130789Y0045827D01*
X0130789Y0045228D02*
X0133468Y0045228D01*
X0133468Y0044630D02*
X0130789Y0044630D01*
X0130789Y0044031D02*
X0133468Y0044031D01*
X0133468Y0043432D02*
X0130789Y0043432D01*
X0130789Y0042834D02*
X0133468Y0042834D01*
X0133468Y0042235D02*
X0130789Y0042235D01*
X0130789Y0041637D02*
X0133468Y0041637D01*
X0133468Y0041038D02*
X0130789Y0041038D01*
X0130789Y0040440D02*
X0133468Y0040440D01*
X0133468Y0039841D02*
X0130789Y0039841D01*
X0130789Y0039243D02*
X0133468Y0039243D01*
X0133468Y0038644D02*
X0130789Y0038644D01*
X0130789Y0038046D02*
X0133468Y0038046D01*
X0133468Y0037447D02*
X0130789Y0037447D01*
X0130789Y0036849D02*
X0133468Y0036849D01*
X0133468Y0036250D02*
X0130789Y0036250D01*
X0130789Y0035652D02*
X0133468Y0035652D01*
X0133468Y0035053D02*
X0130789Y0035053D01*
X0130789Y0034455D02*
X0133468Y0034455D01*
X0133468Y0033856D02*
X0130789Y0033856D01*
X0131003Y0033258D02*
X0133109Y0033258D01*
X0132561Y0032659D02*
X0131551Y0032659D01*
X0136948Y0033258D02*
X0139413Y0033258D01*
X0138884Y0032659D02*
X0137496Y0032659D01*
X0136868Y0033856D02*
X0140394Y0033856D01*
X0142337Y0033856D02*
X0143932Y0033856D01*
X0143933Y0033258D02*
X0143318Y0033258D01*
X0143847Y0032659D02*
X0143934Y0032659D01*
X0143931Y0034455D02*
X0136868Y0034455D01*
X0136868Y0035053D02*
X0143930Y0035053D01*
X0143929Y0035652D02*
X0136868Y0035652D01*
X0136868Y0036250D02*
X0143928Y0036250D01*
X0143926Y0036849D02*
X0136868Y0036849D01*
X0136868Y0037447D02*
X0143925Y0037447D01*
X0143924Y0038046D02*
X0136868Y0038046D01*
X0136868Y0038644D02*
X0143923Y0038644D01*
X0143922Y0039243D02*
X0136868Y0039243D01*
X0136868Y0039841D02*
X0143921Y0039841D01*
X0143920Y0040440D02*
X0136868Y0040440D01*
X0136868Y0041038D02*
X0143919Y0041038D01*
X0143918Y0041637D02*
X0136868Y0041637D01*
X0136868Y0042235D02*
X0143917Y0042235D01*
X0143916Y0042834D02*
X0136868Y0042834D01*
X0136868Y0043432D02*
X0143915Y0043432D01*
X0143913Y0044031D02*
X0136868Y0044031D01*
X0136868Y0044630D02*
X0143912Y0044630D01*
X0143911Y0045228D02*
X0136868Y0045228D01*
X0136868Y0045827D02*
X0143910Y0045827D01*
X0143909Y0046425D02*
X0136868Y0046425D01*
X0136868Y0047024D02*
X0144099Y0047024D01*
X0144406Y0047622D02*
X0136868Y0047622D01*
X0136868Y0048221D02*
X0145003Y0048221D01*
X0127389Y0048221D02*
X0124947Y0048221D01*
X0124947Y0048819D02*
X0127389Y0048819D01*
X0127389Y0049418D02*
X0124947Y0049418D01*
X0124947Y0050016D02*
X0127389Y0050016D01*
X0127389Y0050615D02*
X0124947Y0050615D01*
X0124947Y0051213D02*
X0127389Y0051213D01*
X0127389Y0051812D02*
X0124947Y0051812D01*
X0124947Y0052410D02*
X0127389Y0052410D01*
X0127389Y0053009D02*
X0124947Y0053009D01*
X0124947Y0053607D02*
X0127389Y0053607D01*
X0126907Y0054206D02*
X0124947Y0054206D01*
X0124817Y0054804D02*
X0126309Y0054804D01*
X0125710Y0055403D02*
X0124219Y0055403D01*
X0123620Y0056001D02*
X0125112Y0056001D01*
X0124513Y0056600D02*
X0123022Y0056600D01*
X0122423Y0057198D02*
X0123915Y0057198D01*
X0123316Y0057797D02*
X0121825Y0057797D01*
X0121226Y0058395D02*
X0122718Y0058395D01*
X0122119Y0058994D02*
X0120628Y0058994D01*
X0120453Y0059592D02*
X0122077Y0059592D01*
X0122077Y0060191D02*
X0120453Y0060191D01*
X0120453Y0060789D02*
X0122077Y0060789D01*
X0122077Y0061388D02*
X0120453Y0061388D01*
X0120453Y0061986D02*
X0122077Y0061986D01*
X0122077Y0062585D02*
X0120453Y0062585D01*
X0120453Y0063183D02*
X0122077Y0063183D01*
X0122077Y0063782D02*
X0120453Y0063782D01*
X0120453Y0064380D02*
X0122077Y0064380D01*
X0122077Y0064979D02*
X0120453Y0064979D01*
X0120453Y0065577D02*
X0122077Y0065577D01*
X0122077Y0066176D02*
X0120453Y0066176D01*
X0120453Y0066774D02*
X0122077Y0066774D01*
X0122077Y0067373D02*
X0120453Y0067373D01*
X0120453Y0067971D02*
X0122077Y0067971D01*
X0122077Y0068570D02*
X0120453Y0068570D01*
X0120453Y0069168D02*
X0122077Y0069168D01*
X0122077Y0069767D02*
X0120453Y0069767D01*
X0120453Y0070365D02*
X0122077Y0070365D01*
X0122077Y0070964D02*
X0120453Y0070964D01*
X0120453Y0071563D02*
X0122077Y0071563D01*
X0122077Y0072161D02*
X0120453Y0072161D01*
X0120453Y0072760D02*
X0122077Y0072760D01*
X0122077Y0073358D02*
X0120453Y0073358D01*
X0120453Y0073957D02*
X0122077Y0073957D01*
X0122077Y0074555D02*
X0120453Y0074555D01*
X0120453Y0075154D02*
X0122077Y0075154D01*
X0122077Y0075752D02*
X0120453Y0075752D01*
X0120453Y0076351D02*
X0122077Y0076351D01*
X0122077Y0076949D02*
X0120453Y0076949D01*
X0120453Y0077548D02*
X0122077Y0077548D01*
X0122077Y0078146D02*
X0120453Y0078146D01*
X0120453Y0078745D02*
X0122077Y0078745D01*
X0122077Y0079343D02*
X0120453Y0079343D01*
X0120453Y0079942D02*
X0122077Y0079942D01*
X0122077Y0080540D02*
X0120453Y0080540D01*
X0120453Y0081139D02*
X0122077Y0081139D01*
X0122077Y0081737D02*
X0120453Y0081737D01*
X0120453Y0082336D02*
X0122077Y0082336D01*
X0122077Y0082934D02*
X0120453Y0082934D01*
X0120453Y0083533D02*
X0122077Y0083533D01*
X0122077Y0084131D02*
X0120453Y0084131D01*
X0120453Y0084730D02*
X0122077Y0084730D01*
X0122077Y0085328D02*
X0120453Y0085328D01*
X0120453Y0085927D02*
X0122077Y0085927D01*
X0122077Y0086525D02*
X0120453Y0086525D01*
X0120453Y0087124D02*
X0122077Y0087124D01*
X0122077Y0087722D02*
X0120453Y0087722D01*
X0120453Y0088321D02*
X0122077Y0088321D01*
X0122077Y0088919D02*
X0120453Y0088919D01*
X0120453Y0089518D02*
X0122077Y0089518D01*
X0122077Y0090116D02*
X0120453Y0090116D01*
X0120453Y0090715D02*
X0122077Y0090715D01*
X0122077Y0091313D02*
X0120453Y0091313D01*
X0120453Y0091912D02*
X0122077Y0091912D01*
X0122077Y0092510D02*
X0120453Y0092510D01*
X0120453Y0093109D02*
X0122077Y0093109D01*
X0122077Y0093707D02*
X0120453Y0093707D01*
X0120453Y0094306D02*
X0122077Y0094306D01*
X0122077Y0094904D02*
X0120453Y0094904D01*
X0120453Y0095503D02*
X0122077Y0095503D01*
X0122077Y0096101D02*
X0120453Y0096101D01*
X0120453Y0096700D02*
X0122077Y0096700D01*
X0122077Y0097298D02*
X0120453Y0097298D01*
X0120453Y0097897D02*
X0122077Y0097897D01*
X0122077Y0098496D02*
X0120453Y0098496D01*
X0120453Y0099094D02*
X0122077Y0099094D01*
X0122077Y0099693D02*
X0120453Y0099693D01*
X0120453Y0100291D02*
X0122077Y0100291D01*
X0122077Y0100890D02*
X0120453Y0100890D01*
X0120453Y0101488D02*
X0122077Y0101488D01*
X0122077Y0102087D02*
X0120453Y0102087D01*
X0120453Y0102685D02*
X0122077Y0102685D01*
X0122077Y0103284D02*
X0120453Y0103284D01*
X0120453Y0103882D02*
X0122077Y0103882D01*
X0122077Y0104481D02*
X0120453Y0104481D01*
X0120677Y0105079D02*
X0121797Y0105079D01*
X0121639Y0105678D02*
X0120835Y0105678D01*
X0120835Y0106276D02*
X0121639Y0106276D01*
X0121639Y0106875D02*
X0120835Y0106875D01*
X0120339Y0107473D02*
X0122135Y0107473D01*
X0122734Y0108072D02*
X0119740Y0108072D01*
X0117730Y0108072D02*
X0114737Y0108072D01*
X0115335Y0107473D02*
X0117132Y0107473D01*
X0116635Y0106875D02*
X0115832Y0106875D01*
X0115832Y0106276D02*
X0116635Y0106276D01*
X0116635Y0105678D02*
X0115832Y0105678D01*
X0115726Y0105079D02*
X0116793Y0105079D01*
X0117053Y0104481D02*
X0115726Y0104481D01*
X0115726Y0103882D02*
X0117053Y0103882D01*
X0117053Y0103284D02*
X0115726Y0103284D01*
X0115726Y0102685D02*
X0117053Y0102685D01*
X0117053Y0102087D02*
X0115726Y0102087D01*
X0115726Y0101488D02*
X0117053Y0101488D01*
X0117053Y0100890D02*
X0115726Y0100890D01*
X0115726Y0100291D02*
X0117053Y0100291D01*
X0117053Y0099693D02*
X0115726Y0099693D01*
X0115726Y0099094D02*
X0117053Y0099094D01*
X0117053Y0098496D02*
X0115726Y0098496D01*
X0115726Y0097897D02*
X0117053Y0097897D01*
X0117053Y0097298D02*
X0115726Y0097298D01*
X0115726Y0096700D02*
X0117053Y0096700D01*
X0117053Y0096101D02*
X0115726Y0096101D01*
X0115726Y0095503D02*
X0117053Y0095503D01*
X0117053Y0094904D02*
X0115726Y0094904D01*
X0115726Y0094306D02*
X0117053Y0094306D01*
X0117053Y0093707D02*
X0115726Y0093707D01*
X0115726Y0093109D02*
X0117053Y0093109D01*
X0117053Y0092510D02*
X0115726Y0092510D01*
X0115726Y0091912D02*
X0117053Y0091912D01*
X0117053Y0091313D02*
X0115726Y0091313D01*
X0115726Y0090715D02*
X0117053Y0090715D01*
X0117053Y0090116D02*
X0115726Y0090116D01*
X0115726Y0089518D02*
X0117053Y0089518D01*
X0117053Y0088919D02*
X0115726Y0088919D01*
X0115726Y0088321D02*
X0117053Y0088321D01*
X0117053Y0087722D02*
X0115726Y0087722D01*
X0115726Y0087124D02*
X0117053Y0087124D01*
X0117053Y0086525D02*
X0115726Y0086525D01*
X0115726Y0085927D02*
X0117053Y0085927D01*
X0117053Y0085328D02*
X0115726Y0085328D01*
X0115726Y0084730D02*
X0117053Y0084730D01*
X0117053Y0084131D02*
X0115726Y0084131D01*
X0115726Y0083533D02*
X0117053Y0083533D01*
X0117053Y0082934D02*
X0115726Y0082934D01*
X0115726Y0082336D02*
X0117053Y0082336D01*
X0117053Y0081737D02*
X0115726Y0081737D01*
X0115726Y0081139D02*
X0117053Y0081139D01*
X0117053Y0080540D02*
X0115726Y0080540D01*
X0115726Y0079942D02*
X0117053Y0079942D01*
X0117053Y0079343D02*
X0115726Y0079343D01*
X0115726Y0078745D02*
X0117053Y0078745D01*
X0117053Y0078146D02*
X0115726Y0078146D01*
X0115726Y0077548D02*
X0117053Y0077548D01*
X0117053Y0076949D02*
X0115726Y0076949D01*
X0115726Y0076351D02*
X0117053Y0076351D01*
X0117053Y0075752D02*
X0115726Y0075752D01*
X0115726Y0075154D02*
X0117053Y0075154D01*
X0117053Y0074555D02*
X0115726Y0074555D01*
X0115726Y0073957D02*
X0117053Y0073957D01*
X0117053Y0073358D02*
X0115726Y0073358D01*
X0115726Y0072760D02*
X0117053Y0072760D01*
X0117053Y0072161D02*
X0115726Y0072161D01*
X0115726Y0071563D02*
X0117053Y0071563D01*
X0117053Y0070964D02*
X0115726Y0070964D01*
X0115726Y0070365D02*
X0117053Y0070365D01*
X0117053Y0069767D02*
X0115726Y0069767D01*
X0115726Y0069168D02*
X0117053Y0069168D01*
X0117053Y0068570D02*
X0115726Y0068570D01*
X0115726Y0067971D02*
X0117053Y0067971D01*
X0117053Y0067373D02*
X0115726Y0067373D01*
X0115726Y0066774D02*
X0117053Y0066774D01*
X0117053Y0066176D02*
X0115726Y0066176D01*
X0115726Y0065577D02*
X0117053Y0065577D01*
X0117053Y0064979D02*
X0115726Y0064979D01*
X0115726Y0064380D02*
X0117053Y0064380D01*
X0117053Y0063782D02*
X0115726Y0063782D01*
X0115726Y0063183D02*
X0117053Y0063183D01*
X0117053Y0062585D02*
X0115726Y0062585D01*
X0115726Y0061986D02*
X0117053Y0061986D01*
X0117053Y0061388D02*
X0115726Y0061388D01*
X0115726Y0060789D02*
X0117053Y0060789D01*
X0117053Y0060191D02*
X0115726Y0060191D01*
X0115726Y0059592D02*
X0117053Y0059592D01*
X0117053Y0058994D02*
X0115726Y0058994D01*
X0115726Y0058395D02*
X0117053Y0058395D01*
X0117053Y0057797D02*
X0115791Y0057797D01*
X0116390Y0057198D02*
X0117615Y0057198D01*
X0118213Y0056600D02*
X0116988Y0056600D01*
X0117587Y0056001D02*
X0118812Y0056001D01*
X0119411Y0055403D02*
X0118185Y0055403D01*
X0118784Y0054804D02*
X0120009Y0054804D01*
X0120608Y0054206D02*
X0118851Y0054206D01*
X0118851Y0053607D02*
X0121206Y0053607D01*
X0121547Y0053009D02*
X0118851Y0053009D01*
X0118851Y0052410D02*
X0121547Y0052410D01*
X0121547Y0051812D02*
X0118851Y0051812D01*
X0118851Y0051213D02*
X0121547Y0051213D01*
X0121547Y0050615D02*
X0118851Y0050615D01*
X0118851Y0050016D02*
X0121547Y0050016D01*
X0121547Y0049418D02*
X0118851Y0049418D01*
X0118851Y0048819D02*
X0121547Y0048819D01*
X0121547Y0048221D02*
X0118851Y0048221D01*
X0118851Y0047622D02*
X0121547Y0047622D01*
X0121547Y0047024D02*
X0118851Y0047024D01*
X0118851Y0046425D02*
X0121547Y0046425D01*
X0121547Y0045827D02*
X0118851Y0045827D01*
X0118851Y0045228D02*
X0121547Y0045228D01*
X0121547Y0044630D02*
X0118851Y0044630D01*
X0118851Y0044031D02*
X0121547Y0044031D01*
X0121547Y0043432D02*
X0118851Y0043432D01*
X0118851Y0042834D02*
X0121547Y0042834D01*
X0121547Y0042235D02*
X0118851Y0042235D01*
X0118851Y0041637D02*
X0121547Y0041637D01*
X0121547Y0041038D02*
X0118851Y0041038D01*
X0118851Y0040440D02*
X0121547Y0040440D01*
X0121547Y0039841D02*
X0118851Y0039841D01*
X0118851Y0039243D02*
X0121547Y0039243D01*
X0121547Y0038644D02*
X0118851Y0038644D01*
X0118851Y0038046D02*
X0121547Y0038046D01*
X0121547Y0037447D02*
X0118851Y0037447D01*
X0118851Y0036849D02*
X0121547Y0036849D01*
X0121547Y0036250D02*
X0118851Y0036250D01*
X0118851Y0035652D02*
X0121547Y0035652D01*
X0121547Y0035053D02*
X0118851Y0035053D01*
X0118851Y0034455D02*
X0121547Y0034455D01*
X0121547Y0033856D02*
X0118851Y0033856D01*
X0119113Y0033258D02*
X0121219Y0033258D01*
X0120671Y0032659D02*
X0119661Y0032659D01*
X0115451Y0033856D02*
X0112937Y0033856D01*
X0112937Y0034455D02*
X0115451Y0034455D01*
X0115451Y0035053D02*
X0112937Y0035053D01*
X0112937Y0035652D02*
X0115451Y0035652D01*
X0115451Y0036250D02*
X0112937Y0036250D01*
X0112937Y0036849D02*
X0115451Y0036849D01*
X0115451Y0037447D02*
X0112937Y0037447D01*
X0112937Y0038046D02*
X0115451Y0038046D01*
X0115451Y0038644D02*
X0112937Y0038644D01*
X0112937Y0039243D02*
X0115451Y0039243D01*
X0115451Y0039841D02*
X0112937Y0039841D01*
X0112937Y0040440D02*
X0115451Y0040440D01*
X0115451Y0041038D02*
X0112937Y0041038D01*
X0112937Y0041637D02*
X0115451Y0041637D01*
X0115451Y0042235D02*
X0112937Y0042235D01*
X0112937Y0042834D02*
X0115451Y0042834D01*
X0115451Y0043432D02*
X0112937Y0043432D01*
X0112937Y0044031D02*
X0115451Y0044031D01*
X0115451Y0044630D02*
X0112937Y0044630D01*
X0112937Y0045228D02*
X0115451Y0045228D01*
X0115451Y0045827D02*
X0112937Y0045827D01*
X0112937Y0046425D02*
X0115451Y0046425D01*
X0115451Y0047024D02*
X0112937Y0047024D01*
X0112937Y0047622D02*
X0115451Y0047622D01*
X0115451Y0048221D02*
X0112937Y0048221D01*
X0112937Y0048819D02*
X0115451Y0048819D01*
X0115451Y0049418D02*
X0112937Y0049418D01*
X0112937Y0050016D02*
X0115451Y0050016D01*
X0115451Y0050615D02*
X0112937Y0050615D01*
X0112937Y0051213D02*
X0115451Y0051213D01*
X0115451Y0051812D02*
X0112937Y0051812D01*
X0112937Y0052410D02*
X0115451Y0052410D01*
X0115451Y0053009D02*
X0112937Y0053009D01*
X0112937Y0053607D02*
X0115172Y0053607D01*
X0114574Y0054206D02*
X0112937Y0054206D01*
X0112937Y0054804D02*
X0113975Y0054804D01*
X0113377Y0055403D02*
X0112675Y0055403D01*
X0112778Y0056001D02*
X0112076Y0056001D01*
X0112326Y0056600D02*
X0111477Y0056600D01*
X0110879Y0057198D02*
X0112326Y0057198D01*
X0112326Y0057797D02*
X0110442Y0057797D01*
X0110442Y0058395D02*
X0112326Y0058395D01*
X0112326Y0058994D02*
X0110442Y0058994D01*
X0110442Y0059592D02*
X0112326Y0059592D01*
X0112326Y0060191D02*
X0110442Y0060191D01*
X0110442Y0060789D02*
X0112326Y0060789D01*
X0112326Y0061388D02*
X0110442Y0061388D01*
X0110442Y0061986D02*
X0112326Y0061986D01*
X0112326Y0062585D02*
X0110442Y0062585D01*
X0110442Y0063183D02*
X0112326Y0063183D01*
X0112326Y0063782D02*
X0110442Y0063782D01*
X0110442Y0064380D02*
X0112326Y0064380D01*
X0112326Y0064979D02*
X0110442Y0064979D01*
X0110442Y0065577D02*
X0112326Y0065577D01*
X0112326Y0066176D02*
X0110442Y0066176D01*
X0110442Y0066774D02*
X0112326Y0066774D01*
X0112326Y0067373D02*
X0110442Y0067373D01*
X0110442Y0067971D02*
X0112326Y0067971D01*
X0112326Y0068570D02*
X0110442Y0068570D01*
X0110442Y0069168D02*
X0112326Y0069168D01*
X0112326Y0069767D02*
X0110442Y0069767D01*
X0110442Y0070365D02*
X0112326Y0070365D01*
X0112326Y0070964D02*
X0110442Y0070964D01*
X0110442Y0071563D02*
X0112326Y0071563D01*
X0112326Y0072161D02*
X0110442Y0072161D01*
X0110442Y0072760D02*
X0112326Y0072760D01*
X0112326Y0073358D02*
X0110442Y0073358D01*
X0110442Y0073957D02*
X0112326Y0073957D01*
X0112326Y0074555D02*
X0110442Y0074555D01*
X0110442Y0075154D02*
X0112326Y0075154D01*
X0112326Y0075752D02*
X0110442Y0075752D01*
X0110442Y0076351D02*
X0112326Y0076351D01*
X0112326Y0076949D02*
X0110442Y0076949D01*
X0110442Y0077548D02*
X0112326Y0077548D01*
X0112326Y0078146D02*
X0110442Y0078146D01*
X0110442Y0078745D02*
X0112326Y0078745D01*
X0112326Y0079343D02*
X0110442Y0079343D01*
X0110442Y0079942D02*
X0112326Y0079942D01*
X0112326Y0080540D02*
X0110442Y0080540D01*
X0110442Y0081139D02*
X0112326Y0081139D01*
X0112326Y0081737D02*
X0110442Y0081737D01*
X0110442Y0082336D02*
X0112326Y0082336D01*
X0112326Y0082934D02*
X0110442Y0082934D01*
X0110442Y0083533D02*
X0112326Y0083533D01*
X0112326Y0084131D02*
X0110442Y0084131D01*
X0110442Y0084730D02*
X0112326Y0084730D01*
X0112326Y0085328D02*
X0110442Y0085328D01*
X0110442Y0085927D02*
X0112326Y0085927D01*
X0112326Y0086525D02*
X0110442Y0086525D01*
X0110442Y0087124D02*
X0112326Y0087124D01*
X0112326Y0087722D02*
X0110442Y0087722D01*
X0110442Y0088321D02*
X0112326Y0088321D01*
X0112326Y0088919D02*
X0110442Y0088919D01*
X0110442Y0089518D02*
X0112326Y0089518D01*
X0112326Y0090116D02*
X0110442Y0090116D01*
X0110442Y0090715D02*
X0112326Y0090715D01*
X0112326Y0091313D02*
X0110442Y0091313D01*
X0110442Y0091912D02*
X0112326Y0091912D01*
X0112326Y0092510D02*
X0110442Y0092510D01*
X0110442Y0093109D02*
X0112326Y0093109D01*
X0112326Y0093707D02*
X0110442Y0093707D01*
X0110442Y0094306D02*
X0112326Y0094306D01*
X0112326Y0094904D02*
X0110442Y0094904D01*
X0110442Y0095503D02*
X0112326Y0095503D01*
X0112326Y0096101D02*
X0110442Y0096101D01*
X0110442Y0096700D02*
X0112326Y0096700D01*
X0112326Y0097298D02*
X0110442Y0097298D01*
X0110442Y0097897D02*
X0112326Y0097897D01*
X0112326Y0098496D02*
X0110442Y0098496D01*
X0110442Y0099094D02*
X0112326Y0099094D01*
X0112326Y0099693D02*
X0110442Y0099693D01*
X0110442Y0100291D02*
X0112326Y0100291D01*
X0112326Y0100890D02*
X0110442Y0100890D01*
X0110442Y0101488D02*
X0112326Y0101488D01*
X0112326Y0102087D02*
X0110442Y0102087D01*
X0110442Y0102685D02*
X0112326Y0102685D01*
X0112326Y0103284D02*
X0110442Y0103284D01*
X0110442Y0103882D02*
X0112326Y0103882D01*
X0112326Y0104481D02*
X0110442Y0104481D01*
X0110675Y0105079D02*
X0111790Y0105079D01*
X0111632Y0105678D02*
X0110833Y0105678D01*
X0110833Y0106276D02*
X0111632Y0106276D01*
X0111632Y0106875D02*
X0110833Y0106875D01*
X0110337Y0107473D02*
X0112128Y0107473D01*
X0112727Y0108072D02*
X0109739Y0108072D01*
X0107728Y0108072D02*
X0104736Y0108072D01*
X0105334Y0107473D02*
X0107130Y0107473D01*
X0106633Y0106875D02*
X0105831Y0106875D01*
X0105831Y0106276D02*
X0106633Y0106276D01*
X0106633Y0105678D02*
X0105831Y0105678D01*
X0105673Y0105079D02*
X0106791Y0105079D01*
X0107042Y0104481D02*
X0105468Y0104481D01*
X0105468Y0103882D02*
X0107042Y0103882D01*
X0107042Y0103284D02*
X0105468Y0103284D01*
X0105468Y0102685D02*
X0107042Y0102685D01*
X0107042Y0102087D02*
X0105468Y0102087D01*
X0105468Y0101488D02*
X0107042Y0101488D01*
X0107042Y0100890D02*
X0105468Y0100890D01*
X0105468Y0100291D02*
X0107042Y0100291D01*
X0107042Y0099693D02*
X0105468Y0099693D01*
X0105468Y0099094D02*
X0107042Y0099094D01*
X0107042Y0098496D02*
X0105468Y0098496D01*
X0105468Y0097897D02*
X0107042Y0097897D01*
X0107042Y0097298D02*
X0105468Y0097298D01*
X0105468Y0096700D02*
X0107042Y0096700D01*
X0107042Y0096101D02*
X0105468Y0096101D01*
X0105468Y0095503D02*
X0107042Y0095503D01*
X0107042Y0094904D02*
X0105468Y0094904D01*
X0105468Y0094306D02*
X0107042Y0094306D01*
X0107042Y0093707D02*
X0105468Y0093707D01*
X0105468Y0093109D02*
X0107042Y0093109D01*
X0107042Y0092510D02*
X0105468Y0092510D01*
X0105468Y0091912D02*
X0107042Y0091912D01*
X0107042Y0091313D02*
X0105468Y0091313D01*
X0105468Y0090715D02*
X0107042Y0090715D01*
X0107042Y0090116D02*
X0105468Y0090116D01*
X0105468Y0089518D02*
X0107042Y0089518D01*
X0107042Y0088919D02*
X0105468Y0088919D01*
X0105468Y0088321D02*
X0107042Y0088321D01*
X0107042Y0087722D02*
X0105468Y0087722D01*
X0105468Y0087124D02*
X0107042Y0087124D01*
X0107042Y0086525D02*
X0105468Y0086525D01*
X0105468Y0085927D02*
X0107042Y0085927D01*
X0107042Y0085328D02*
X0105468Y0085328D01*
X0105468Y0084730D02*
X0107042Y0084730D01*
X0107042Y0084131D02*
X0105468Y0084131D01*
X0105468Y0083533D02*
X0107042Y0083533D01*
X0107042Y0082934D02*
X0105468Y0082934D01*
X0105468Y0082336D02*
X0107042Y0082336D01*
X0107042Y0081737D02*
X0105468Y0081737D01*
X0105468Y0081139D02*
X0107042Y0081139D01*
X0107042Y0080540D02*
X0105468Y0080540D01*
X0105468Y0079942D02*
X0107042Y0079942D01*
X0107042Y0079343D02*
X0105468Y0079343D01*
X0105468Y0078745D02*
X0107042Y0078745D01*
X0107042Y0078146D02*
X0105468Y0078146D01*
X0105468Y0077548D02*
X0107042Y0077548D01*
X0107042Y0076949D02*
X0105468Y0076949D01*
X0105468Y0076351D02*
X0107042Y0076351D01*
X0107042Y0075752D02*
X0105468Y0075752D01*
X0105468Y0075154D02*
X0107042Y0075154D01*
X0107042Y0074555D02*
X0105468Y0074555D01*
X0105468Y0073957D02*
X0107042Y0073957D01*
X0107042Y0073358D02*
X0105468Y0073358D01*
X0105468Y0072760D02*
X0107042Y0072760D01*
X0107042Y0072161D02*
X0105468Y0072161D01*
X0105468Y0071563D02*
X0107042Y0071563D01*
X0107042Y0070964D02*
X0105468Y0070964D01*
X0105468Y0070365D02*
X0107042Y0070365D01*
X0107042Y0069767D02*
X0105468Y0069767D01*
X0105468Y0069168D02*
X0107042Y0069168D01*
X0107042Y0068570D02*
X0105468Y0068570D01*
X0105468Y0067971D02*
X0107042Y0067971D01*
X0107042Y0067373D02*
X0105468Y0067373D01*
X0105468Y0066774D02*
X0107042Y0066774D01*
X0107042Y0066176D02*
X0105468Y0066176D01*
X0105468Y0065577D02*
X0107042Y0065577D01*
X0107042Y0064979D02*
X0105468Y0064979D01*
X0105468Y0064380D02*
X0107042Y0064380D01*
X0107042Y0063782D02*
X0105468Y0063782D01*
X0105468Y0063183D02*
X0107042Y0063183D01*
X0107042Y0062585D02*
X0105468Y0062585D01*
X0105468Y0061986D02*
X0107042Y0061986D01*
X0107042Y0061388D02*
X0105468Y0061388D01*
X0105468Y0060789D02*
X0107042Y0060789D01*
X0107042Y0060191D02*
X0105468Y0060191D01*
X0105468Y0059592D02*
X0107042Y0059592D01*
X0107042Y0058994D02*
X0105468Y0058994D01*
X0105468Y0058395D02*
X0107042Y0058395D01*
X0107042Y0057797D02*
X0105468Y0057797D01*
X0105468Y0057198D02*
X0107042Y0057198D01*
X0107042Y0056600D02*
X0105774Y0056600D01*
X0106372Y0056001D02*
X0107268Y0056001D01*
X0106971Y0055403D02*
X0107866Y0055403D01*
X0108038Y0055231D02*
X0108038Y0055231D01*
X0108465Y0054804D02*
X0107031Y0054804D01*
X0107031Y0054206D02*
X0109063Y0054206D01*
X0109537Y0053607D02*
X0107031Y0053607D01*
X0107031Y0053009D02*
X0109537Y0053009D01*
X0109537Y0052410D02*
X0107031Y0052410D01*
X0107031Y0051812D02*
X0109537Y0051812D01*
X0109537Y0051213D02*
X0107031Y0051213D01*
X0107031Y0050615D02*
X0109537Y0050615D01*
X0109537Y0050016D02*
X0107031Y0050016D01*
X0107031Y0049418D02*
X0109537Y0049418D01*
X0109537Y0048819D02*
X0107031Y0048819D01*
X0107031Y0048221D02*
X0109537Y0048221D01*
X0109537Y0047622D02*
X0107031Y0047622D01*
X0107031Y0047024D02*
X0109537Y0047024D01*
X0109537Y0046425D02*
X0107031Y0046425D01*
X0107031Y0045827D02*
X0109537Y0045827D01*
X0109537Y0045228D02*
X0107031Y0045228D01*
X0107031Y0044630D02*
X0109537Y0044630D01*
X0109537Y0044031D02*
X0107031Y0044031D01*
X0107031Y0043432D02*
X0109537Y0043432D01*
X0109537Y0042834D02*
X0107031Y0042834D01*
X0107031Y0042235D02*
X0109537Y0042235D01*
X0109537Y0041637D02*
X0107031Y0041637D01*
X0107031Y0041038D02*
X0109537Y0041038D01*
X0109537Y0040440D02*
X0107031Y0040440D01*
X0107031Y0039841D02*
X0109537Y0039841D01*
X0109537Y0039243D02*
X0107031Y0039243D01*
X0107031Y0038644D02*
X0109537Y0038644D01*
X0109537Y0038046D02*
X0107031Y0038046D01*
X0107031Y0037447D02*
X0109537Y0037447D01*
X0109537Y0036849D02*
X0107031Y0036849D01*
X0107031Y0036250D02*
X0109537Y0036250D01*
X0109537Y0035652D02*
X0107031Y0035652D01*
X0107031Y0035053D02*
X0109537Y0035053D01*
X0109537Y0034455D02*
X0107031Y0034455D01*
X0107031Y0033856D02*
X0109537Y0033856D01*
X0109329Y0033258D02*
X0107223Y0033258D01*
X0107771Y0032659D02*
X0108781Y0032659D01*
X0113168Y0033258D02*
X0115274Y0033258D01*
X0114726Y0032659D02*
X0113716Y0032659D01*
X0103631Y0033856D02*
X0100713Y0033856D01*
X0100713Y0034455D02*
X0103631Y0034455D01*
X0103631Y0035053D02*
X0100713Y0035053D01*
X0100713Y0035652D02*
X0103631Y0035652D01*
X0103631Y0036250D02*
X0100713Y0036250D01*
X0100713Y0036849D02*
X0103631Y0036849D01*
X0103631Y0037447D02*
X0100713Y0037447D01*
X0100713Y0038046D02*
X0103631Y0038046D01*
X0103631Y0038644D02*
X0100713Y0038644D01*
X0100713Y0039243D02*
X0103631Y0039243D01*
X0103631Y0039841D02*
X0100713Y0039841D01*
X0100713Y0040440D02*
X0103631Y0040440D01*
X0103631Y0041038D02*
X0100713Y0041038D01*
X0100713Y0041637D02*
X0103631Y0041637D01*
X0103631Y0042235D02*
X0100713Y0042235D01*
X0100713Y0042834D02*
X0103631Y0042834D01*
X0103631Y0043432D02*
X0100713Y0043432D01*
X0100713Y0044031D02*
X0103631Y0044031D01*
X0103631Y0044630D02*
X0100713Y0044630D01*
X0100713Y0045228D02*
X0103631Y0045228D01*
X0103631Y0045827D02*
X0100713Y0045827D01*
X0100713Y0046425D02*
X0103631Y0046425D01*
X0103631Y0047024D02*
X0100713Y0047024D01*
X0100713Y0047622D02*
X0103631Y0047622D01*
X0103631Y0048221D02*
X0100713Y0048221D01*
X0100713Y0048819D02*
X0103631Y0048819D01*
X0103631Y0049418D02*
X0100713Y0049418D01*
X0100713Y0050016D02*
X0103631Y0050016D01*
X0103631Y0050615D02*
X0100713Y0050615D01*
X0100713Y0051213D02*
X0103631Y0051213D01*
X0103631Y0051812D02*
X0100713Y0051812D01*
X0100713Y0052410D02*
X0103631Y0052410D01*
X0103631Y0053009D02*
X0100713Y0053009D01*
X0100713Y0053607D02*
X0103631Y0053607D01*
X0103359Y0054206D02*
X0100713Y0054206D01*
X0100713Y0054804D02*
X0102761Y0054804D01*
X0102162Y0055403D02*
X0100713Y0055403D01*
X0100713Y0056001D02*
X0102068Y0056001D01*
X0102068Y0056600D02*
X0100713Y0056600D01*
X0100713Y0057198D02*
X0102068Y0057198D01*
X0102068Y0057797D02*
X0100713Y0057797D01*
X0100713Y0058395D02*
X0102068Y0058395D01*
X0102068Y0058994D02*
X0100713Y0058994D01*
X0100713Y0059592D02*
X0102068Y0059592D01*
X0102068Y0060191D02*
X0100713Y0060191D01*
X0100713Y0060789D02*
X0102068Y0060789D01*
X0102068Y0061388D02*
X0100713Y0061388D01*
X0100713Y0061986D02*
X0102068Y0061986D01*
X0102068Y0062585D02*
X0100713Y0062585D01*
X0100713Y0063183D02*
X0102068Y0063183D01*
X0102068Y0063782D02*
X0100713Y0063782D01*
X0100713Y0064380D02*
X0102068Y0064380D01*
X0102068Y0064979D02*
X0100713Y0064979D01*
X0100713Y0065577D02*
X0102068Y0065577D01*
X0102068Y0066176D02*
X0100713Y0066176D01*
X0100713Y0066774D02*
X0102068Y0066774D01*
X0102068Y0067373D02*
X0100713Y0067373D01*
X0100713Y0067971D02*
X0102068Y0067971D01*
X0102068Y0068570D02*
X0100713Y0068570D01*
X0100713Y0069168D02*
X0102068Y0069168D01*
X0102068Y0069767D02*
X0100713Y0069767D01*
X0100713Y0070365D02*
X0102068Y0070365D01*
X0102068Y0070964D02*
X0100713Y0070964D01*
X0100713Y0071563D02*
X0102068Y0071563D01*
X0102068Y0072161D02*
X0100713Y0072161D01*
X0100713Y0072760D02*
X0102068Y0072760D01*
X0102068Y0073358D02*
X0100713Y0073358D01*
X0100713Y0073957D02*
X0102068Y0073957D01*
X0102068Y0074555D02*
X0100713Y0074555D01*
X0100713Y0075154D02*
X0102068Y0075154D01*
X0102068Y0075752D02*
X0100713Y0075752D01*
X0100713Y0076351D02*
X0102068Y0076351D01*
X0102068Y0076949D02*
X0100713Y0076949D01*
X0100713Y0077548D02*
X0102068Y0077548D01*
X0102068Y0078146D02*
X0100713Y0078146D01*
X0100713Y0078745D02*
X0102068Y0078745D01*
X0102068Y0079343D02*
X0100713Y0079343D01*
X0100713Y0079942D02*
X0102068Y0079942D01*
X0102068Y0080540D02*
X0100713Y0080540D01*
X0100713Y0081139D02*
X0102068Y0081139D01*
X0102068Y0081737D02*
X0100713Y0081737D01*
X0100713Y0082336D02*
X0102068Y0082336D01*
X0102068Y0082934D02*
X0100713Y0082934D01*
X0100713Y0083533D02*
X0102068Y0083533D01*
X0102068Y0084131D02*
X0100713Y0084131D01*
X0100713Y0084730D02*
X0102068Y0084730D01*
X0102068Y0085328D02*
X0100713Y0085328D01*
X0100713Y0085927D02*
X0102068Y0085927D01*
X0102068Y0086525D02*
X0100713Y0086525D01*
X0100713Y0087124D02*
X0102068Y0087124D01*
X0102068Y0087722D02*
X0100713Y0087722D01*
X0100713Y0088321D02*
X0102068Y0088321D01*
X0102068Y0088919D02*
X0100713Y0088919D01*
X0100713Y0089518D02*
X0102068Y0089518D01*
X0102068Y0090116D02*
X0100713Y0090116D01*
X0100713Y0090715D02*
X0102068Y0090715D01*
X0102068Y0091313D02*
X0100713Y0091313D01*
X0100713Y0091912D02*
X0102068Y0091912D01*
X0102068Y0092510D02*
X0100713Y0092510D01*
X0100713Y0093109D02*
X0102068Y0093109D01*
X0102068Y0093707D02*
X0100713Y0093707D01*
X0100713Y0094306D02*
X0102068Y0094306D01*
X0102068Y0094904D02*
X0100713Y0094904D01*
X0100713Y0095503D02*
X0102068Y0095503D01*
X0102068Y0096101D02*
X0100713Y0096101D01*
X0100713Y0096700D02*
X0102068Y0096700D01*
X0102068Y0097298D02*
X0100713Y0097298D01*
X0100713Y0097897D02*
X0102068Y0097897D01*
X0102068Y0098496D02*
X0100713Y0098496D01*
X0100713Y0099094D02*
X0102068Y0099094D01*
X0102068Y0099693D02*
X0100713Y0099693D01*
X0100713Y0100291D02*
X0102068Y0100291D01*
X0102068Y0100890D02*
X0100713Y0100890D01*
X0100713Y0101488D02*
X0102068Y0101488D01*
X0102068Y0102087D02*
X0100713Y0102087D01*
X0100713Y0102685D02*
X0102068Y0102685D01*
X0102068Y0103284D02*
X0100713Y0103284D01*
X0100713Y0103882D02*
X0102068Y0103882D01*
X0102068Y0104481D02*
X0100713Y0104481D01*
X0100713Y0105079D02*
X0101789Y0105079D01*
X0101631Y0105678D02*
X0100835Y0105678D01*
X0100835Y0106276D02*
X0101631Y0106276D01*
X0101631Y0106875D02*
X0100835Y0106875D01*
X0100338Y0107473D02*
X0102127Y0107473D01*
X0102726Y0108072D02*
X0099740Y0108072D01*
X0097730Y0108072D02*
X0094735Y0108072D01*
X0095333Y0107473D02*
X0097131Y0107473D01*
X0096635Y0106875D02*
X0095830Y0106875D01*
X0095830Y0106276D02*
X0096635Y0106276D01*
X0096635Y0105678D02*
X0095830Y0105678D01*
X0095672Y0105079D02*
X0096793Y0105079D01*
X0097313Y0104481D02*
X0095263Y0104481D01*
X0095263Y0103882D02*
X0097313Y0103882D01*
X0097313Y0103284D02*
X0095263Y0103284D01*
X0095263Y0102685D02*
X0097313Y0102685D01*
X0097313Y0102087D02*
X0095263Y0102087D01*
X0095263Y0101488D02*
X0097313Y0101488D01*
X0097313Y0100890D02*
X0095263Y0100890D01*
X0095263Y0100291D02*
X0097313Y0100291D01*
X0097313Y0099693D02*
X0095263Y0099693D01*
X0095263Y0099094D02*
X0097313Y0099094D01*
X0097313Y0098496D02*
X0095263Y0098496D01*
X0095263Y0097897D02*
X0097313Y0097897D01*
X0097313Y0097298D02*
X0095263Y0097298D01*
X0095263Y0096700D02*
X0097313Y0096700D01*
X0097313Y0096101D02*
X0095263Y0096101D01*
X0095263Y0095503D02*
X0097313Y0095503D01*
X0097313Y0094904D02*
X0095263Y0094904D01*
X0095263Y0094306D02*
X0097313Y0094306D01*
X0097313Y0093707D02*
X0095263Y0093707D01*
X0095263Y0093109D02*
X0097313Y0093109D01*
X0097313Y0092510D02*
X0095263Y0092510D01*
X0095263Y0091912D02*
X0097313Y0091912D01*
X0097313Y0091313D02*
X0095263Y0091313D01*
X0095263Y0090715D02*
X0097313Y0090715D01*
X0097313Y0090116D02*
X0095263Y0090116D01*
X0095263Y0089518D02*
X0097313Y0089518D01*
X0097313Y0088919D02*
X0095263Y0088919D01*
X0095263Y0088321D02*
X0097313Y0088321D01*
X0097313Y0087722D02*
X0095263Y0087722D01*
X0095263Y0087124D02*
X0097313Y0087124D01*
X0097313Y0086525D02*
X0095263Y0086525D01*
X0095263Y0085927D02*
X0097313Y0085927D01*
X0097313Y0085328D02*
X0095263Y0085328D01*
X0095263Y0084730D02*
X0097313Y0084730D01*
X0097313Y0084131D02*
X0095263Y0084131D01*
X0095263Y0083533D02*
X0097313Y0083533D01*
X0097313Y0082934D02*
X0095263Y0082934D01*
X0095263Y0082336D02*
X0097313Y0082336D01*
X0097313Y0081737D02*
X0095263Y0081737D01*
X0095263Y0081139D02*
X0097313Y0081139D01*
X0097313Y0080540D02*
X0095263Y0080540D01*
X0095263Y0079942D02*
X0097313Y0079942D01*
X0097313Y0079343D02*
X0095263Y0079343D01*
X0095263Y0078745D02*
X0097313Y0078745D01*
X0097313Y0078146D02*
X0095263Y0078146D01*
X0095263Y0077548D02*
X0097313Y0077548D01*
X0097313Y0076949D02*
X0095263Y0076949D01*
X0095263Y0076351D02*
X0097313Y0076351D01*
X0097313Y0075752D02*
X0095263Y0075752D01*
X0095263Y0075154D02*
X0097313Y0075154D01*
X0097313Y0074555D02*
X0095263Y0074555D01*
X0095263Y0073957D02*
X0097313Y0073957D01*
X0097313Y0073358D02*
X0095263Y0073358D01*
X0095263Y0072760D02*
X0097313Y0072760D01*
X0097313Y0072161D02*
X0095263Y0072161D01*
X0095263Y0071563D02*
X0097313Y0071563D01*
X0097313Y0070964D02*
X0095263Y0070964D01*
X0095263Y0070365D02*
X0097313Y0070365D01*
X0097313Y0069767D02*
X0095263Y0069767D01*
X0095263Y0069168D02*
X0097313Y0069168D01*
X0097313Y0068570D02*
X0095263Y0068570D01*
X0095263Y0067971D02*
X0097313Y0067971D01*
X0097313Y0067373D02*
X0095263Y0067373D01*
X0095263Y0066774D02*
X0097313Y0066774D01*
X0097313Y0066176D02*
X0095263Y0066176D01*
X0095263Y0065577D02*
X0097313Y0065577D01*
X0097313Y0064979D02*
X0095263Y0064979D01*
X0095263Y0064380D02*
X0097313Y0064380D01*
X0097313Y0063782D02*
X0095263Y0063782D01*
X0095263Y0063183D02*
X0097313Y0063183D01*
X0097313Y0062585D02*
X0095263Y0062585D01*
X0095263Y0061986D02*
X0097313Y0061986D01*
X0097313Y0061388D02*
X0095263Y0061388D01*
X0095263Y0060789D02*
X0097313Y0060789D01*
X0097313Y0060191D02*
X0095263Y0060191D01*
X0095263Y0059592D02*
X0097313Y0059592D01*
X0097313Y0058994D02*
X0095263Y0058994D01*
X0095263Y0058395D02*
X0097313Y0058395D01*
X0097313Y0057797D02*
X0095263Y0057797D01*
X0095263Y0057198D02*
X0097313Y0057198D01*
X0097313Y0056600D02*
X0095263Y0056600D01*
X0095263Y0056001D02*
X0097313Y0056001D01*
X0097313Y0055403D02*
X0095263Y0055403D01*
X0095263Y0054804D02*
X0097313Y0054804D01*
X0097313Y0054206D02*
X0095263Y0054206D01*
X0095263Y0053607D02*
X0097313Y0053607D01*
X0097313Y0053009D02*
X0095263Y0053009D01*
X0095263Y0052410D02*
X0097313Y0052410D01*
X0097313Y0051812D02*
X0095263Y0051812D01*
X0095263Y0051213D02*
X0097313Y0051213D01*
X0097313Y0050615D02*
X0095263Y0050615D01*
X0095263Y0050016D02*
X0097313Y0050016D01*
X0097313Y0049418D02*
X0095263Y0049418D01*
X0095263Y0048819D02*
X0097313Y0048819D01*
X0097313Y0048221D02*
X0095263Y0048221D01*
X0095263Y0047622D02*
X0097313Y0047622D01*
X0097313Y0047024D02*
X0095263Y0047024D01*
X0095263Y0046425D02*
X0097313Y0046425D01*
X0097313Y0045827D02*
X0095263Y0045827D01*
X0095263Y0045228D02*
X0097313Y0045228D01*
X0097313Y0044630D02*
X0095263Y0044630D01*
X0095263Y0044031D02*
X0097313Y0044031D01*
X0097313Y0043432D02*
X0095263Y0043432D01*
X0095263Y0042834D02*
X0097313Y0042834D01*
X0097313Y0042235D02*
X0095263Y0042235D01*
X0095263Y0041637D02*
X0097313Y0041637D01*
X0097313Y0041038D02*
X0095263Y0041038D01*
X0095263Y0040440D02*
X0097313Y0040440D01*
X0097313Y0039841D02*
X0095263Y0039841D01*
X0095263Y0039243D02*
X0097313Y0039243D01*
X0097313Y0038644D02*
X0095263Y0038644D01*
X0095263Y0038046D02*
X0097313Y0038046D01*
X0097313Y0037447D02*
X0095263Y0037447D01*
X0095263Y0036849D02*
X0097313Y0036849D01*
X0097313Y0036250D02*
X0095263Y0036250D01*
X0095263Y0035652D02*
X0097313Y0035652D01*
X0097313Y0035053D02*
X0095263Y0035053D01*
X0095263Y0034455D02*
X0097313Y0034455D01*
X0097313Y0033856D02*
X0095263Y0033856D01*
X0095333Y0033258D02*
X0097313Y0033258D01*
X0096891Y0032659D02*
X0095881Y0032659D01*
X0091863Y0033856D02*
X0089166Y0033856D01*
X0089166Y0034455D02*
X0091863Y0034455D01*
X0091863Y0035053D02*
X0089166Y0035053D01*
X0089166Y0035652D02*
X0091863Y0035652D01*
X0091863Y0036250D02*
X0089166Y0036250D01*
X0089166Y0036849D02*
X0091863Y0036849D01*
X0091863Y0037447D02*
X0089166Y0037447D01*
X0089166Y0038046D02*
X0091863Y0038046D01*
X0091863Y0038644D02*
X0089166Y0038644D01*
X0089166Y0039243D02*
X0091863Y0039243D01*
X0091863Y0039841D02*
X0089166Y0039841D01*
X0089166Y0040440D02*
X0091863Y0040440D01*
X0091863Y0041038D02*
X0089166Y0041038D01*
X0089166Y0041637D02*
X0091863Y0041637D01*
X0091863Y0042235D02*
X0089166Y0042235D01*
X0089166Y0042834D02*
X0091863Y0042834D01*
X0091863Y0043432D02*
X0089166Y0043432D01*
X0089166Y0044031D02*
X0091863Y0044031D01*
X0091863Y0044630D02*
X0089166Y0044630D01*
X0089166Y0045228D02*
X0091863Y0045228D01*
X0091863Y0045827D02*
X0089166Y0045827D01*
X0089166Y0046425D02*
X0091863Y0046425D01*
X0091863Y0047024D02*
X0089166Y0047024D01*
X0089166Y0047622D02*
X0091863Y0047622D01*
X0091863Y0048221D02*
X0089166Y0048221D01*
X0089166Y0048819D02*
X0091863Y0048819D01*
X0091863Y0049418D02*
X0089166Y0049418D01*
X0089166Y0050016D02*
X0091863Y0050016D01*
X0091863Y0050615D02*
X0089166Y0050615D01*
X0089166Y0051213D02*
X0091863Y0051213D01*
X0091863Y0051812D02*
X0089166Y0051812D01*
X0089166Y0052410D02*
X0091863Y0052410D01*
X0091863Y0053009D02*
X0089166Y0053009D01*
X0089166Y0053607D02*
X0091863Y0053607D01*
X0091863Y0054206D02*
X0089166Y0054206D01*
X0089166Y0054804D02*
X0091863Y0054804D01*
X0091863Y0055403D02*
X0089487Y0055403D01*
X0090086Y0056001D02*
X0091863Y0056001D01*
X0091863Y0056600D02*
X0090477Y0056600D01*
X0090477Y0057198D02*
X0091863Y0057198D01*
X0091863Y0057797D02*
X0090477Y0057797D01*
X0090477Y0058395D02*
X0091863Y0058395D01*
X0091863Y0058994D02*
X0090477Y0058994D01*
X0090477Y0059592D02*
X0091863Y0059592D01*
X0091863Y0060191D02*
X0090477Y0060191D01*
X0090477Y0060789D02*
X0091863Y0060789D01*
X0091863Y0061388D02*
X0090477Y0061388D01*
X0090477Y0061986D02*
X0091863Y0061986D01*
X0091863Y0062585D02*
X0090477Y0062585D01*
X0090477Y0063183D02*
X0091863Y0063183D01*
X0091863Y0063782D02*
X0090477Y0063782D01*
X0090477Y0064380D02*
X0091863Y0064380D01*
X0091863Y0064979D02*
X0090477Y0064979D01*
X0090477Y0065577D02*
X0091863Y0065577D01*
X0091863Y0066176D02*
X0090477Y0066176D01*
X0090477Y0066774D02*
X0091863Y0066774D01*
X0091863Y0067373D02*
X0090477Y0067373D01*
X0090477Y0067971D02*
X0091863Y0067971D01*
X0091863Y0068570D02*
X0090477Y0068570D01*
X0090477Y0069168D02*
X0091863Y0069168D01*
X0091863Y0069767D02*
X0090477Y0069767D01*
X0090477Y0070365D02*
X0091863Y0070365D01*
X0091863Y0070964D02*
X0090477Y0070964D01*
X0090477Y0071563D02*
X0091863Y0071563D01*
X0091863Y0072161D02*
X0090477Y0072161D01*
X0090477Y0072760D02*
X0091863Y0072760D01*
X0091863Y0073358D02*
X0090477Y0073358D01*
X0090477Y0073957D02*
X0091863Y0073957D01*
X0091863Y0074555D02*
X0090477Y0074555D01*
X0090477Y0075154D02*
X0091863Y0075154D01*
X0091863Y0075752D02*
X0090477Y0075752D01*
X0090477Y0076351D02*
X0091863Y0076351D01*
X0091863Y0076949D02*
X0090477Y0076949D01*
X0090477Y0077548D02*
X0091863Y0077548D01*
X0091863Y0078146D02*
X0090477Y0078146D01*
X0090477Y0078745D02*
X0091863Y0078745D01*
X0091863Y0079343D02*
X0090477Y0079343D01*
X0090477Y0079942D02*
X0091863Y0079942D01*
X0091863Y0080540D02*
X0090477Y0080540D01*
X0090477Y0081139D02*
X0091863Y0081139D01*
X0091863Y0081737D02*
X0090477Y0081737D01*
X0090477Y0082336D02*
X0091863Y0082336D01*
X0091863Y0082934D02*
X0090477Y0082934D01*
X0090477Y0083533D02*
X0091863Y0083533D01*
X0091863Y0084131D02*
X0090477Y0084131D01*
X0090477Y0084730D02*
X0091863Y0084730D01*
X0091863Y0085328D02*
X0090477Y0085328D01*
X0090477Y0085927D02*
X0091863Y0085927D01*
X0091863Y0086525D02*
X0090477Y0086525D01*
X0090477Y0087124D02*
X0091863Y0087124D01*
X0091863Y0087722D02*
X0090477Y0087722D01*
X0090477Y0088321D02*
X0091863Y0088321D01*
X0091863Y0088919D02*
X0090477Y0088919D01*
X0090477Y0089518D02*
X0091863Y0089518D01*
X0091863Y0090116D02*
X0090477Y0090116D01*
X0090477Y0090715D02*
X0091863Y0090715D01*
X0091863Y0091313D02*
X0090477Y0091313D01*
X0090477Y0091912D02*
X0091863Y0091912D01*
X0091863Y0092510D02*
X0090477Y0092510D01*
X0090477Y0093109D02*
X0091863Y0093109D01*
X0091863Y0093707D02*
X0090477Y0093707D01*
X0090477Y0094306D02*
X0091863Y0094306D01*
X0091863Y0094904D02*
X0090477Y0094904D01*
X0090477Y0095503D02*
X0091863Y0095503D01*
X0091863Y0096101D02*
X0090477Y0096101D01*
X0090477Y0096700D02*
X0091863Y0096700D01*
X0091863Y0097298D02*
X0090477Y0097298D01*
X0090477Y0097897D02*
X0091863Y0097897D01*
X0091863Y0098496D02*
X0090477Y0098496D01*
X0090477Y0099094D02*
X0091863Y0099094D01*
X0091863Y0099693D02*
X0090477Y0099693D01*
X0090477Y0100291D02*
X0091863Y0100291D01*
X0091863Y0100890D02*
X0090477Y0100890D01*
X0090477Y0101488D02*
X0091863Y0101488D01*
X0091863Y0102087D02*
X0090477Y0102087D01*
X0090477Y0102685D02*
X0091863Y0102685D01*
X0091863Y0103284D02*
X0090477Y0103284D01*
X0090477Y0103882D02*
X0091863Y0103882D01*
X0091863Y0104481D02*
X0090477Y0104481D01*
X0090678Y0105079D02*
X0091788Y0105079D01*
X0091630Y0105678D02*
X0090836Y0105678D01*
X0090836Y0106276D02*
X0091630Y0106276D01*
X0091630Y0106875D02*
X0090836Y0106875D01*
X0090339Y0107473D02*
X0092126Y0107473D01*
X0092725Y0108072D02*
X0089741Y0108072D01*
X0087730Y0108072D02*
X0084739Y0108072D01*
X0085337Y0107473D02*
X0087132Y0107473D01*
X0086636Y0106875D02*
X0085834Y0106875D01*
X0085834Y0106276D02*
X0086636Y0106276D01*
X0086636Y0105678D02*
X0085834Y0105678D01*
X0085676Y0105079D02*
X0086794Y0105079D01*
X0087077Y0104481D02*
X0085506Y0104481D01*
X0085506Y0103882D02*
X0087077Y0103882D01*
X0087077Y0103284D02*
X0085506Y0103284D01*
X0085506Y0102685D02*
X0087077Y0102685D01*
X0087077Y0102087D02*
X0085506Y0102087D01*
X0085506Y0101488D02*
X0087077Y0101488D01*
X0087077Y0100890D02*
X0085506Y0100890D01*
X0085506Y0100291D02*
X0087077Y0100291D01*
X0087077Y0099693D02*
X0085506Y0099693D01*
X0085506Y0099094D02*
X0087077Y0099094D01*
X0087077Y0098496D02*
X0085506Y0098496D01*
X0085506Y0097897D02*
X0087077Y0097897D01*
X0087077Y0097298D02*
X0085506Y0097298D01*
X0085506Y0096700D02*
X0087077Y0096700D01*
X0087077Y0096101D02*
X0085506Y0096101D01*
X0085506Y0095503D02*
X0087077Y0095503D01*
X0087077Y0094904D02*
X0085506Y0094904D01*
X0085506Y0094306D02*
X0087077Y0094306D01*
X0087077Y0093707D02*
X0085506Y0093707D01*
X0085506Y0093109D02*
X0087077Y0093109D01*
X0087077Y0092510D02*
X0085506Y0092510D01*
X0085506Y0091912D02*
X0087077Y0091912D01*
X0087077Y0091313D02*
X0085506Y0091313D01*
X0085506Y0090715D02*
X0087077Y0090715D01*
X0087077Y0090116D02*
X0085506Y0090116D01*
X0085506Y0089518D02*
X0087077Y0089518D01*
X0087077Y0088919D02*
X0085506Y0088919D01*
X0085506Y0088321D02*
X0087077Y0088321D01*
X0087077Y0087722D02*
X0085506Y0087722D01*
X0085506Y0087124D02*
X0087077Y0087124D01*
X0087077Y0086525D02*
X0085506Y0086525D01*
X0085506Y0085927D02*
X0087077Y0085927D01*
X0087077Y0085328D02*
X0085506Y0085328D01*
X0085506Y0084730D02*
X0087077Y0084730D01*
X0087077Y0084131D02*
X0085506Y0084131D01*
X0085506Y0083533D02*
X0087077Y0083533D01*
X0087077Y0082934D02*
X0085506Y0082934D01*
X0085506Y0082336D02*
X0087077Y0082336D01*
X0087077Y0081737D02*
X0085506Y0081737D01*
X0085506Y0081139D02*
X0087077Y0081139D01*
X0087077Y0080540D02*
X0085506Y0080540D01*
X0085506Y0079942D02*
X0087077Y0079942D01*
X0087077Y0079343D02*
X0085506Y0079343D01*
X0085506Y0078745D02*
X0087077Y0078745D01*
X0087077Y0078146D02*
X0085506Y0078146D01*
X0085506Y0077548D02*
X0087077Y0077548D01*
X0087077Y0076949D02*
X0085506Y0076949D01*
X0085506Y0076351D02*
X0087077Y0076351D01*
X0087077Y0075752D02*
X0085506Y0075752D01*
X0085506Y0075154D02*
X0087077Y0075154D01*
X0087077Y0074555D02*
X0085506Y0074555D01*
X0085506Y0073957D02*
X0087077Y0073957D01*
X0087077Y0073358D02*
X0085506Y0073358D01*
X0085506Y0072760D02*
X0087077Y0072760D01*
X0087077Y0072161D02*
X0085506Y0072161D01*
X0085506Y0071563D02*
X0087077Y0071563D01*
X0087077Y0070964D02*
X0085506Y0070964D01*
X0085506Y0070365D02*
X0087077Y0070365D01*
X0087077Y0069767D02*
X0085506Y0069767D01*
X0085506Y0069168D02*
X0087077Y0069168D01*
X0087077Y0068570D02*
X0085506Y0068570D01*
X0085506Y0067971D02*
X0087077Y0067971D01*
X0087077Y0067373D02*
X0085506Y0067373D01*
X0085506Y0066774D02*
X0087077Y0066774D01*
X0087077Y0066176D02*
X0085506Y0066176D01*
X0085506Y0065577D02*
X0087077Y0065577D01*
X0087077Y0064979D02*
X0085506Y0064979D01*
X0085506Y0064380D02*
X0087077Y0064380D01*
X0087077Y0063782D02*
X0085506Y0063782D01*
X0085506Y0063183D02*
X0087077Y0063183D01*
X0087077Y0062585D02*
X0085506Y0062585D01*
X0085506Y0061986D02*
X0087077Y0061986D01*
X0087077Y0061388D02*
X0085506Y0061388D01*
X0085506Y0060789D02*
X0087077Y0060789D01*
X0087077Y0060191D02*
X0085506Y0060191D01*
X0085506Y0059592D02*
X0087077Y0059592D01*
X0087077Y0058994D02*
X0085506Y0058994D01*
X0085506Y0058395D02*
X0087077Y0058395D01*
X0087073Y0057797D02*
X0085506Y0057797D01*
X0085506Y0057198D02*
X0086474Y0057198D01*
X0085876Y0056600D02*
X0085125Y0056600D01*
X0084526Y0056001D02*
X0085766Y0056001D01*
X0085766Y0055403D02*
X0083928Y0055403D01*
X0083329Y0054804D02*
X0085766Y0054804D01*
X0085766Y0054206D02*
X0083213Y0054206D01*
X0083213Y0053607D02*
X0085766Y0053607D01*
X0085766Y0053009D02*
X0083213Y0053009D01*
X0083213Y0052410D02*
X0085766Y0052410D01*
X0085766Y0051812D02*
X0083213Y0051812D01*
X0083213Y0051213D02*
X0085766Y0051213D01*
X0085766Y0050615D02*
X0083213Y0050615D01*
X0083213Y0050016D02*
X0085766Y0050016D01*
X0085766Y0049418D02*
X0083213Y0049418D01*
X0083213Y0048819D02*
X0085766Y0048819D01*
X0085766Y0048221D02*
X0083213Y0048221D01*
X0083213Y0047622D02*
X0085766Y0047622D01*
X0085766Y0047024D02*
X0083213Y0047024D01*
X0083213Y0046425D02*
X0085766Y0046425D01*
X0085766Y0045827D02*
X0083213Y0045827D01*
X0083213Y0045228D02*
X0085766Y0045228D01*
X0085766Y0044630D02*
X0083213Y0044630D01*
X0083213Y0044031D02*
X0085766Y0044031D01*
X0085766Y0043432D02*
X0083213Y0043432D01*
X0083213Y0042834D02*
X0085766Y0042834D01*
X0085766Y0042235D02*
X0083213Y0042235D01*
X0083213Y0041637D02*
X0085766Y0041637D01*
X0085766Y0041038D02*
X0083213Y0041038D01*
X0083213Y0040440D02*
X0085766Y0040440D01*
X0085766Y0039841D02*
X0083213Y0039841D01*
X0083213Y0039243D02*
X0085766Y0039243D01*
X0085766Y0038644D02*
X0083213Y0038644D01*
X0083213Y0038046D02*
X0085766Y0038046D01*
X0085766Y0037447D02*
X0083213Y0037447D01*
X0083213Y0036849D02*
X0085766Y0036849D01*
X0085766Y0036250D02*
X0083213Y0036250D01*
X0083213Y0035652D02*
X0085766Y0035652D01*
X0085766Y0035053D02*
X0083213Y0035053D01*
X0083213Y0034455D02*
X0085766Y0034455D01*
X0085766Y0033856D02*
X0083213Y0033856D01*
X0083444Y0033258D02*
X0085549Y0033258D01*
X0085001Y0032659D02*
X0083992Y0032659D01*
X0079813Y0033856D02*
X0077263Y0033856D01*
X0077263Y0034455D02*
X0079813Y0034455D01*
X0079813Y0035053D02*
X0077263Y0035053D01*
X0077263Y0035652D02*
X0079813Y0035652D01*
X0079813Y0036250D02*
X0077263Y0036250D01*
X0077263Y0036849D02*
X0079813Y0036849D01*
X0079813Y0037447D02*
X0077263Y0037447D01*
X0077263Y0038046D02*
X0079813Y0038046D01*
X0079813Y0038644D02*
X0077263Y0038644D01*
X0077263Y0039243D02*
X0079813Y0039243D01*
X0079813Y0039841D02*
X0077263Y0039841D01*
X0077263Y0040440D02*
X0079813Y0040440D01*
X0079813Y0041038D02*
X0077263Y0041038D01*
X0077263Y0041637D02*
X0079813Y0041637D01*
X0079813Y0042235D02*
X0077263Y0042235D01*
X0077263Y0042834D02*
X0079813Y0042834D01*
X0079813Y0043432D02*
X0077263Y0043432D01*
X0077263Y0044031D02*
X0079813Y0044031D01*
X0079813Y0044630D02*
X0077263Y0044630D01*
X0077263Y0045228D02*
X0079813Y0045228D01*
X0079813Y0045827D02*
X0077263Y0045827D01*
X0077263Y0046425D02*
X0079813Y0046425D01*
X0079813Y0047024D02*
X0077263Y0047024D01*
X0077263Y0047622D02*
X0079813Y0047622D01*
X0079813Y0048221D02*
X0077263Y0048221D01*
X0077263Y0048819D02*
X0079813Y0048819D01*
X0079813Y0049418D02*
X0077263Y0049418D01*
X0077263Y0050016D02*
X0079813Y0050016D01*
X0079813Y0050615D02*
X0077263Y0050615D01*
X0077263Y0051213D02*
X0079813Y0051213D01*
X0079813Y0051812D02*
X0077263Y0051812D01*
X0077263Y0052410D02*
X0079813Y0052410D01*
X0079813Y0053009D02*
X0077263Y0053009D01*
X0077263Y0053607D02*
X0079813Y0053607D01*
X0079813Y0054206D02*
X0077263Y0054206D01*
X0077655Y0054804D02*
X0079813Y0054804D01*
X0079813Y0055403D02*
X0078253Y0055403D01*
X0078852Y0056001D02*
X0079813Y0056001D01*
X0079450Y0056600D02*
X0080316Y0056600D01*
X0080049Y0057198D02*
X0080915Y0057198D01*
X0080441Y0057797D02*
X0081513Y0057797D01*
X0082106Y0058395D02*
X0080441Y0058395D01*
X0080441Y0058994D02*
X0082106Y0058994D01*
X0082106Y0059592D02*
X0080441Y0059592D01*
X0080441Y0060191D02*
X0082106Y0060191D01*
X0082106Y0060789D02*
X0080441Y0060789D01*
X0080441Y0061388D02*
X0082106Y0061388D01*
X0082106Y0061986D02*
X0080441Y0061986D01*
X0080441Y0062585D02*
X0082106Y0062585D01*
X0082106Y0063183D02*
X0080441Y0063183D01*
X0080441Y0063782D02*
X0082106Y0063782D01*
X0082106Y0064380D02*
X0080441Y0064380D01*
X0080441Y0064979D02*
X0082106Y0064979D01*
X0082106Y0065577D02*
X0080441Y0065577D01*
X0080441Y0066176D02*
X0082106Y0066176D01*
X0082106Y0066774D02*
X0080441Y0066774D01*
X0080441Y0067373D02*
X0082106Y0067373D01*
X0082106Y0067971D02*
X0080441Y0067971D01*
X0080441Y0068570D02*
X0082106Y0068570D01*
X0082106Y0069168D02*
X0080441Y0069168D01*
X0080441Y0069767D02*
X0082106Y0069767D01*
X0082106Y0070365D02*
X0080441Y0070365D01*
X0080441Y0070964D02*
X0082106Y0070964D01*
X0082106Y0071563D02*
X0080441Y0071563D01*
X0080441Y0072161D02*
X0082106Y0072161D01*
X0082106Y0072760D02*
X0080441Y0072760D01*
X0080441Y0073358D02*
X0082106Y0073358D01*
X0082106Y0073957D02*
X0080441Y0073957D01*
X0080441Y0074555D02*
X0082106Y0074555D01*
X0082106Y0075154D02*
X0080441Y0075154D01*
X0080441Y0075752D02*
X0082106Y0075752D01*
X0082106Y0076351D02*
X0080441Y0076351D01*
X0080441Y0076949D02*
X0082106Y0076949D01*
X0082106Y0077548D02*
X0080441Y0077548D01*
X0080441Y0078146D02*
X0082106Y0078146D01*
X0082106Y0078745D02*
X0080441Y0078745D01*
X0080441Y0079343D02*
X0082106Y0079343D01*
X0082106Y0079942D02*
X0080441Y0079942D01*
X0080441Y0080540D02*
X0082106Y0080540D01*
X0082106Y0081139D02*
X0080441Y0081139D01*
X0080441Y0081737D02*
X0082106Y0081737D01*
X0082106Y0082336D02*
X0080441Y0082336D01*
X0080441Y0082934D02*
X0082106Y0082934D01*
X0082106Y0083533D02*
X0080441Y0083533D01*
X0080441Y0084131D02*
X0082106Y0084131D01*
X0082106Y0084730D02*
X0080441Y0084730D01*
X0080441Y0085328D02*
X0082106Y0085328D01*
X0082106Y0085927D02*
X0080441Y0085927D01*
X0080441Y0086525D02*
X0082106Y0086525D01*
X0082106Y0087124D02*
X0080441Y0087124D01*
X0080441Y0087722D02*
X0082106Y0087722D01*
X0082106Y0088321D02*
X0080441Y0088321D01*
X0080441Y0088919D02*
X0082106Y0088919D01*
X0082106Y0089518D02*
X0080441Y0089518D01*
X0080441Y0090116D02*
X0082106Y0090116D01*
X0082106Y0090715D02*
X0080441Y0090715D01*
X0080441Y0091313D02*
X0082106Y0091313D01*
X0082106Y0091912D02*
X0080441Y0091912D01*
X0080441Y0092510D02*
X0082106Y0092510D01*
X0082106Y0093109D02*
X0080441Y0093109D01*
X0080441Y0093707D02*
X0082106Y0093707D01*
X0082106Y0094306D02*
X0080441Y0094306D01*
X0080441Y0094904D02*
X0082106Y0094904D01*
X0082106Y0095503D02*
X0080441Y0095503D01*
X0080441Y0096101D02*
X0082106Y0096101D01*
X0082106Y0096700D02*
X0080441Y0096700D01*
X0080441Y0097298D02*
X0082106Y0097298D01*
X0082106Y0097897D02*
X0080441Y0097897D01*
X0080441Y0098496D02*
X0082106Y0098496D01*
X0082106Y0099094D02*
X0080441Y0099094D01*
X0080441Y0099693D02*
X0082106Y0099693D01*
X0082106Y0100291D02*
X0080441Y0100291D01*
X0080441Y0100890D02*
X0082106Y0100890D01*
X0082106Y0101488D02*
X0080441Y0101488D01*
X0080441Y0102087D02*
X0082106Y0102087D01*
X0082106Y0102685D02*
X0080441Y0102685D01*
X0080441Y0103284D02*
X0082106Y0103284D01*
X0082106Y0103882D02*
X0080441Y0103882D01*
X0080441Y0104481D02*
X0082106Y0104481D01*
X0081792Y0105079D02*
X0080675Y0105079D01*
X0080833Y0105678D02*
X0081634Y0105678D01*
X0081634Y0106276D02*
X0080833Y0106276D01*
X0080833Y0106875D02*
X0081634Y0106875D01*
X0082130Y0107473D02*
X0080337Y0107473D01*
X0079738Y0108072D02*
X0082729Y0108072D01*
X0077728Y0108072D02*
X0074740Y0108072D01*
X0075339Y0107473D02*
X0077130Y0107473D01*
X0076633Y0106875D02*
X0075835Y0106875D01*
X0075835Y0106276D02*
X0076633Y0106276D01*
X0076633Y0105678D02*
X0075835Y0105678D01*
X0075677Y0105079D02*
X0076791Y0105079D01*
X0077041Y0104481D02*
X0075463Y0104481D01*
X0075463Y0103882D02*
X0077041Y0103882D01*
X0077041Y0103284D02*
X0075463Y0103284D01*
X0075463Y0102685D02*
X0077041Y0102685D01*
X0077041Y0102087D02*
X0075463Y0102087D01*
X0075463Y0101488D02*
X0077041Y0101488D01*
X0077041Y0100890D02*
X0075463Y0100890D01*
X0075463Y0100291D02*
X0077041Y0100291D01*
X0077041Y0099693D02*
X0075463Y0099693D01*
X0075463Y0099094D02*
X0077041Y0099094D01*
X0077041Y0098496D02*
X0075463Y0098496D01*
X0075463Y0097897D02*
X0077041Y0097897D01*
X0077041Y0097298D02*
X0075463Y0097298D01*
X0075463Y0096700D02*
X0077041Y0096700D01*
X0077041Y0096101D02*
X0075463Y0096101D01*
X0075463Y0095503D02*
X0077041Y0095503D01*
X0077041Y0094904D02*
X0075463Y0094904D01*
X0075463Y0094306D02*
X0077041Y0094306D01*
X0077041Y0093707D02*
X0075463Y0093707D01*
X0075463Y0093109D02*
X0077041Y0093109D01*
X0077041Y0092510D02*
X0075463Y0092510D01*
X0075463Y0091912D02*
X0077041Y0091912D01*
X0077041Y0091313D02*
X0075463Y0091313D01*
X0075463Y0090715D02*
X0077041Y0090715D01*
X0077041Y0090116D02*
X0075463Y0090116D01*
X0075463Y0089518D02*
X0077041Y0089518D01*
X0077041Y0088919D02*
X0075463Y0088919D01*
X0075463Y0088321D02*
X0077041Y0088321D01*
X0077041Y0087722D02*
X0075463Y0087722D01*
X0075463Y0087124D02*
X0077041Y0087124D01*
X0077041Y0086525D02*
X0075463Y0086525D01*
X0075463Y0085927D02*
X0077041Y0085927D01*
X0077041Y0085328D02*
X0075463Y0085328D01*
X0075463Y0084730D02*
X0077041Y0084730D01*
X0077041Y0084131D02*
X0075463Y0084131D01*
X0075463Y0083533D02*
X0077041Y0083533D01*
X0077041Y0082934D02*
X0075463Y0082934D01*
X0075463Y0082336D02*
X0077041Y0082336D01*
X0077041Y0081737D02*
X0075463Y0081737D01*
X0075463Y0081139D02*
X0077041Y0081139D01*
X0077041Y0080540D02*
X0075463Y0080540D01*
X0075463Y0079942D02*
X0077041Y0079942D01*
X0077041Y0079343D02*
X0075463Y0079343D01*
X0075463Y0078745D02*
X0077041Y0078745D01*
X0077041Y0078146D02*
X0075463Y0078146D01*
X0075463Y0077548D02*
X0077041Y0077548D01*
X0077041Y0076949D02*
X0075463Y0076949D01*
X0075463Y0076351D02*
X0077041Y0076351D01*
X0077041Y0075752D02*
X0075463Y0075752D01*
X0075463Y0075154D02*
X0077041Y0075154D01*
X0077041Y0074555D02*
X0075463Y0074555D01*
X0075463Y0073957D02*
X0077041Y0073957D01*
X0077041Y0073358D02*
X0075463Y0073358D01*
X0075463Y0072760D02*
X0077041Y0072760D01*
X0077041Y0072161D02*
X0075463Y0072161D01*
X0075463Y0071563D02*
X0077041Y0071563D01*
X0077041Y0070964D02*
X0075463Y0070964D01*
X0075463Y0070365D02*
X0077041Y0070365D01*
X0077041Y0069767D02*
X0075463Y0069767D01*
X0075463Y0069168D02*
X0077041Y0069168D01*
X0077041Y0068570D02*
X0075463Y0068570D01*
X0075463Y0067971D02*
X0077041Y0067971D01*
X0077041Y0067373D02*
X0075463Y0067373D01*
X0075463Y0066774D02*
X0077041Y0066774D01*
X0077041Y0066176D02*
X0075463Y0066176D01*
X0075463Y0065577D02*
X0077041Y0065577D01*
X0077041Y0064979D02*
X0075463Y0064979D01*
X0075463Y0064380D02*
X0077041Y0064380D01*
X0077041Y0063782D02*
X0075463Y0063782D01*
X0075463Y0063183D02*
X0077041Y0063183D01*
X0077041Y0062585D02*
X0075463Y0062585D01*
X0075463Y0061986D02*
X0077041Y0061986D01*
X0077041Y0061388D02*
X0075463Y0061388D01*
X0075463Y0060789D02*
X0077041Y0060789D01*
X0077041Y0060191D02*
X0075463Y0060191D01*
X0075463Y0059592D02*
X0077041Y0059592D01*
X0077036Y0058994D02*
X0075463Y0058994D01*
X0075463Y0058395D02*
X0076437Y0058395D01*
X0075839Y0057797D02*
X0075454Y0057797D01*
X0075240Y0057198D02*
X0074855Y0057198D01*
X0074642Y0056600D02*
X0074257Y0056600D01*
X0074043Y0056001D02*
X0073658Y0056001D01*
X0073863Y0055403D02*
X0073059Y0055403D01*
X0072461Y0054804D02*
X0073863Y0054804D01*
X0073863Y0054206D02*
X0071862Y0054206D01*
X0071341Y0053607D02*
X0073863Y0053607D01*
X0073863Y0053009D02*
X0071341Y0053009D01*
X0071341Y0052410D02*
X0073863Y0052410D01*
X0073863Y0051812D02*
X0071341Y0051812D01*
X0071341Y0051213D02*
X0073863Y0051213D01*
X0073863Y0050615D02*
X0071341Y0050615D01*
X0071341Y0050016D02*
X0073863Y0050016D01*
X0073863Y0049418D02*
X0071341Y0049418D01*
X0071341Y0048819D02*
X0073863Y0048819D01*
X0073863Y0048221D02*
X0071341Y0048221D01*
X0071341Y0047622D02*
X0073863Y0047622D01*
X0073863Y0047024D02*
X0071341Y0047024D01*
X0071341Y0046425D02*
X0073863Y0046425D01*
X0073863Y0045827D02*
X0071341Y0045827D01*
X0071341Y0045228D02*
X0073863Y0045228D01*
X0073863Y0044630D02*
X0071341Y0044630D01*
X0071341Y0044031D02*
X0073863Y0044031D01*
X0073863Y0043432D02*
X0071341Y0043432D01*
X0071341Y0042834D02*
X0073863Y0042834D01*
X0073863Y0042235D02*
X0071341Y0042235D01*
X0071341Y0041637D02*
X0073863Y0041637D01*
X0073863Y0041038D02*
X0071341Y0041038D01*
X0071341Y0040440D02*
X0073863Y0040440D01*
X0073863Y0039841D02*
X0071341Y0039841D01*
X0071341Y0039243D02*
X0073863Y0039243D01*
X0073863Y0038644D02*
X0071341Y0038644D01*
X0071341Y0038046D02*
X0073863Y0038046D01*
X0073863Y0037447D02*
X0071341Y0037447D01*
X0071341Y0036849D02*
X0073863Y0036849D01*
X0073863Y0036250D02*
X0071341Y0036250D01*
X0071341Y0035652D02*
X0073863Y0035652D01*
X0073863Y0035053D02*
X0071341Y0035053D01*
X0071341Y0034455D02*
X0073863Y0034455D01*
X0073863Y0033856D02*
X0071341Y0033856D01*
X0071554Y0033258D02*
X0073660Y0033258D01*
X0073112Y0032659D02*
X0072102Y0032659D01*
X0067941Y0033856D02*
X0066764Y0033856D01*
X0066764Y0033258D02*
X0067715Y0033258D01*
X0067167Y0032659D02*
X0066764Y0032659D01*
X0066764Y0034455D02*
X0067941Y0034455D01*
X0067941Y0035053D02*
X0066764Y0035053D01*
X0066764Y0035652D02*
X0067941Y0035652D01*
X0067941Y0036250D02*
X0066764Y0036250D01*
X0066764Y0036849D02*
X0067941Y0036849D01*
X0067941Y0037447D02*
X0066764Y0037447D01*
X0066764Y0038046D02*
X0067941Y0038046D01*
X0067941Y0038644D02*
X0066764Y0038644D01*
X0066764Y0039243D02*
X0067941Y0039243D01*
X0067941Y0039841D02*
X0066764Y0039841D01*
X0066764Y0040440D02*
X0067941Y0040440D01*
X0067941Y0041038D02*
X0066764Y0041038D01*
X0066764Y0041637D02*
X0067941Y0041637D01*
X0067941Y0042235D02*
X0066764Y0042235D01*
X0066791Y0042834D02*
X0067941Y0042834D01*
X0067941Y0043432D02*
X0066791Y0043432D01*
X0066791Y0044031D02*
X0067941Y0044031D01*
X0067941Y0044630D02*
X0066791Y0044630D01*
X0066791Y0045228D02*
X0067941Y0045228D01*
X0067941Y0045827D02*
X0066791Y0045827D01*
X0066791Y0046425D02*
X0067941Y0046425D01*
X0067941Y0047024D02*
X0066791Y0047024D01*
X0066791Y0047622D02*
X0067941Y0047622D01*
X0067941Y0048221D02*
X0066791Y0048221D01*
X0066791Y0048819D02*
X0067941Y0048819D01*
X0067941Y0049418D02*
X0066791Y0049418D01*
X0066791Y0050016D02*
X0067941Y0050016D01*
X0067941Y0050615D02*
X0066791Y0050615D01*
X0066791Y0051213D02*
X0067941Y0051213D01*
X0067941Y0051812D02*
X0066791Y0051812D01*
X0066791Y0052410D02*
X0067941Y0052410D01*
X0067941Y0053009D02*
X0066791Y0053009D01*
X0066791Y0053607D02*
X0067941Y0053607D01*
X0067941Y0054206D02*
X0066791Y0054206D01*
X0066791Y0054804D02*
X0067941Y0054804D01*
X0068251Y0055403D02*
X0066791Y0055403D01*
X0066791Y0056001D02*
X0068850Y0056001D01*
X0069448Y0056600D02*
X0066791Y0056600D01*
X0066791Y0057198D02*
X0070047Y0057198D01*
X0070645Y0057797D02*
X0066791Y0057797D01*
X0066791Y0058395D02*
X0071244Y0058395D01*
X0071842Y0058994D02*
X0066791Y0058994D01*
X0066791Y0059592D02*
X0072063Y0059592D01*
X0072063Y0060191D02*
X0066791Y0060191D01*
X0066791Y0060789D02*
X0072063Y0060789D01*
X0072063Y0061388D02*
X0066791Y0061388D01*
X0066791Y0061986D02*
X0072063Y0061986D01*
X0072063Y0062585D02*
X0066791Y0062585D01*
X0066791Y0063183D02*
X0072063Y0063183D01*
X0072063Y0063782D02*
X0066791Y0063782D01*
X0066791Y0064380D02*
X0072063Y0064380D01*
X0072063Y0064979D02*
X0066791Y0064979D01*
X0066791Y0065577D02*
X0072063Y0065577D01*
X0072063Y0066176D02*
X0066791Y0066176D01*
X0066791Y0066774D02*
X0072063Y0066774D01*
X0072063Y0067373D02*
X0066791Y0067373D01*
X0066791Y0067971D02*
X0072063Y0067971D01*
X0072063Y0068570D02*
X0066791Y0068570D01*
X0066791Y0069168D02*
X0072063Y0069168D01*
X0072063Y0069767D02*
X0066791Y0069767D01*
X0066791Y0070365D02*
X0072063Y0070365D01*
X0072063Y0070964D02*
X0066791Y0070964D01*
X0066791Y0071563D02*
X0072063Y0071563D01*
X0072063Y0072161D02*
X0066791Y0072161D01*
X0066791Y0072760D02*
X0072063Y0072760D01*
X0072063Y0073358D02*
X0066791Y0073358D01*
X0066791Y0073957D02*
X0072063Y0073957D01*
X0072063Y0074555D02*
X0066791Y0074555D01*
X0066791Y0075154D02*
X0072063Y0075154D01*
X0072063Y0075752D02*
X0066791Y0075752D01*
X0066791Y0076351D02*
X0072063Y0076351D01*
X0072063Y0076949D02*
X0066791Y0076949D01*
X0066791Y0077548D02*
X0072063Y0077548D01*
X0072063Y0078146D02*
X0066791Y0078146D01*
X0066791Y0078745D02*
X0072063Y0078745D01*
X0072063Y0079343D02*
X0066791Y0079343D01*
X0066791Y0079942D02*
X0072063Y0079942D01*
X0072063Y0080540D02*
X0066791Y0080540D01*
X0066791Y0081139D02*
X0072063Y0081139D01*
X0072063Y0081737D02*
X0066791Y0081737D01*
X0067174Y0082336D02*
X0072063Y0082336D01*
X0072063Y0082934D02*
X0067771Y0082934D01*
X0068368Y0083533D02*
X0072063Y0083533D01*
X0072063Y0084131D02*
X0069147Y0084131D01*
X0069745Y0084730D02*
X0072063Y0084730D01*
X0072063Y0085328D02*
X0070065Y0085328D01*
X0070065Y0085927D02*
X0072063Y0085927D01*
X0072063Y0086525D02*
X0070065Y0086525D01*
X0069994Y0087124D02*
X0072063Y0087124D01*
X0072063Y0087722D02*
X0069394Y0087722D01*
X0068795Y0088321D02*
X0072063Y0088321D01*
X0072063Y0088919D02*
X0062049Y0088919D01*
X0061450Y0088321D02*
X0066579Y0088321D01*
X0065981Y0087722D02*
X0060852Y0087722D01*
X0060253Y0087124D02*
X0065382Y0087124D01*
X0064918Y0086525D02*
X0059655Y0086525D01*
X0059056Y0085927D02*
X0064321Y0085927D01*
X0063724Y0085328D02*
X0058458Y0085328D01*
X0057859Y0084730D02*
X0063127Y0084730D01*
X0062529Y0084131D02*
X0057261Y0084131D01*
X0056662Y0083533D02*
X0062235Y0083533D01*
X0062235Y0082934D02*
X0056064Y0082934D01*
X0055465Y0082336D02*
X0062235Y0082336D01*
X0062235Y0081737D02*
X0054867Y0081737D01*
X0054268Y0081139D02*
X0062235Y0081139D01*
X0062235Y0080540D02*
X0053670Y0080540D01*
X0053448Y0079942D02*
X0062235Y0079942D01*
X0062235Y0079343D02*
X0053448Y0079343D01*
X0053448Y0078745D02*
X0062235Y0078745D01*
X0062235Y0078146D02*
X0053448Y0078146D01*
X0053448Y0077548D02*
X0062235Y0077548D01*
X0062235Y0076949D02*
X0053448Y0076949D01*
X0053448Y0076351D02*
X0062235Y0076351D01*
X0062235Y0075752D02*
X0053448Y0075752D01*
X0053448Y0075154D02*
X0062235Y0075154D01*
X0062235Y0074555D02*
X0053448Y0074555D01*
X0053448Y0073957D02*
X0062235Y0073957D01*
X0062235Y0073358D02*
X0053448Y0073358D01*
X0053448Y0072760D02*
X0062235Y0072760D01*
X0062235Y0072161D02*
X0053448Y0072161D01*
X0053448Y0071563D02*
X0062235Y0071563D01*
X0062235Y0070964D02*
X0053448Y0070964D01*
X0053448Y0070365D02*
X0062235Y0070365D01*
X0062235Y0069767D02*
X0053448Y0069767D01*
X0053448Y0069168D02*
X0062235Y0069168D01*
X0062235Y0068570D02*
X0053448Y0068570D01*
X0053448Y0067971D02*
X0062235Y0067971D01*
X0062235Y0067373D02*
X0053448Y0067373D01*
X0053448Y0066774D02*
X0062235Y0066774D01*
X0062235Y0066176D02*
X0053448Y0066176D01*
X0053448Y0065577D02*
X0062235Y0065577D01*
X0062235Y0064979D02*
X0053448Y0064979D01*
X0053448Y0064380D02*
X0062235Y0064380D01*
X0062235Y0063782D02*
X0053448Y0063782D01*
X0053448Y0063183D02*
X0062235Y0063183D01*
X0062235Y0062585D02*
X0053448Y0062585D01*
X0053448Y0061986D02*
X0062235Y0061986D01*
X0062235Y0061388D02*
X0053448Y0061388D01*
X0053448Y0060789D02*
X0062235Y0060789D01*
X0062235Y0060191D02*
X0053448Y0060191D01*
X0053448Y0059592D02*
X0062235Y0059592D01*
X0062235Y0058994D02*
X0053448Y0058994D01*
X0053448Y0058395D02*
X0062235Y0058395D01*
X0062235Y0057797D02*
X0053448Y0057797D01*
X0053448Y0057198D02*
X0062235Y0057198D01*
X0062235Y0056600D02*
X0053448Y0056600D01*
X0053448Y0056001D02*
X0062235Y0056001D01*
X0062235Y0055403D02*
X0053448Y0055403D01*
X0053448Y0054804D02*
X0062235Y0054804D01*
X0062235Y0054206D02*
X0053448Y0054206D01*
X0053448Y0053607D02*
X0062235Y0053607D01*
X0062235Y0053009D02*
X0053448Y0053009D01*
X0053448Y0052410D02*
X0062235Y0052410D01*
X0062235Y0051812D02*
X0053448Y0051812D01*
X0053448Y0051213D02*
X0062235Y0051213D01*
X0062235Y0050615D02*
X0053448Y0050615D01*
X0053448Y0050016D02*
X0062235Y0050016D01*
X0065572Y0048742D02*
X0065572Y0045741D01*
X0055928Y0045741D01*
X0055928Y0047080D01*
X0056055Y0047207D01*
X0056021Y0047167D02*
X0057596Y0048742D01*
X0065572Y0048742D01*
X0056574Y0049418D02*
X0053448Y0049418D01*
X0053448Y0048819D02*
X0055976Y0048819D01*
X0055371Y0048221D02*
X0053448Y0048221D01*
X0053448Y0047622D02*
X0054773Y0047622D01*
X0054728Y0047024D02*
X0053448Y0047024D01*
X0053448Y0046425D02*
X0054728Y0046425D01*
X0054728Y0045827D02*
X0053448Y0045827D01*
X0053448Y0045228D02*
X0054728Y0045228D01*
X0054728Y0044630D02*
X0053448Y0044630D01*
X0053448Y0044031D02*
X0054728Y0044031D01*
X0054728Y0043432D02*
X0053448Y0043432D01*
X0053448Y0042834D02*
X0054728Y0042834D01*
X0054728Y0042235D02*
X0053448Y0042235D01*
X0053448Y0041637D02*
X0054728Y0041637D01*
X0054728Y0041038D02*
X0053448Y0041038D01*
X0053448Y0040440D02*
X0054728Y0040440D01*
X0054728Y0039841D02*
X0053448Y0039841D01*
X0053448Y0039243D02*
X0054728Y0039243D01*
X0054728Y0038644D02*
X0053448Y0038644D01*
X0053448Y0038046D02*
X0054728Y0038046D01*
X0054728Y0037447D02*
X0053448Y0037447D01*
X0053448Y0036849D02*
X0054728Y0036849D01*
X0054728Y0036250D02*
X0053448Y0036250D01*
X0053448Y0035652D02*
X0054728Y0035652D01*
X0054728Y0035053D02*
X0053448Y0035053D01*
X0053448Y0034455D02*
X0054728Y0034455D01*
X0054728Y0033856D02*
X0053448Y0033856D01*
X0053719Y0033258D02*
X0054728Y0033258D01*
X0054728Y0032659D02*
X0054267Y0032659D01*
X0077499Y0033258D02*
X0079605Y0033258D01*
X0079057Y0032659D02*
X0078047Y0032659D01*
X0089389Y0033258D02*
X0091494Y0033258D01*
X0090946Y0032659D02*
X0089937Y0032659D01*
X0101278Y0033258D02*
X0103384Y0033258D01*
X0102836Y0032659D02*
X0101826Y0032659D01*
X0124947Y0033856D02*
X0127389Y0033856D01*
X0127389Y0034455D02*
X0124947Y0034455D01*
X0124947Y0035053D02*
X0127389Y0035053D01*
X0127389Y0035652D02*
X0124947Y0035652D01*
X0124947Y0036250D02*
X0127389Y0036250D01*
X0127389Y0036849D02*
X0124947Y0036849D01*
X0124947Y0037447D02*
X0127389Y0037447D01*
X0127389Y0038046D02*
X0124947Y0038046D01*
X0124947Y0038644D02*
X0127389Y0038644D01*
X0127389Y0039243D02*
X0124947Y0039243D01*
X0124947Y0039841D02*
X0127389Y0039841D01*
X0127389Y0040440D02*
X0124947Y0040440D01*
X0124947Y0041038D02*
X0127389Y0041038D01*
X0127389Y0041637D02*
X0124947Y0041637D01*
X0124947Y0042235D02*
X0127389Y0042235D01*
X0127389Y0042834D02*
X0124947Y0042834D01*
X0124947Y0043432D02*
X0127389Y0043432D01*
X0127389Y0044031D02*
X0124947Y0044031D01*
X0124947Y0044630D02*
X0127389Y0044630D01*
X0127389Y0045228D02*
X0124947Y0045228D01*
X0124947Y0045827D02*
X0127389Y0045827D01*
X0127389Y0046425D02*
X0124947Y0046425D01*
X0124947Y0047024D02*
X0127389Y0047024D01*
X0127389Y0047622D02*
X0124947Y0047622D01*
X0125058Y0033258D02*
X0127164Y0033258D01*
X0126616Y0032659D02*
X0125606Y0032659D01*
X0072063Y0089518D02*
X0062647Y0089518D01*
X0063246Y0090116D02*
X0072063Y0090116D01*
X0072063Y0090715D02*
X0063844Y0090715D01*
X0064443Y0091313D02*
X0072063Y0091313D01*
X0072063Y0091912D02*
X0065041Y0091912D01*
X0065640Y0092510D02*
X0072063Y0092510D01*
X0072063Y0093109D02*
X0066238Y0093109D01*
X0066837Y0093707D02*
X0072063Y0093707D01*
X0072063Y0094306D02*
X0067435Y0094306D01*
X0068034Y0094904D02*
X0072063Y0094904D01*
X0072063Y0095503D02*
X0068632Y0095503D01*
X0069231Y0096101D02*
X0072063Y0096101D01*
X0072063Y0096700D02*
X0069829Y0096700D01*
X0070428Y0097298D02*
X0072063Y0097298D01*
X0072063Y0097897D02*
X0070441Y0097897D01*
X0070441Y0098496D02*
X0072063Y0098496D01*
X0072063Y0099094D02*
X0070441Y0099094D01*
X0070441Y0099693D02*
X0072063Y0099693D01*
X0072063Y0100291D02*
X0070441Y0100291D01*
X0070441Y0100890D02*
X0072063Y0100890D01*
X0072063Y0101488D02*
X0070441Y0101488D01*
X0070441Y0102087D02*
X0072063Y0102087D01*
X0072063Y0102685D02*
X0070441Y0102685D01*
X0070441Y0103284D02*
X0072063Y0103284D01*
X0072063Y0103882D02*
X0070441Y0103882D01*
X0070441Y0104481D02*
X0072063Y0104481D01*
X0071793Y0105079D02*
X0070677Y0105079D01*
X0070835Y0105678D02*
X0071635Y0105678D01*
X0071635Y0106276D02*
X0070835Y0106276D01*
X0070835Y0106875D02*
X0071635Y0106875D01*
X0072131Y0107473D02*
X0070339Y0107473D01*
X0069740Y0108072D02*
X0072730Y0108072D01*
D11*
X0060746Y0039490D03*
D12*
X0058777Y0046774D03*
D13*
X0061336Y0047822D03*
D14*
X0063689Y0029328D03*
X0063689Y0026279D03*
X0063689Y0023052D03*
X0063689Y0019466D03*
X0063689Y0015521D03*
X0063689Y0012472D03*
X0057745Y0012472D03*
X0057745Y0015521D03*
X0057745Y0019466D03*
X0057745Y0023052D03*
X0057745Y0026279D03*
X0057745Y0029328D03*
X0051800Y0029328D03*
X0051800Y0026279D03*
X0051800Y0023052D03*
X0051800Y0019466D03*
X0051800Y0015521D03*
X0051800Y0012472D03*
X0069634Y0012472D03*
X0069634Y0015521D03*
X0069634Y0019466D03*
X0069634Y0023052D03*
X0069634Y0026279D03*
X0069634Y0029328D03*
X0075579Y0029328D03*
X0075579Y0026279D03*
X0075579Y0023052D03*
X0075579Y0019466D03*
X0075579Y0015521D03*
X0075579Y0012472D03*
X0081524Y0012472D03*
X0081524Y0015521D03*
X0081524Y0019466D03*
X0081524Y0023052D03*
X0081524Y0026279D03*
X0081524Y0029328D03*
X0087469Y0029328D03*
X0087469Y0026279D03*
X0087469Y0023052D03*
X0087469Y0019466D03*
X0087469Y0015521D03*
X0087469Y0012472D03*
X0093414Y0012472D03*
X0093414Y0015521D03*
X0093414Y0019466D03*
X0093414Y0023052D03*
X0093414Y0026279D03*
X0093414Y0029328D03*
X0099359Y0029328D03*
X0099359Y0026279D03*
X0099359Y0023052D03*
X0099359Y0019466D03*
X0099359Y0015521D03*
X0099359Y0012472D03*
X0105304Y0012472D03*
X0105304Y0015521D03*
X0105304Y0019466D03*
X0105304Y0023052D03*
X0105304Y0026279D03*
X0105304Y0029328D03*
X0111249Y0029328D03*
X0111249Y0026279D03*
X0111249Y0023052D03*
X0111249Y0019466D03*
X0111249Y0015521D03*
X0111249Y0012472D03*
X0117193Y0012472D03*
X0117193Y0015521D03*
X0117193Y0019466D03*
X0117193Y0023052D03*
X0117193Y0026279D03*
X0117193Y0029328D03*
X0123138Y0029328D03*
X0123138Y0026279D03*
X0123138Y0023052D03*
X0123138Y0019466D03*
X0123138Y0015521D03*
X0123138Y0012472D03*
X0129083Y0012472D03*
X0129083Y0015521D03*
X0129083Y0019466D03*
X0129083Y0023052D03*
X0129083Y0026279D03*
X0129083Y0029328D03*
X0135028Y0029328D03*
X0135028Y0026279D03*
X0135028Y0023052D03*
X0135028Y0019466D03*
X0135028Y0015521D03*
X0135028Y0012472D03*
X0141366Y0012506D03*
X0141366Y0015554D03*
X0141366Y0019499D03*
X0141366Y0023085D03*
X0141366Y0026312D03*
X0141366Y0029361D03*
D15*
X0141366Y0031154D03*
X0135028Y0031121D03*
X0129083Y0031121D03*
X0123138Y0031121D03*
X0117193Y0031121D03*
X0111249Y0031121D03*
X0105304Y0031121D03*
X0099359Y0031121D03*
X0093414Y0031121D03*
X0087469Y0031121D03*
X0081524Y0031121D03*
X0075579Y0031121D03*
X0069634Y0031121D03*
X0063689Y0031121D03*
X0057745Y0031121D03*
X0051800Y0031121D03*
X0051800Y0010500D03*
X0057745Y0010500D03*
X0063689Y0010500D03*
X0069634Y0010500D03*
X0075579Y0010500D03*
X0081524Y0010500D03*
X0087469Y0010500D03*
X0093414Y0010500D03*
X0099359Y0010500D03*
X0105304Y0010500D03*
X0111249Y0010500D03*
X0117193Y0010500D03*
X0123138Y0010500D03*
X0129083Y0010500D03*
X0135028Y0010500D03*
X0141366Y0010533D03*
D16*
X0141371Y0031545D02*
X0141371Y0040395D01*
D17*
X0154772Y0051107D03*
X0165677Y0051107D03*
X0143186Y0072681D03*
X0134123Y0077829D03*
X0134075Y0063458D03*
X0067676Y0086039D03*
X0038423Y0051107D03*
X0027518Y0051107D03*
X0032769Y0121067D03*
X0160137Y0121067D03*
D18*
X0128729Y0106107D03*
X0123739Y0106107D03*
X0118735Y0106107D03*
X0113732Y0106107D03*
X0108733Y0106107D03*
X0103731Y0106107D03*
X0098735Y0106107D03*
X0093730Y0106107D03*
X0088736Y0106107D03*
X0083734Y0106107D03*
X0078733Y0106107D03*
X0073735Y0106107D03*
X0068735Y0106107D03*
X0057714Y0045412D03*
X0057714Y0042734D03*
X0057714Y0040070D03*
D19*
X0051748Y0031008D02*
X0051748Y0081023D01*
X0068741Y0098016D01*
X0068741Y0106129D01*
X0073763Y0106256D02*
X0073763Y0058510D01*
X0069641Y0054389D01*
X0069641Y0031041D01*
X0075563Y0030933D02*
X0075563Y0055116D01*
X0078741Y0058295D01*
X0078741Y0106113D01*
X0083806Y0106192D02*
X0083806Y0057686D01*
X0081513Y0055392D01*
X0081513Y0031138D01*
X0087466Y0031091D02*
X0087466Y0055786D01*
X0088777Y0057097D01*
X0088777Y0106186D01*
X0093563Y0106044D02*
X0093563Y0031025D01*
X0099013Y0031078D02*
X0099013Y0106112D01*
X0103768Y0106252D02*
X0103768Y0056201D01*
X0105331Y0054638D01*
X0105331Y0031084D01*
X0111237Y0031095D02*
X0111237Y0054436D01*
X0108742Y0056931D01*
X0108742Y0106166D01*
X0114026Y0105938D02*
X0114026Y0057158D01*
X0117151Y0054033D01*
X0117151Y0030986D01*
X0123247Y0030957D02*
X0123247Y0053970D01*
X0118753Y0058464D01*
X0118753Y0106191D01*
X0123777Y0106186D02*
X0123777Y0059740D01*
X0129089Y0054428D01*
X0129089Y0031053D01*
X0135168Y0031151D02*
X0135168Y0055045D01*
X0128712Y0061501D01*
X0128712Y0106221D01*
X0134152Y0077695D02*
X0134152Y0063353D01*
D20*
X0067754Y0086142D02*
X0064513Y0082894D01*
X0064513Y0043243D01*
M02*
